SplineFontDB: 1.0
FontName: Goddess-Symbols
FullName: Goddess Symbols
FamilyName: GoddessSymbols
Weight: Normal
Copyright: copyright AnonMoos, released under SIL Open Font License
Version: 1.100
ItalicAngle: 0
Ascent: 2033
Descent: 15
OS2Vendor: 'PfEd'
Encoding: ISO8859-1
UnicodeInterp: none
NameList: Adobe Glyph List
DisplaySize: -24
AntiAlias: 1
FitToEm: 1
WinInfo: 32 32 4
BeginPrivate: 1
ForceBold 5 false
EndPrivate
BeginChars: 256 117
StartChar: exclam
Encoding: 33 33 1
Width: 2098
Flags: W
Fore
2056 424 m 1
 1632 424 l 1
 1632 0 l 1
 1208 424 l 1
 890 424 l 1
 466 0 l 1
 466 424 l 1
 42 424 l 1
 466 848 l 1
 466 1166 l 1
 42 1590 l 1
 466 1590 l 1
 466 2014 l 1
 890 1590 l 1
 1208 1590 l 1
 1632 2014 l 1
 1632 1590 l 1
 2056 1590 l 1
 1632 1166 l 1
 1632 848 l 1
 2056 424 l 1
1572 1388 m 1
 1572 1869 l 1
 1292 1590 l 1
 1406 1590 l 1
 1492 1676 l 1
 1492 1308 l 1
 1572 1388 l 1
1911 1530 m 1
 1632 1530 l 1
 1632 1450 l 1
 1718 1450 l 1
 1374 1106 l 1
 1431 1049 l 1
 1911 1530 l 1
1432 1450 m 1
 1432 1530 l 1
 950 1530 l 1
 1030 1450 l 1
 1432 1450 l 1
1432 1248 m 1
 1432 1390 l 1
 1290 1390 l 1
 1190 1290 l 1
 1332 1148 l 1
 1432 1248 l 1
1572 624 m 1
 1572 1106 l 1
 1492 1026 l 1
 1492 624 l 1
 1572 624 l 1
1007 1389 m 1
 526 1869 l 1
 526 1590 l 1
 606 1590 l 1
 606 1676 l 1
 950 1332 l 1
 1007 1389 l 1
1432 850 m 1
 1432 964 l 1
 1148 1247 l 1
 1091 1191 l 1
 1432 850 l 1
1911 484 m 1
 1632 764 l 1
 1632 650 l 1
 1718 564 l 1
 1350 564 l 1
 1430 484 l 1
 1911 484 l 1
1206 1390 m 1
 1092 1390 l 1
 809 1106 l 1
 865 1049 l 1
 1206 1390 l 1
1190 1007 m 1
 1049 1148 l 1
 908 1007 l 1
 1049 866 l 1
 1190 1007 l 1
908 1290 m 1
 808 1390 l 1
 666 1390 l 1
 666 1248 l 1
 766 1148 l 1
 908 1290 l 1
1432 624 m 1
 1432 766 l 1
 1332 866 l 1
 1190 724 l 1
 1290 624 l 1
 1432 624 l 1
1289 908 m 1
 1233 965 l 1
 892 624 l 1
 1006 624 l 1
 1289 908 l 1
748 1450 m 1
 668 1530 l 1
 187 1530 l 1
 466 1250 l 1
 466 1364 l 1
 380 1450 l 1
 748 1450 l 1
1007 823 m 1
 666 1164 l 1
 666 1050 l 1
 950 767 l 1
 1007 823 l 1
1572 145 m 1
 1572 424 l 1
 1492 424 l 1
 1492 338 l 1
 1148 682 l 1
 1091 625 l 1
 1572 145 l 1
606 988 m 1
 606 1390 l 1
 526 1390 l 1
 526 908 l 1
 606 988 l 1
908 724 m 1
 766 866 l 1
 666 766 l 1
 666 624 l 1
 808 624 l 1
 908 724 l 1
1148 484 m 1
 1068 564 l 1
 666 564 l 1
 666 484 l 1
 1148 484 l 1
724 908 m 1
 667 965 l 1
 187 484 l 1
 466 484 l 1
 466 564 l 1
 380 564 l 1
 724 908 l 1
806 424 m 1
 692 424 l 1
 606 338 l 1
 606 706 l 1
 526 626 l 1
 526 145 l 1
 806 424 l 1
EndSplineSet
EndChar
StartChar: quotedbl
Encoding: 34 34 2
Width: 2088
Flags: W
Fore
2046 0 m 1
 1244 401 l 1
 1044 0 l 1
 844 401 l 1
 42 0 l 1
 443 802 l 1
 42 1002 l 1
 443 1202 l 1
 42 2004 l 1
 844 1603 l 1
 1044 2004 l 1
 1244 1603 l 1
 2046 2004 l 1
 1645 1202 l 1
 2046 1002 l 1
 1645 802 l 1
 2046 0 l 1
1974 1932 m 1
 1259 1574 l 1
 1287 1517 l 1
 1831 1789 l 1
 1491 1109 l 1
 1527 1038 l 1
 1974 1932 l 1
1760 1718 m 1
 1302 1489 l 1
 1378 1336 l 1
 1531 1260 l 1
 1760 1718 l 1
1330 1360 m 1
 1044 1932 l 1
 872 1589 l 1
 930 1560 l 1
 1044 1789 l 1
 1235 1407 l 1
 1330 1360 l 1
1130 1546 m 1
 1044 1718 l 1
 958 1546 l 1
 1044 1503 l 1
 1130 1546 l 1
1760 1002 m 1
 1588 1088 l 1
 1545 1002 l 1
 1588 916 l 1
 1760 1002 l 1
1974 1002 m 1
 1631 1174 l 1
 1602 1116 l 1
 1831 1002 l 1
 1449 811 l 1
 1402 716 l 1
 1974 1002 l 1
1516 1231 m 1
 1151 1413 l 1
 1080 1378 l 1
 1488 1174 l 1
 1516 1231 l 1
1559 902 m 1
 1426 1169 l 1
 1330 1217 l 1
 1502 873 l 1
 1559 902 l 1
1173 1460 m 1
 1144 1517 l 1
 877 1384 l 1
 829 1288 l 1
 1173 1460 l 1
1008 1485 m 1
 114 1932 l 1
 472 1217 l 1
 529 1245 l 1
 257 1789 l 1
 937 1449 l 1
 1008 1485 l 1
1455 895 m 1
 1420 966 l 1
 1216 558 l 1
 1273 530 l 1
 1455 895 l 1
786 1489 m 1
 328 1718 l 1
 557 1260 l 1
 710 1336 l 1
 786 1489 l 1
1402 1002 m 1
 1283 1241 l 1
 1044 1360 l 1
 805 1241 l 1
 686 1002 l 1
 805 763 l 1
 1044 644 l 1
 1283 763 l 1
 1402 1002 l 1
1760 286 m 1
 1531 744 l 1
 1378 668 l 1
 1302 515 l 1
 1760 286 l 1
872 1446 m 1
 815 1474 l 1
 633 1109 l 1
 668 1038 l 1
 872 1446 l 1
1974 72 m 1
 1616 787 l 1
 1559 759 l 1
 1831 215 l 1
 1151 555 l 1
 1080 519 l 1
 1974 72 l 1
1259 716 m 1
 915 544 l 1
 944 487 l 1
 1211 620 l 1
 1259 716 l 1
758 787 m 1
 586 1131 l 1
 529 1102 l 1
 662 835 l 1
 758 787 l 1
1008 626 m 1
 600 830 l 1
 572 773 l 1
 937 591 l 1
 1008 626 l 1
686 1288 m 1
 114 1002 l 1
 457 830 l 1
 486 888 l 1
 257 1002 l 1
 639 1193 l 1
 686 1288 l 1
543 1002 m 1
 500 1088 l 1
 328 1002 l 1
 500 916 l 1
 543 1002 l 1
1130 458 m 1
 1044 501 l 1
 958 458 l 1
 1044 286 l 1
 1130 458 l 1
1216 415 m 1
 1158 444 l 1
 1044 215 l 1
 853 597 l 1
 758 644 l 1
 1044 72 l 1
 1216 415 l 1
786 515 m 1
 710 668 l 1
 557 744 l 1
 328 286 l 1
 786 515 l 1
829 430 m 1
 801 487 l 1
 257 215 l 1
 597 895 l 1
 561 966 l 1
 114 72 l 1
 829 430 l 1
EndSplineSet
EndChar
StartChar: numbersign
Encoding: 35 35 3
Width: 2338
Flags: W
Fore
2290 999 m 0
 2290 846 2229 706 2100 632 c 0
 2053 605 2005 592 1954 586 c 1
 1974 539 1987 490 1987 436 c 0
 1987 180 1720 0 1415 0 c 0
 1326 0 1241 21 1166 59 c 1
 1091 21 1006 0 917 0 c 0
 616 0 345 177 345 436 c 0
 345 490 358 539 378 586 c 1
 327 592 279 605 232 632 c 0
 103 706 42 846 42 999 c 0
 42 1112 75 1232 140 1345 c 0
 185 1423 245 1485 316 1532 c 1
 321 1616 345 1700 389 1777 c 0
 501 1971 688 2102 873 2102 c 0
 927 2102 991 2090 1053 2055 c 0
 1100 2027 1136 1992 1166 1951 c 1
 1196 1992 1232 2027 1279 2055 c 0
 1341 2090 1405 2102 1459 2102 c 0
 1644 2102 1831 1971 1943 1777 c 0
 1987 1700 2011 1616 2016 1532 c 1
 2087 1485 2147 1423 2192 1345 c 0
 2257 1232 2290 1112 2290 999 c 0
1887 1595 m 1
 1877 1637 1861 1678 1839 1717 c 0
 1739 1890 1586 1982 1459 1982 c 0
 1423 1982 1380 1974 1339 1951 c 0
 1298 1927 1268 1892 1236 1840 c 1
 1403 1550 l 1
 1496 1602 1597 1627 1696 1627 c 0
 1761 1627 1826 1616 1887 1595 c 1
1983 1552 m 1
 1975 1624 1953 1695 1915 1761 c 0
 1807 1949 1628 2070 1459 2070 c 0
 1402 2070 1346 2056 1295 2027 c 0
 1226 1987 1183 1926 1142 1855 c 2
 956 1533 l 1
 972 1523 987 1511 1001 1499 c 1
 1190 1827 l 2
 1230 1896 1267 1946 1323 1978 c 0
 1365 2002 1411 2014 1459 2014 c 0
 1601 2014 1763 1912 1866 1733 c 0
 1894 1685 1913 1634 1922 1582 c 1
 1943 1573 1963 1563 1983 1552 c 1
2170 999 m 0
 2170 1089 2143 1189 2088 1285 c 0
 2066 1324 2038 1358 2007 1387 c 1
 1975 1228 1877 1081 1726 991 c 1
 1893 701 l 1
 1954 703 2000 712 2040 736 c 0
 2125 784 2170 882 2170 999 c 0
1896 1462 m 1
 1834 1492 1766 1507 1696 1507 c 0
 1617 1507 1537 1488 1463 1446 c 1
 1666 1095 l 1
 1803 1177 1885 1317 1896 1462 c 1
2258 999 m 0
 2258 1106 2227 1221 2164 1329 c 0
 2065 1500 1884 1595 1696 1595 c 0
 1602 1595 1507 1572 1419 1522 c 1
 1447 1474 l 1
 1526 1518 1612 1539 1696 1539 c 0
 1865 1539 2028 1454 2116 1301 c 0
 2174 1201 2202 1095 2202 999 c 0
 2202 869 2151 762 2056 708 c 0
 2014 683 1967 673 1911 670 c 1
 1921 652 1931 634 1940 616 c 1
 1991 621 2039 633 2084 659 c 0
 2201 727 2258 856 2258 999 c 0
1637 1080 m 1
 1217 1809 l 1
 1184 1753 l 1
 1584 1061 l 1
 1601 1066 1619 1072 1637 1080 c 1
1978 1411 m 1
 1962 1424 1945 1436 1927 1446 c 1
 1910 1293 1822 1148 1675 1064 c 0
 1626 1035 1572 1022 1522 1022 c 0
 1436 1022 1360 1060 1320 1130 c 0
 1299 1165 1292 1202 1292 1233 c 0
 1292 1289 1314 1347 1353 1396 c 1
 1324 1447 l 1
 1269 1387 1236 1311 1236 1233 c 0
 1236 1194 1245 1147 1271 1102 c 0
 1323 1013 1420 966 1522 966 c 0
 1582 966 1645 982 1703 1016 c 0
 1856 1104 1953 1252 1978 1411 c 1
1550 1055 m 1
 1371 1366 l 1
 1342 1327 1324 1280 1324 1233 c 0
 1324 1207 1330 1176 1347 1146 c 0
 1381 1088 1446 1054 1522 1054 c 0
 1531 1054 1540 1054 1550 1055 c 1
1096 1840 m 1
 1064 1892 1034 1927 993 1951 c 0
 952 1974 909 1982 873 1982 c 0
 746 1982 593 1890 493 1717 c 0
 471 1678 455 1637 445 1595 c 1
 506 1616 571 1627 636 1627 c 0
 735 1627 836 1602 929 1550 c 1
 1096 1840 l 1
1755 701 m 1
 1614 945 l 1
 1583 938 1552 934 1522 934 c 0
 1410 934 1301 985 1244 1086 c 0
 1214 1137 1204 1189 1204 1233 c 0
 1204 1322 1243 1409 1307 1476 c 1
 1166 1721 l 1
 1025 1476 l 1
 1089 1409 1128 1322 1128 1233 c 0
 1128 1189 1118 1137 1088 1086 c 0
 1031 985 922 934 810 934 c 0
 780 934 749 938 718 945 c 1
 577 701 l 1
 859 701 l 1
 902 849 1026 951 1166 951 c 0
 1313 951 1431 844 1473 701 c 1
 1755 701 l 1
1147 1924 m 1
 1117 1965 1082 2001 1037 2027 c 0
 986 2056 930 2070 873 2070 c 0
 704 2070 525 1949 417 1761 c 0
 369 1678 347 1588 347 1498 c 0
 347 1306 449 1122 622 1019 c 1
 650 1068 l 1
 495 1160 403 1326 403 1498 c 0
 403 1578 423 1659 466 1733 c 0
 569 1912 731 2014 873 2014 c 0
 921 2014 967 2002 1009 1978 c 0
 1052 1954 1084 1918 1114 1871 c 1
 1125 1889 1135 1907 1147 1924 c 1
1008 1233 m 0
 1008 1280 990 1327 961 1366 c 1
 782 1055 l 1
 792 1054 801 1054 810 1054 c 0
 886 1054 951 1088 985 1146 c 0
 1002 1176 1008 1207 1008 1233 c 0
1955 436 m 0
 1955 516 1924 584 1883 655 c 2
 1698 976 l 1
 1680 967 1663 960 1645 954 c 1
 1835 627 l 2
 1874 558 1899 500 1899 436 c 0
 1899 246 1690 88 1415 88 c 0
 1360 88 1307 98 1257 115 c 1
 1239 102 1220 89 1201 78 c 1
 1267 48 1339 32 1415 32 c 0
 1706 32 1955 202 1955 436 c 0
1096 1233 m 0
 1096 1347 1026 1457 919 1519 c 0
 830 1570 732 1595 636 1595 c 0
 568 1595 501 1583 439 1559 c 1
 436 1539 435 1518 435 1497 c 1
 497 1525 566 1539 636 1539 c 0
 722 1539 810 1517 891 1470 c 0
 986 1416 1040 1321 1040 1233 c 0
 1040 1202 1033 1165 1012 1130 c 0
 972 1060 896 1022 810 1022 c 0
 795 1022 780 1023 765 1025 c 1
 735 974 l 1
 760 969 785 966 810 966 c 0
 912 966 1009 1013 1061 1102 c 0
 1087 1147 1096 1194 1096 1233 c 0
1806 613 m 1
 1773 669 l 1
 975 669 l 1
 970 651 966 632 964 613 c 1
 1806 613 l 1
869 1446 m 1
 795 1488 715 1507 636 1507 c 0
 566 1507 498 1492 436 1462 c 1
 447 1317 529 1177 666 1095 c 1
 869 1446 l 1
1346 701 m 1
 1311 780 1241 831 1166 831 c 0
 1090 831 1021 780 986 701 c 1
 1346 701 l 1
1867 436 m 0
 1867 483 1852 527 1824 581 c 1
 1489 581 l 1
 1486 405 1409 246 1286 139 c 1
 1327 127 1371 120 1415 120 c 0
 1679 120 1867 270 1867 436 c 0
939 1392 m 1
 926 1406 912 1418 896 1429 c 1
 475 701 l 1
 540 701 l 1
 939 1392 l 1
1439 701 m 1
 1399 827 1293 919 1166 919 c 0
 1003 919 875 768 875 588 c 0
 875 424 946 262 1081 152 c 1
 1100 160 1119 169 1137 179 c 1
 1016 267 931 416 931 588 c 0
 931 743 1040 863 1166 863 c 0
 1259 863 1343 798 1380 701 c 1
 1439 701 l 1
1369 581 m 1
 963 581 l 1
 966 421 1046 280 1166 198 c 1
 1286 280 1366 421 1369 581 c 1
851 669 m 1
 473 669 l 2
 394 669 331 676 276 708 c 0
 181 762 130 869 130 999 c 0
 130 1095 158 1201 216 1301 c 0
 244 1349 279 1391 319 1425 c 1
 316 1447 315 1470 315 1492 c 1
 256 1450 206 1395 168 1329 c 0
 105 1221 74 1106 74 999 c 0
 74 856 131 727 248 659 c 0
 316 620 391 613 473 613 c 2
 844 613 l 1
 845 632 848 651 851 669 c 1
606 991 m 1
 455 1081 357 1228 325 1387 c 1
 294 1358 266 1324 244 1285 c 0
 189 1189 162 1089 162 999 c 0
 162 882 207 784 292 736 c 0
 332 712 378 703 439 701 c 1
 606 991 l 1
1457 581 m 1
 1401 581 l 1
 1397 308 1181 88 917 88 c 0
 642 88 433 246 433 436 c 0
 433 485 447 531 472 581 c 1
 452 581 431 581 411 582 c 1
 390 536 377 488 377 436 c 0
 377 202 625 32 917 32 c 0
 1213 32 1453 278 1457 581 c 1
1046 139 m 1
 923 246 846 405 843 581 c 1
 508 581 l 1
 480 527 465 483 465 436 c 0
 465 250 681 120 917 120 c 0
 961 120 1005 127 1046 139 c 1
EndSplineSet
EndChar
StartChar: dollar
Encoding: 36 36 4
Width: 2234
Flags: W
Fore
2192 476 m 0
 2192 213 1979 0 1716 0 c 0
 1651 0 1587 13 1528 38 c 1
 1476 13 1418 0 1359 0 c 2
 875 0 l 2
 816 0 758 13 706 38 c 1
 647 13 583 0 518 0 c 0
 255 0 42 213 42 476 c 0
 42 629 114 769 232 858 c 1
 237 916 254 973 284 1023 c 2
 526 1443 l 2
 555 1494 596 1538 644 1570 c 1
 672 1803 869 1990 1117 1990 c 0
 1352 1990 1561 1815 1590 1570 c 1
 1638 1538 1679 1494 1708 1443 c 2
 1950 1023 l 2
 1980 973 1997 916 2002 858 c 1
 2120 769 2192 629 2192 476 c 0
1482 1622 m 1
 1439 1765 1304 1894 1117 1894 c 0
 932 1894 795 1768 752 1622 c 1
 789 1633 826 1639 865 1639 c 0
 959 1639 1048 1605 1117 1546 c 1
 1187 1605 1275 1639 1369 1639 c 0
 1408 1639 1445 1633 1482 1622 c 1
1969 880 m 1
 1962 925 1947 969 1924 1008 c 2
 1682 1428 l 2
 1633 1513 1526 1609 1369 1609 c 0
 1284 1609 1203 1579 1139 1526 c 1
 1148 1517 1156 1509 1164 1499 c 1
 1221 1546 1293 1573 1369 1573 c 0
 1482 1573 1591 1514 1651 1410 c 2
 1893 990 l 2
 1909 963 1921 934 1928 903 c 1
 1937 899 1946 894 1954 889 c 2
 1969 880 l 1
1892 919 m 1
 1886 939 1878 958 1867 975 c 2
 1625 1395 l 2
 1614 1413 1602 1430 1589 1445 c 1
 1580 1386 1560 1328 1530 1275 c 2
 1357 975 l 2
 1352 968 1349 961 1345 954 c 1
 1353 953 1361 953 1369 953 c 2
 1716 953 l 2
 1776 953 1836 941 1892 919 c 1
1498 1513 m 1
 1458 1533 1414 1543 1369 1543 c 0
 1300 1543 1234 1519 1182 1476 c 1
 1231 1408 1255 1329 1255 1248 c 0
 1255 1167 1231 1088 1182 1020 c 1
 1203 1003 1225 989 1251 978 c 1
 1257 994 1265 1009 1273 1023 c 2
 1447 1323 l 2
 1480 1381 1498 1447 1498 1513 c 1
1557 1591 m 1
 1519 1805 1332 1960 1117 1960 c 0
 870 1960 670 1760 670 1514 c 0
 670 1424 697 1348 730 1290 c 2
 903 990 l 2
 909 980 915 969 920 958 c 1
 932 961 943 964 955 967 c 1
 949 981 942 995 935 1008 c 2
 761 1308 l 2
 731 1362 706 1432 706 1514 c 0
 706 1740 890 1924 1117 1924 c 0
 1320 1924 1475 1780 1516 1610 c 1
 1530 1605 1544 1598 1557 1591 c 1
1562 1472 m 1
 1551 1481 1539 1489 1527 1497 c 1
 1525 1431 1506 1366 1473 1308 c 2
 1299 1008 l 2
 1274 964 1251 903 1251 828 c 0
 1251 808 1253 788 1256 768 c 1
 1268 771 1279 774 1291 776 c 1
 1288 793 1287 810 1287 828 c 0
 1287 896 1307 950 1331 990 c 2
 1504 1290 l 2
 1536 1346 1556 1408 1562 1472 c 1
1159 1248 m 0
 1159 1309 1140 1361 1117 1400 c 1
 1092 1356 1075 1309 1075 1248 c 0
 1075 1187 1094 1135 1117 1096 c 1
 1142 1139 1159 1187 1159 1248 c 0
1906 806 m 1
 1848 839 1783 857 1716 857 c 2
 1369 857 l 2
 1352 857 1336 858 1319 860 c 1
 1318 850 1317 839 1317 828 c 0
 1317 812 1318 796 1321 780 c 1
 1334 781 1347 782 1359 782 c 0
 1531 782 1660 675 1716 552 c 1
 1825 593 1898 693 1906 806 c 1
1240 950 m 1
 1134 996 1045 1106 1045 1248 c 0
 1045 1302 1059 1367 1099 1427 c 1
 1091 1437 1083 1447 1074 1455 c 1
 1030 1393 1009 1322 1009 1248 c 0
 1009 1086 1113 964 1231 915 c 1
 1233 927 1237 938 1240 950 c 1
1225 1248 m 0
 1225 1447 1064 1609 865 1609 c 0
 823 1609 782 1602 744 1588 c 1
 741 1574 739 1561 738 1547 c 1
 778 1564 821 1573 865 1573 c 0
 1044 1573 1189 1427 1189 1248 c 0
 1189 1194 1175 1128 1135 1069 c 1
 1143 1059 1151 1049 1160 1041 c 1
 1204 1103 1225 1174 1225 1248 c 0
2096 476 m 0
 2096 578 2058 669 1992 738 c 1
 1962 611 1869 505 1744 460 c 1
 1748 437 1750 414 1750 391 c 0
 1750 277 1701 176 1627 106 c 1
 1656 99 1686 96 1716 96 c 0
 1926 96 2096 266 2096 476 c 0
1967 763 m 1
 1956 772 1946 780 1934 788 c 1
 1914 622 1772 503 1612 503 c 0
 1475 503 1369 586 1321 683 c 1
 1309 682 1297 679 1285 676 c 1
 1336 565 1456 467 1612 467 c 0
 1758 467 1930 565 1967 763 c 1
2162 476 m 0
 2162 723 1962 923 1716 923 c 2
 1369 923 l 2
 1357 923 1345 924 1333 925 c 1
 1329 914 1326 902 1324 890 c 1
 1339 888 1354 887 1369 887 c 2
 1716 887 l 2
 1942 887 2126 703 2126 476 c 0
 2126 250 1942 66 1716 66 c 0
 1676 66 1637 72 1600 83 c 1
 1588 73 1576 65 1563 57 c 1
 1612 39 1663 30 1716 30 c 0
 1962 30 2162 230 2162 476 c 0
1052 1020 m 1
 1003 1088 979 1167 979 1248 c 0
 979 1329 1003 1408 1052 1476 c 1
 1000 1519 934 1543 865 1543 c 0
 820 1543 776 1533 736 1513 c 1
 736 1447 754 1381 787 1323 c 2
 961 1023 l 2
 969 1009 977 994 983 978 c 1
 1009 989 1031 1003 1052 1020 c 1
1618 533 m 1
 1559 635 1459 686 1359 686 c 2
 1354 686 l 1
 1412 584 1512 533 1612 533 c 2
 1618 533 l 1
1687 543 m 1
 1635 655 1516 752 1359 752 c 0
 1266 752 1190 716 1140 677 c 1
 1149 669 1158 661 1166 652 c 1
 1243 709 1323 716 1359 716 c 0
 1496 716 1602 633 1650 536 c 1
 1663 537 1675 540 1687 543 c 1
1227 759 m 1
 1223 781 1221 805 1221 828 c 0
 1221 847 1222 866 1225 885 c 1
 1185 901 1148 923 1117 950 c 1
 1086 923 1049 901 1009 885 c 1
 1012 866 1013 847 1013 828 c 0
 1013 805 1011 781 1007 759 c 1
 1047 744 1085 722 1117 697 c 1
 1149 722 1186 744 1227 759 c 1
1654 391 m 0
 1654 407 1653 423 1650 439 c 1
 1638 438 1625 437 1612 437 c 0
 1442 437 1312 543 1256 667 c 1
 1230 657 1206 644 1185 628 c 1
 1195 615 1205 601 1213 586 c 2
 1386 286 l 2
 1420 228 1468 180 1525 147 c 1
 1606 202 1654 293 1654 391 c 0
889 954 m 1
 885 961 882 968 877 975 c 2
 704 1275 l 2
 674 1328 654 1386 645 1445 c 1
 632 1430 620 1413 609 1395 c 2
 367 975 l 2
 356 958 348 939 342 919 c 1
 398 941 458 953 518 953 c 2
 865 953 l 2
 873 953 881 953 889 954 c 1
1496 130 m 1
 1440 165 1394 214 1360 271 c 2
 1187 571 l 2
 1164 611 1108 689 1000 729 c 1
 997 717 994 706 990 695 c 1
 1086 658 1135 589 1156 553 c 2
 1329 253 l 2
 1361 198 1405 150 1457 113 c 1
 1470 117 1484 123 1496 130 c 1
1095 970 m 1
 1086 978 1078 987 1070 996 c 1
 1007 944 931 923 865 923 c 2
 518 923 l 2
 454 923 391 909 332 883 c 1
 330 869 328 854 328 840 c 1
 386 871 452 887 518 887 c 2
 865 887 l 2
 969 887 1047 931 1095 970 c 1
1720 391 m 0
 1720 411 1719 431 1715 451 c 1
 1704 448 1692 445 1680 443 c 1
 1683 426 1684 408 1684 391 c 0
 1684 212 1538 66 1359 66 c 2
 875 66 l 2
 843 66 812 71 782 79 c 1
 773 74 765 69 756 64 c 2
 741 55 l 1
 784 39 829 30 875 30 c 2
 1359 30 l 2
 1410 30 1468 40 1528 72 c 2
 1540 78 l 2
 1634 133 1720 244 1720 391 c 0
641 1484 m 1
 641 1494 640 1504 640 1514 c 0
 640 1519 641 1525 641 1531 c 1
 605 1503 575 1468 552 1428 c 2
 310 1008 l 2
 274 946 261 882 261 828 c 0
 261 642 393 528 496 490 c 1
 499 501 503 513 507 524 c 1
 405 563 297 669 297 828 c 0
 297 893 316 948 341 990 c 2
 583 1410 l 2
 599 1438 619 1462 641 1484 c 1
983 828 m 0
 983 844 982 859 980 874 c 1
 968 871 957 868 945 865 c 1
 946 853 947 841 947 828 c 0
 947 649 801 503 622 503 c 0
 615 503 609 503 602 504 c 1
 597 492 593 481 590 469 c 1
 601 468 611 467 622 467 c 0
 821 467 983 629 983 828 c 0
1421 102 m 1
 1373 140 1333 186 1303 238 c 2
 1130 538 l 2
 1126 545 1122 552 1117 559 c 1
 1112 552 1108 545 1104 538 c 2
 931 238 l 2
 901 186 861 140 813 102 c 1
 833 98 854 96 875 96 c 2
 1359 96 l 2
 1380 96 1401 98 1421 102 c 1
880 686 m 1
 875 686 l 2
 775 686 675 635 616 533 c 1
 622 533 l 2
 722 533 821 584 880 686 c 1
917 828 m 0
 917 839 916 850 915 860 c 1
 898 858 882 857 865 857 c 2
 518 857 l 2
 451 857 386 839 328 806 c 1
 336 693 409 593 518 552 c 1
 574 675 703 782 875 782 c 0
 887 782 900 781 913 780 c 1
 916 796 917 812 917 828 c 0
1049 628 m 1
 1028 644 1004 657 978 667 c 1
 923 544 793 437 622 437 c 0
 609 437 596 438 584 439 c 1
 581 423 580 407 580 391 c 0
 580 293 628 202 709 147 c 1
 766 180 814 228 848 286 c 2
 1021 586 l 2
 1029 601 1039 615 1049 628 c 1
907 750 m 1
 896 751 885 752 875 752 c 0
 676 752 514 590 514 391 c 0
 514 277 567 179 641 116 c 1
 654 121 666 126 679 131 c 1
 596 194 550 290 550 391 c 0
 550 570 696 716 875 716 c 0
 881 716 888 715 894 715 c 1
 899 726 903 738 907 750 c 1
1098 583 m 1
 1090 593 1081 601 1072 609 c 1
 1063 597 1055 585 1047 571 c 2
 874 271 l 2
 818 175 697 66 518 66 c 0
 292 66 108 250 108 476 c 0
 108 591 156 698 235 774 c 1
 233 789 232 804 231 819 c 1
 132 735 72 610 72 476 c 0
 72 230 272 30 518 30 c 0
 672 30 821 109 905 253 c 2
 1078 553 l 2
 1084 564 1091 574 1098 583 c 1
607 106 m 1
 532 176 484 277 484 391 c 0
 484 414 486 437 490 460 c 1
 365 505 272 611 242 738 c 1
 152 643 138 535 138 476 c 0
 138 266 308 96 518 96 c 0
 548 96 578 99 607 106 c 1
EndSplineSet
EndChar
StartChar: percent
Encoding: 37 37 5
Width: 2130
Flags: W
Fore
2076 1017 m 0
 2076 814 2016 641 1939 509 c 0
 1906 451 1841 404 1758 404 c 0
 1642 404 1548 498 1548 614 c 1
 1584 622 1620 634 1655 649 c 1
 1655 637 1656 625 1656 614 c 0
 1656 558 1702 512 1758 512 c 0
 1802 512 1832 539 1846 563 c 0
 1937 720 1968 881 1968 1017 c 0
 1968 1464 1653 1805 1281 1898 c 1
 1266 1943 1232 1994 1175 2027 c 1
 1690 1968 2076 1531 2076 1017 c 0
1306 1219 m 0
 1306 1207 1306 1195 1305 1183 c 1
 1271 1198 1235 1210 1198 1218 c 1
 1198 1390 1108 1553 954 1642 c 0
 897 1675 849 1740 849 1824 c 0
 849 1842 851 1860 856 1878 c 1
 900 1888 945 1895 990 1899 c 1
 968 1879 957 1850 957 1824 c 0
 957 1755 1016 1731 1038 1717 c 0
 1084 1687 1124 1651 1159 1611 c 0
 1252 1504 1306 1367 1306 1219 c 0
1623 807 m 1
 1591 790 1557 777 1522 768 c 1
 1469 929 1306 1102 1059 1102 c 0
 1026 1102 993 1099 961 1092 c 1
 951 1127 946 1163 944 1199 c 1
 982 1206 1020 1210 1059 1210 c 0
 1308 1210 1539 1053 1623 807 c 1
1906 762 m 1
 1893 719 1877 676 1857 635 c 1
 1848 678 1810 716 1758 716 c 0
 1696 716 1617 622 1408 622 c 0
 1301 622 1183 653 1080 721 c 1
 1110 743 1138 768 1164 796 c 1
 1248 747 1335 730 1408 730 c 0
 1506 730 1589 759 1653 796 c 0
 1685 814 1721 824 1758 824 c 0
 1810 824 1864 804 1906 762 c 1
1043 895 m 1
 1017 869 989 846 959 826 c 1
 886 910 812 1044 812 1219 c 0
 812 1366 866 1504 959 1611 c 1
 989 1591 1017 1569 1043 1543 c 1
 957 1446 920 1328 920 1219 c 0
 920 1109 957 992 1043 895 c 1
1269 1824 m 0
 1269 1741 1221 1675 1164 1642 c 1
 1138 1669 1110 1694 1080 1717 c 1
 1105 1734 1161 1756 1161 1824 c 0
 1161 1880 1115 1926 1059 1926 c 0
 557 1926 150 1519 150 1017 c 0
 150 933 162 849 185 769 c 1
 123 702 126 618 126 612 c 1
 71 740 42 877 42 1017 c 0
 42 1579 497 2034 1059 2034 c 0
 1175 2034 1269 1940 1269 1824 c 0
1274 1025 m 1
 1230 895 1146 798 1059 735 c 0
 968 670 846 622 710 622 c 0
 671 622 633 626 595 633 c 1
 597 669 603 705 613 740 c 1
 644 733 677 730 710 730 c 0
 940 730 1113 885 1173 1064 c 1
 1208 1055 1242 1042 1274 1025 c 1
1876 412 m 1
 1687 157 1386 0 1059 0 c 0
 692 0 358 198 179 509 c 0
 160 541 150 577 150 614 c 0
 150 730 244 824 360 824 c 0
 397 824 434 814 466 795 c 1
 455 759 447 722 443 685 c 1
 404 704 393 716 360 716 c 0
 304 716 258 670 258 614 c 0
 258 596 263 578 272 563 c 0
 305 506 343 453 387 405 c 2
 407 384 l 2
 569 217 799 108 1059 108 c 0
 1318 108 1550 218 1711 384 c 1
 1726 381 1742 380 1758 380 c 0
 1805 380 1844 394 1876 412 c 1
815 1037 m 1
 700 970 570 826 570 614 c 0
 570 512 499 433 415 411 c 1
 384 444 355 479 330 516 c 1
 339 513 350 512 360 512 c 0
 416 512 462 558 462 614 c 0
 462 901 653 1078 792 1147 c 1
 796 1110 804 1073 815 1037 c 1
EndSplineSet
EndChar
StartChar: ampersand
Encoding: 38 38 6
Width: 2194
Flags: W
Fore
2152 1706 m 2
 2152 1692 2147 1681 2137 1671 c 2
 2054 1587 l 1
 2037 1617 2019 1646 1999 1675 c 1
 2052 1727 l 1
 2052 2010 l 1
 1730 2010 l 1
 1730 1742 l 2
 1730 1686 1715 1640 1696 1603 c 1
 1671 1629 l 2
 1654 1645 1637 1660 1618 1672 c 1
 1626 1694 1630 1718 1630 1742 c 2
 1630 2060 l 2
 1630 2088 1652 2110 1680 2110 c 2
 2152 2110 l 1
 2152 1706 l 2
2152 1055 m 0
 2152 888 2113 730 2044 589 c 1
 1968 664 l 1
 2022 784 2052 916 2052 1055 c 0
 2052 1159 2036 1382 1876 1607 c 0
 1844 1652 1809 1694 1770 1732 c 1
 1770 1867 l 1
 1837 1812 1896 1749 1947 1679 c 0
 2095 1478 2152 1254 2152 1055 c 0
1590 1872 m 1
 1422 1975 1245 2010 1097 2010 c 0
 1047 2010 1007 1970 1007 1920 c 0
 1007 1896 1016 1873 1033 1856 c 2
 1069 1821 l 1
 998 1750 l 1
 963 1785 l 2
 927 1821 907 1869 907 1920 c 0
 907 2025 992 2110 1097 2110 c 0
 1299 2110 1467 2053 1590 1987 c 1
 1590 1872 l 1
1920 1454 m 1
 1706 1240 l 1
 1635 1311 l 1
 1870 1545 l 1
 1888 1516 1905 1485 1920 1454 c 1
1756 1487 m 1
 1685 1417 l 1
 1572 1530 l 2
 1532 1570 1480 1588 1430 1588 c 0
 1408 1588 1387 1585 1368 1578 c 1
 1292 1654 l 1
 1333 1676 1380 1688 1430 1688 c 0
 1515 1688 1590 1653 1642 1600 c 2
 1756 1487 l 1
1966 1232 m 0
 1966 1203 1954 1175 1933 1154 c 2
 1706 927 l 1
 1671 962 l 2
 1659 974 1646 985 1633 995 c 1
 1863 1225 l 2
 1865 1227 1866 1229 1866 1232 c 0
 1866 1234 1865 1237 1863 1239 c 2
 1812 1289 l 1
 1883 1360 l 1
 1933 1310 l 2
 1954 1289 1966 1261 1966 1232 c 0
1287 1920 m 0
 1287 1869 1267 1821 1231 1785 c 2
 1037 1591 l 1
 1017 1618 993 1642 966 1661 c 1
 1161 1856 l 2
 1178 1873 1187 1896 1187 1920 c 0
 1187 1937 1182 1953 1174 1966 c 1
 1211 1963 1248 1958 1285 1950 c 1
 1286 1940 1287 1930 1287 1920 c 0
1579 1466 m 1
 1358 1245 l 1
 1328 1261 1303 1286 1287 1316 c 1
 1502 1531 l 1
 1517 1524 1531 1514 1543 1501 c 2
 1579 1466 l 1
1735 1154 m 1
 1665 1083 l 1
 1459 1289 l 1
 1529 1360 l 1
 1735 1154 l 1
1402 1487 m 1
 1331 1417 l 1
 1125 1623 l 1
 1196 1693 l 1
 1402 1487 l 1
1569 1122 m 1
 1527 1100 1479 1088 1430 1088 c 0
 1264 1088 1130 1222 1130 1388 c 0
 1130 1438 1143 1486 1164 1527 c 1
 1240 1451 l 1
 1234 1431 1230 1410 1230 1388 c 0
 1230 1278 1320 1188 1430 1188 c 0
 1452 1188 1473 1192 1493 1198 c 1
 1569 1122 l 1
1966 878 m 0
 1966 849 1954 821 1933 800 c 2
 1703 571 l 1
 1694 584 1683 597 1671 609 c 2
 1635 644 l 1
 1863 871 l 2
 1865 873 1866 876 1866 878 c 0
 1866 881 1865 883 1863 885 c 2
 1792 956 l 1
 1863 1027 l 1
 1933 956 l 2
 1954 935 1966 907 1966 878 c 0
954 2100 m 1
 917 2071 890 2030 876 1984 c 1
 631 1926 439 1778 318 1607 c 1
 247 1679 l 1
 397 1883 641 2058 954 2100 c 1
1756 821 m 1
 1685 750 l 1
 1572 863 l 2
 1532 903 1480 922 1430 922 c 0
 1408 922 1387 918 1368 912 c 1
 1292 988 l 1
 1333 1009 1380 1022 1430 1022 c 0
 1515 1022 1590 986 1642 934 c 2
 1756 821 l 1
1064 1388 m 0
 1064 1338 1051 1291 1030 1250 c 1
 954 1326 l 1
 960 1345 964 1366 964 1388 c 0
 964 1498 874 1588 764 1588 c 0
 742 1588 721 1585 701 1578 c 1
 651 1629 l 2
 642 1637 635 1646 629 1656 c 1
 670 1677 716 1688 764 1688 c 0
 930 1688 1064 1554 1064 1388 c 0
2152 0 m 1
 1680 0 l 2
 1652 0 1630 22 1630 50 c 2
 1630 99 l 1
 1665 118 1698 139 1730 162 c 1
 1730 100 l 1
 2052 100 l 1
 2052 383 l 1
 1812 623 l 1
 1883 693 l 1
 2137 439 l 2
 2147 429 2152 418 2152 404 c 2
 2152 0 l 1
735 1487 m 1
 665 1417 l 1
 552 1530 l 2
 483 1598 468 1678 465 1716 c 1
 496 1746 529 1773 564 1798 c 1
 564 1742 l 2
 564 1692 582 1640 622 1600 c 2
 735 1487 l 1
1069 1154 m 1
 998 1083 l 1
 792 1289 l 1
 863 1360 l 1
 1069 1154 l 1
1579 799 m 1
 1358 579 l 1
 1328 594 1303 619 1287 650 c 1
 1502 864 l 1
 1517 857 1531 847 1543 835 c 2
 1579 799 l 1
907 1460 m 1
 692 1246 l 1
 677 1253 663 1263 651 1275 c 2
 615 1311 l 1
 836 1531 l 1
 866 1516 891 1491 907 1460 c 1
1228 1115 m 1
 1037 924 l 1
 1017 951 993 975 966 995 c 1
 1157 1186 l 1
 1177 1159 1201 1135 1228 1115 c 1
1402 821 m 1
 1331 750 l 1
 1125 956 l 1
 1196 1027 l 1
 1402 821 l 1
1729 394 m 1
 1698 364 1665 337 1630 312 c 1
 1630 368 l 2
 1630 418 1612 470 1572 510 c 2
 1459 623 l 1
 1529 693 l 1
 1642 580 l 2
 1711 512 1726 432 1729 394 c 1
564 2011 m 1
 529 1992 496 1971 464 1948 c 1
 464 2010 l 1
 142 2010 l 1
 142 1727 l 1
 382 1487 l 1
 311 1417 l 1
 57 1671 l 2
 47 1681 42 1692 42 1706 c 2
 42 2110 l 1
 514 2110 l 2
 542 2110 564 2088 564 2060 c 2
 564 2011 l 1
1565 454 m 1
 1524 433 1478 422 1430 422 c 0
 1264 422 1130 556 1130 722 c 0
 1130 772 1143 819 1164 860 c 1
 1240 784 l 1
 1234 765 1230 744 1230 722 c 0
 1230 612 1320 522 1430 522 c 0
 1452 522 1473 525 1493 532 c 1
 1543 481 l 2
 1552 473 1559 464 1565 454 c 1
902 1122 m 1
 861 1101 814 1088 764 1088 c 0
 679 1088 604 1124 552 1176 c 2
 438 1289 l 1
 509 1360 l 1
 622 1247 l 2
 662 1207 714 1188 764 1188 c 0
 786 1188 807 1192 826 1198 c 1
 902 1122 l 1
1947 431 m 1
 1797 227 1553 52 1240 10 c 1
 1277 39 1304 80 1318 126 c 1
 1563 184 1755 332 1876 503 c 1
 1947 431 l 1
559 1466 m 1
 331 1239 l 2
 329 1237 328 1234 328 1232 c 0
 328 1229 329 1227 331 1225 c 2
 402 1154 l 1
 331 1083 l 1
 261 1154 l 2
 240 1175 228 1203 228 1232 c 0
 228 1261 240 1289 261 1310 c 2
 491 1539 l 1
 500 1526 511 1513 523 1501 c 2
 559 1466 l 1
1064 722 m 0
 1064 672 1051 624 1030 583 c 1
 954 659 l 1
 960 679 964 700 964 722 c 0
 964 832 874 922 764 922 c 0
 742 922 721 918 701 912 c 1
 625 988 l 1
 667 1010 715 1022 764 1022 c 0
 930 1022 1064 888 1064 722 c 0
735 821 m 1
 665 750 l 1
 459 956 l 1
 529 1027 l 1
 735 821 l 1
907 794 m 1
 692 579 l 1
 677 586 663 596 651 609 c 2
 615 644 l 1
 836 865 l 1
 866 849 891 824 907 794 c 1
1069 487 m 1
 998 417 l 1
 792 623 l 1
 863 693 l 1
 1069 487 l 1
1228 449 m 1
 1033 254 l 2
 1016 237 1007 214 1007 190 c 0
 1007 173 1012 157 1020 144 c 1
 983 147 946 152 909 160 c 1
 908 170 907 180 907 190 c 0
 907 241 927 289 963 325 c 2
 1157 519 l 1
 1177 492 1201 468 1228 449 c 1
561 1115 m 1
 331 885 l 2
 329 883 328 881 328 878 c 0
 328 876 329 873 331 871 c 2
 382 821 l 1
 311 750 l 1
 261 800 l 2
 240 821 228 849 228 878 c 0
 228 907 240 935 261 956 c 2
 488 1183 l 1
 523 1148 l 2
 535 1136 548 1125 561 1115 c 1
902 456 m 1
 861 434 814 422 764 422 c 0
 679 422 604 457 552 510 c 2
 438 623 l 1
 509 693 l 1
 622 580 l 2
 662 540 714 522 764 522 c 0
 786 522 807 525 826 532 c 1
 902 456 l 1
559 799 m 1
 324 565 l 1
 306 594 289 625 274 656 c 1
 488 870 l 1
 559 799 l 1
1287 190 m 0
 1287 85 1202 0 1097 0 c 0
 895 0 727 57 604 123 c 1
 604 238 l 1
 772 135 949 100 1097 100 c 0
 1147 100 1187 140 1187 190 c 0
 1187 214 1178 237 1161 254 c 2
 1125 289 l 1
 1196 360 l 1
 1231 325 l 2
 1267 289 1287 241 1287 190 c 0
424 243 m 1
 357 298 298 361 247 431 c 0
 99 632 42 856 42 1055 c 0
 42 1222 81 1380 150 1521 c 1
 226 1446 l 1
 172 1326 142 1194 142 1055 c 0
 142 951 158 728 318 503 c 0
 350 458 385 416 424 378 c 1
 424 243 l 1
576 438 m 1
 568 416 564 392 564 368 c 2
 564 50 l 2
 564 22 542 0 514 0 c 2
 42 0 l 1
 42 404 l 2
 42 418 47 429 57 439 c 2
 140 523 l 1
 157 493 175 464 195 435 c 1
 142 383 l 1
 142 100 l 1
 464 100 l 1
 464 368 l 2
 464 424 479 470 498 507 c 1
 523 481 l 2
 540 465 557 450 576 438 c 1
EndSplineSet
EndChar
StartChar: quotesingle
Encoding: 39 39 7
Width: 1762
Flags: W
Fore
1714 1653 m 1
 770 19 l 2
 760 2 742 0 735 0 c 0
 688 0 624 71 624 130 c 0
 624 141 626 150 631 158 c 2
 1581 1803 l 1
 1025 2124 l 1
 93 510 l 1
 138 506 185 452 197 405 c 1
 1036 1858 l 1
 1345 1679 l 1
 482 186 l 2
 472 168 454 166 447 166 c 0
 400 166 336 237 336 296 c 0
 336 307 338 316 343 324 c 2
 1129 1686 l 1
 1041 1818 l 1
 194 352 l 2
 184 334 166 333 159 333 c 0
 112 333 48 403 48 463 c 0
 48 473 50 482 55 490 c 2
 1017 2157 l 1
 1606 1817 l 1
 1714 1653 l 1
1312 1670 m 1
 1078 1805 l 1
 1151 1695 l 1
 1282 1619 l 1
 1312 1670 l 1
1685 1652 m 1
 1598 1785 l 1
 669 177 l 1
 714 174 761 119 773 73 c 1
 1685 1652 l 1
1270 1599 m 1
 1147 1670 l 1
 381 343 l 1
 426 340 473 286 485 239 c 1
 1270 1599 l 1
753 47 m 0
 753 91 702 153 666 153 c 0
 653 153 648 143 648 130 c 0
 648 86 700 24 735 24 c 0
 749 24 753 34 753 47 c 0
465 213 m 0
 465 258 414 319 378 319 c 0
 365 319 360 309 360 296 c 0
 360 252 412 190 447 190 c 0
 461 190 465 200 465 213 c 0
177 380 m 0
 177 424 126 486 90 486 c 0
 77 486 72 476 72 463 c 0
 72 418 124 357 159 357 c 0
 173 357 177 367 177 380 c 0
EndSplineSet
EndChar
StartChar: parenleft
Encoding: 40 40 8
Width: 1172
Flags: W
Fore
1130 640 m 0
 1130 287 843 0 490 0 c 0
 341 0 197 51 83 146 c 0
 67 159 53 174 42 189 c 1
 51 205 62 221 74 236 c 2
 158 338 l 1
 96 407 42 510 42 640 c 0
 42 744 78 844 144 925 c 2
 228 1026 l 1
 101 1154 42 1319 42 1476 c 0
 42 1829 329 2116 682 2116 c 0
 831 2116 975 2065 1089 1970 c 0
 1105 1957 1119 1942 1130 1927 c 1
 1121 1911 1110 1895 1098 1880 c 2
 1014 1778 l 1
 1076 1709 1130 1606 1130 1476 c 0
 1130 1372 1094 1272 1028 1191 c 2
 944 1090 l 1
 1071 962 1130 797 1130 640 c 0
1002 1476 m 0
 1002 1517 994 1599 931 1678 c 1
 889 1627 l 1
 915 1591 938 1539 938 1476 c 0
 938 1417 917 1359 880 1314 c 2
 798 1215 l 1
 848 1174 l 1
 929 1273 l 2
 976 1330 1002 1402 1002 1476 c 0
1098 1476 m 0
 1098 1570 1066 1670 993 1753 c 1
 952 1703 l 1
 996 1650 1034 1572 1034 1476 c 0
 1034 1395 1006 1316 954 1253 c 2
 750 1006 l 1
 775 985 l 1
 799 964 l 1
 1003 1212 l 2
 1065 1286 1098 1380 1098 1476 c 0
1089 1924 m 1
 1084 1931 1077 1939 1069 1946 c 0
 960 2035 823 2084 682 2084 c 0
 346 2084 74 1812 74 1476 c 0
 74 1293 155 1145 248 1051 c 1
 289 1100 l 1
 159 1236 138 1392 138 1476 c 0
 138 1776 382 2020 682 2020 c 0
 798 2020 910 1984 1003 1916 c 1
 819 1693 l 1
 837 1681 854 1668 868 1652 c 1
 1073 1901 l 2
 1079 1908 1085 1916 1089 1924 c 1
906 1476 m 0
 906 1600 806 1700 682 1700 c 0
 558 1700 458 1600 458 1476 c 0
 458 1439 468 1393 496 1352 c 1
 539 1404 l 1
 530 1423 522 1447 522 1476 c 0
 522 1564 594 1636 682 1636 c 0
 770 1636 842 1564 842 1476 c 0
 842 1439 829 1403 806 1375 c 2
 724 1276 l 1
 774 1235 l 1
 855 1334 l 2
 888 1374 906 1424 906 1476 c 0
703 1603 m 1
 696 1604 689 1604 682 1604 c 0
 611 1604 554 1547 554 1476 c 0
 554 1460 557 1445 562 1432 c 1
 703 1603 l 1
810 1476 m 0
 810 1493 807 1508 802 1521 c 1
 650 1337 l 1
 699 1296 l 1
 781 1395 l 2
 800 1418 810 1447 810 1476 c 0
832 1759 m 1
 787 1783 736 1796 682 1796 c 0
 505 1796 362 1653 362 1476 c 0
 362 1411 383 1338 433 1275 c 1
 475 1326 l 1
 448 1363 426 1414 426 1476 c 0
 426 1617 541 1732 682 1732 c 0
 721 1732 757 1724 790 1708 c 1
 832 1759 l 1
956 1909 m 1
 874 1961 779 1988 682 1988 c 0
 399 1988 170 1759 170 1476 c 0
 170 1326 235 1204 310 1125 c 1
 351 1175 l 1
 270 1264 234 1375 234 1476 c 0
 234 1723 435 1924 682 1924 c 0
 767 1924 847 1901 915 1859 c 1
 956 1909 l 1
894 1834 m 1
 832 1871 759 1892 682 1892 c 0
 452 1892 266 1706 266 1476 c 0
 266 1356 318 1237 417 1155 c 2
 516 1074 l 1
 557 1123 l 1
 458 1205 l 2
 374 1274 330 1375 330 1476 c 0
 330 1670 488 1828 682 1828 c 0
 744 1828 802 1812 853 1784 c 1
 894 1834 l 1
786 1552 m 1
 773 1569 756 1583 736 1592 c 1
 455 1251 l 1
 462 1244 470 1236 479 1230 c 2
 503 1209 l 1
 786 1552 l 1
827 1149 m 1
 630 1312 l 1
 589 1263 l 1
 787 1100 l 1
 827 1149 l 1
766 1075 m 1
 717 1116 l 1
 676 1067 l 1
 725 1026 l 1
 766 1075 l 1
618 1197 m 1
 569 1238 l 1
 528 1189 l 1
 577 1148 l 1
 618 1197 l 1
692 1136 m 1
 643 1177 l 1
 480 980 l 1
 529 939 l 1
 692 1136 l 1
644 927 m 1
 595 968 l 1
 554 919 l 1
 603 878 l 1
 644 927 l 1
496 1049 m 1
 447 1090 l 1
 406 1041 l 1
 455 1000 l 1
 496 1049 l 1
583 853 m 1
 385 1016 l 1
 345 967 l 1
 542 804 l 1
 583 853 l 1
717 865 m 1
 710 872 702 880 693 886 c 2
 669 907 l 1
 386 564 l 1
 399 547 416 533 436 524 c 1
 717 865 l 1
906 640 m 0
 906 760 854 879 755 961 c 2
 656 1042 l 1
 615 993 l 1
 714 911 l 2
 798 842 842 741 842 640 c 0
 842 446 684 288 490 288 c 0
 428 288 370 304 319 332 c 1
 278 282 l 1
 340 245 413 224 490 224 c 0
 720 224 906 410 906 640 c 0
1002 640 m 0
 1002 790 937 912 862 991 c 1
 821 941 l 1
 902 852 938 741 938 640 c 0
 938 393 737 192 490 192 c 0
 405 192 325 215 257 257 c 1
 216 207 l 1
 298 155 393 128 490 128 c 0
 773 128 1002 357 1002 640 c 0
810 640 m 0
 810 705 789 778 739 841 c 1
 697 790 l 1
 724 753 746 702 746 640 c 0
 746 499 631 384 490 384 c 0
 451 384 415 392 382 408 c 1
 340 357 l 1
 385 333 436 320 490 320 c 0
 667 320 810 463 810 640 c 0
522 779 m 1
 473 820 l 1
 391 721 l 2
 372 698 362 669 362 640 c 0
 362 623 365 608 370 595 c 1
 522 779 l 1
618 640 m 0
 618 656 615 671 610 684 c 1
 469 513 l 1
 476 512 483 512 490 512 c 0
 561 512 618 569 618 640 c 0
714 640 m 0
 714 677 704 723 676 764 c 1
 633 712 l 1
 642 693 650 669 650 640 c 0
 650 552 578 480 490 480 c 0
 402 480 330 552 330 640 c 0
 330 677 343 713 366 741 c 2
 448 840 l 1
 398 881 l 1
 317 782 l 2
 284 742 266 692 266 640 c 0
 266 516 366 416 490 416 c 0
 614 416 714 516 714 640 c 0
1098 640 m 0
 1098 823 1017 971 924 1065 c 1
 883 1016 l 1
 1013 880 1034 724 1034 640 c 0
 1034 340 790 96 490 96 c 0
 374 96 262 132 169 200 c 1
 353 423 l 1
 335 435 318 448 304 464 c 1
 99 215 l 2
 93 208 87 200 83 192 c 1
 88 185 95 177 103 170 c 0
 212 81 349 32 490 32 c 0
 826 32 1098 304 1098 640 c 0
422 1110 m 1
 397 1131 l 1
 373 1152 l 1
 169 904 l 2
 107 830 74 736 74 640 c 0
 74 546 106 446 179 363 c 1
 220 413 l 1
 176 466 138 544 138 640 c 0
 138 721 166 800 218 863 c 2
 422 1110 l 1
374 901 m 1
 324 942 l 1
 243 843 l 2
 196 786 170 714 170 640 c 0
 170 599 178 517 241 438 c 1
 283 489 l 1
 257 525 234 577 234 640 c 0
 234 699 255 757 292 802 c 2
 374 901 l 1
EndSplineSet
EndChar
StartChar: parenright
Encoding: 41 41 9
Width: 2525
Flags: W
Fore
2508 435 m 1
 2418 388 l 2
 2192 269 1922 183 1660 183 c 0
 1502 183 1347 214 1207 288 c 1
 1076 216 934 198 796 198 c 0
 615 198 532 219 472 219 c 0
 331 219 222 160 121 70 c 2
 42 0 l 1
 77 99 l 2
 237 553 459 804 829 934 c 1
 827 959 826 984 826 1009 c 0
 826 1395 1049 1625 1049 1859 c 0
 1049 1905 1042 1953 1024 2011 c 2
 993 2111 l 1
 1068 2039 l 2
 1365 1754 1577 1385 1577 950 c 2
 1577 936 l 1
 1775 861 1912 723 2042 610 c 0
 2205 468 2203 446 2406 439 c 2
 2508 435 l 1
1523 954 m 1
 1521 1339 1348 1669 1098 1932 c 1
 1102 1907 1103 1882 1103 1859 c 0
 1103 1607 880 1384 880 1009 c 0
 880 866 916 707 1016 528 c 1
 1074 539 1121 559 1160 583 c 1
 1079 670 1033 769 1033 892 c 0
 1033 980 1067 1228 1201 1228 c 0
 1297 1228 1369 1101 1381 985 c 1
 1431 978 1479 968 1523 954 c 1
1326 990 m 1
 1312 1095 1249 1174 1201 1174 c 0
 1160 1174 1117 1115 1095 980 c 1
 1153 988 1208 992 1260 992 c 0
 1282 992 1304 991 1326 990 c 1
2304 392 m 1
 2177 408 2144 448 2006 570 c 0
 1816 737 1625 938 1260 938 c 0
 1206 938 1150 934 1089 925 c 1
 1088 913 1087 902 1087 892 c 0
 1087 864 1090 839 1094 816 c 1
 1128 820 1162 823 1198 823 c 0
 1329 823 1434 775 1525 715 c 0
 1596 669 1701 588 1701 503 c 0
 1701 436 1637 391 1540 391 c 0
 1491 391 1436 404 1384 430 c 1
 1345 386 1304 350 1261 321 c 1
 1385 263 1520 237 1660 237 c 0
 1878 237 2104 300 2304 392 c 1
1647 503 m 0
 1647 530 1624 579 1528 648 c 1
 1494 580 1458 522 1420 473 c 1
 1460 454 1503 445 1540 445 c 0
 1604 445 1647 469 1647 503 c 0
1304 757 m 1
 1271 765 1236 769 1198 769 c 0
 1168 769 1138 767 1109 763 c 1
 1132 698 1170 651 1204 616 c 1
 1257 662 1288 716 1304 757 c 1
959 519 m 1
 925 582 898 644 878 703 c 1
 774 649 716 577 716 547 c 0
 716 517 784 509 832 509 c 0
 866 509 908 512 959 519 c 1
1482 679 m 1
 1443 703 1402 725 1356 742 c 1
 1323 657 1229 507 1010 472 c 0
 938 460 879 455 832 455 c 0
 768 455 724 464 694 485 c 0
 664 507 662 534 662 547 c 0
 662 627 778 713 862 756 c 1
 850 798 841 839 836 878 c 1
 513 762 311 548 162 171 c 1
 251 233 352 273 472 273 c 0
 537 273 602 252 796 252 c 0
 1051 252 1308 315 1482 679 c 1
EndSplineSet
EndChar
StartChar: asterisk
Encoding: 42 42 10
Width: 2196
Flags: W
Fore
2154 705 m 1
 2026 705 1906 739 1803 799 c 1
 1700 739 1580 705 1452 705 c 1
 1452 833 1486 953 1546 1056 c 1
 1486 1159 1452 1279 1452 1407 c 1
 1580 1407 1700 1373 1803 1313 c 1
 1906 1373 2026 1407 2154 1407 c 1
 2154 1279 2120 1159 2060 1056 c 1
 2120 953 2154 833 2154 705 c 1
1449 705 m 1
 1321 705 1201 739 1098 799 c 1
 995 739 875 705 747 705 c 1
 747 833 781 953 841 1056 c 1
 781 1159 747 1279 747 1407 c 1
 875 1407 995 1373 1098 1313 c 1
 1201 1373 1321 1407 1449 1407 c 1
 1449 1279 1415 1159 1355 1056 c 1
 1415 953 1449 833 1449 705 c 1
2154 0 m 1
 2026 0 1906 34 1803 94 c 1
 1700 34 1580 0 1452 0 c 1
 1452 128 1486 248 1546 351 c 1
 1486 454 1452 574 1452 702 c 1
 1580 702 1700 668 1803 608 c 1
 1906 668 2026 702 2154 702 c 1
 2154 574 2120 454 2060 351 c 1
 2120 248 2154 128 2154 0 c 1
744 705 m 1
 616 705 496 739 393 799 c 1
 290 739 170 705 42 705 c 1
 42 833 76 953 136 1056 c 1
 76 1159 42 1279 42 1407 c 1
 170 1407 290 1373 393 1313 c 1
 496 1373 616 1407 744 1407 c 1
 744 1279 710 1159 650 1056 c 1
 710 953 744 833 744 705 c 1
1449 0 m 1
 1321 0 1201 34 1098 94 c 1
 995 34 875 0 747 0 c 1
 747 128 781 248 841 351 c 1
 781 454 747 574 747 702 c 1
 875 702 995 668 1098 608 c 1
 1201 668 1321 702 1449 702 c 1
 1449 574 1415 454 1355 351 c 1
 1415 248 1449 128 1449 0 c 1
744 0 m 1
 616 0 496 34 393 94 c 1
 290 34 170 0 42 0 c 1
 42 128 76 248 136 351 c 1
 76 454 42 574 42 702 c 1
 170 702 290 668 393 608 c 1
 496 668 616 702 744 702 c 1
 744 574 710 454 650 351 c 1
 710 248 744 128 744 0 c 1
2039 1292 m 1
 1990 1282 1943 1267 1899 1246 c 1
 1933 1218 1965 1186 1993 1152 c 1
 2014 1196 2029 1243 2039 1292 c 1
2127 1380 m 1
 2019 1376 1918 1347 1829 1298 c 1
 1845 1287 1861 1276 1877 1264 c 1
 1936 1294 2002 1314 2070 1323 c 1
 2051 1183 1979 1022 1826 907 c 1
 1841 897 1857 887 1874 879 c 1
 2018 994 2119 1172 2127 1380 c 1
1980 1127 m 1
 1865 1271 1687 1372 1479 1380 c 1
 1483 1272 1512 1171 1561 1082 c 1
 1572 1098 1583 1114 1595 1130 c 1
 1565 1189 1545 1255 1536 1323 c 1
 1676 1304 1837 1232 1952 1079 c 1
 1962 1094 1972 1110 1980 1127 c 1
1936 1056 m 1
 1899 1107 1854 1152 1803 1189 c 1
 1752 1152 1707 1107 1670 1056 c 1
 1707 1005 1752 960 1803 923 c 1
 1854 960 1899 1005 1936 1056 c 1
2039 820 m 1
 2029 869 2014 916 1993 960 c 1
 1965 926 1933 894 1899 866 c 1
 1943 845 1990 830 2039 820 c 1
1707 1246 m 1
 1663 1267 1616 1282 1567 1292 c 1
 1577 1243 1592 1196 1613 1152 c 1
 1641 1186 1673 1218 1707 1246 c 1
2127 732 m 1
 2123 840 2094 941 2045 1030 c 1
 2034 1014 2023 998 2011 982 c 1
 2041 923 2061 857 2070 789 c 1
 1930 808 1769 880 1654 1033 c 1
 1644 1018 1634 1002 1626 985 c 1
 1741 841 1919 740 2127 732 c 1
1780 1205 m 1
 1765 1215 1749 1225 1732 1233 c 1
 1588 1118 1487 940 1479 732 c 1
 1587 736 1688 765 1777 814 c 1
 1761 825 1745 836 1729 848 c 1
 1670 818 1604 798 1536 789 c 1
 1555 929 1627 1090 1780 1205 c 1
1707 866 m 1
 1673 894 1641 926 1613 960 c 1
 1592 916 1577 869 1567 820 c 1
 1616 830 1663 845 1707 866 c 1
1334 1292 m 1
 1285 1282 1238 1267 1194 1246 c 1
 1228 1218 1260 1186 1288 1152 c 1
 1309 1196 1324 1243 1334 1292 c 1
2039 587 m 1
 1990 577 1943 562 1899 541 c 1
 1933 513 1965 481 1993 447 c 1
 2014 491 2029 538 2039 587 c 1
1422 1380 m 1
 1314 1376 1213 1347 1124 1298 c 1
 1140 1287 1156 1276 1172 1264 c 1
 1231 1294 1297 1314 1365 1323 c 1
 1346 1183 1274 1022 1121 907 c 1
 1136 897 1152 887 1169 879 c 1
 1313 994 1414 1172 1422 1380 c 1
2127 675 m 1
 2019 671 1918 642 1829 593 c 1
 1845 582 1861 571 1877 559 c 1
 1936 589 2002 609 2070 618 c 1
 2051 478 1979 317 1826 202 c 1
 1841 192 1857 182 1874 174 c 1
 2018 289 2119 467 2127 675 c 1
1275 1127 m 1
 1160 1271 982 1372 774 1380 c 1
 778 1272 807 1171 856 1082 c 1
 867 1098 878 1114 890 1130 c 1
 860 1189 840 1255 831 1323 c 1
 971 1304 1132 1232 1247 1079 c 1
 1257 1094 1267 1110 1275 1127 c 1
1980 422 m 1
 1865 566 1687 667 1479 675 c 1
 1483 567 1512 466 1561 377 c 1
 1572 393 1583 409 1595 425 c 1
 1565 484 1545 550 1536 618 c 1
 1676 599 1837 527 1952 374 c 1
 1962 389 1972 405 1980 422 c 1
1231 1056 m 1
 1194 1107 1149 1152 1098 1189 c 1
 1047 1152 1002 1107 965 1056 c 1
 1002 1005 1047 960 1098 923 c 1
 1149 960 1194 1005 1231 1056 c 1
1334 820 m 1
 1324 869 1309 916 1288 960 c 1
 1260 926 1228 894 1194 866 c 1
 1238 845 1285 830 1334 820 c 1
1936 351 m 1
 1899 402 1854 447 1803 484 c 1
 1752 447 1707 402 1670 351 c 1
 1707 300 1752 255 1803 218 c 1
 1854 255 1899 300 1936 351 c 1
2039 115 m 1
 2029 164 2014 211 1993 255 c 1
 1965 221 1933 189 1899 161 c 1
 1943 140 1990 125 2039 115 c 1
1002 1246 m 1
 958 1267 911 1282 862 1292 c 1
 872 1243 887 1196 908 1152 c 1
 936 1186 968 1218 1002 1246 c 1
1707 541 m 1
 1663 562 1616 577 1567 587 c 1
 1577 538 1592 491 1613 447 c 1
 1641 481 1673 513 1707 541 c 1
1422 732 m 1
 1418 840 1389 941 1340 1030 c 1
 1329 1014 1318 998 1306 982 c 1
 1336 923 1356 857 1365 789 c 1
 1225 808 1064 880 949 1033 c 1
 939 1018 929 1002 921 985 c 1
 1036 841 1214 740 1422 732 c 1
2127 27 m 1
 2123 135 2094 236 2045 325 c 1
 2034 309 2023 293 2011 277 c 1
 2041 218 2061 152 2070 84 c 1
 1930 103 1769 175 1654 328 c 1
 1644 313 1634 297 1626 280 c 1
 1741 136 1919 35 2127 27 c 1
1075 1205 m 1
 1060 1215 1044 1225 1027 1233 c 1
 883 1118 782 940 774 732 c 1
 882 736 983 765 1072 814 c 1
 1056 825 1040 836 1024 848 c 1
 965 818 899 798 831 789 c 1
 850 929 922 1090 1075 1205 c 1
1780 500 m 1
 1765 510 1749 520 1732 528 c 1
 1588 413 1487 235 1479 27 c 1
 1587 31 1688 60 1777 109 c 1
 1761 120 1745 131 1729 143 c 1
 1670 113 1604 93 1536 84 c 1
 1555 224 1627 385 1780 500 c 1
1002 866 m 1
 968 894 936 926 908 960 c 1
 887 916 872 869 862 820 c 1
 911 830 958 845 1002 866 c 1
1707 161 m 1
 1673 189 1641 221 1613 255 c 1
 1592 211 1577 164 1567 115 c 1
 1616 125 1663 140 1707 161 c 1
629 1292 m 1
 580 1282 533 1267 489 1246 c 1
 523 1218 555 1186 583 1152 c 1
 604 1196 619 1243 629 1292 c 1
1334 587 m 1
 1285 577 1238 562 1194 541 c 1
 1228 513 1260 481 1288 447 c 1
 1309 491 1324 538 1334 587 c 1
717 1380 m 1
 609 1376 508 1347 419 1298 c 1
 435 1287 451 1276 467 1264 c 1
 526 1294 592 1314 660 1323 c 1
 641 1183 569 1022 416 907 c 1
 431 897 447 887 464 879 c 1
 608 994 709 1172 717 1380 c 1
1422 675 m 1
 1314 671 1213 642 1124 593 c 1
 1140 582 1156 571 1172 559 c 1
 1231 589 1297 609 1365 618 c 1
 1346 478 1274 317 1121 202 c 1
 1136 192 1152 182 1169 174 c 1
 1313 289 1414 467 1422 675 c 1
570 1127 m 1
 455 1271 277 1372 69 1380 c 1
 73 1272 102 1171 151 1082 c 1
 162 1098 173 1114 185 1130 c 1
 155 1189 135 1255 126 1323 c 1
 266 1304 427 1232 542 1079 c 1
 552 1094 562 1110 570 1127 c 1
1275 422 m 1
 1160 566 982 667 774 675 c 1
 778 567 807 466 856 377 c 1
 867 393 878 409 890 425 c 1
 860 484 840 550 831 618 c 1
 971 599 1132 527 1247 374 c 1
 1257 389 1267 405 1275 422 c 1
526 1056 m 1
 489 1107 444 1152 393 1189 c 1
 342 1152 297 1107 260 1056 c 1
 297 1005 342 960 393 923 c 1
 444 960 489 1005 526 1056 c 1
629 820 m 1
 619 869 604 916 583 960 c 1
 555 926 523 894 489 866 c 1
 533 845 580 830 629 820 c 1
1231 351 m 1
 1194 402 1149 447 1098 484 c 1
 1047 447 1002 402 965 351 c 1
 1002 300 1047 255 1098 218 c 1
 1149 255 1194 300 1231 351 c 1
1334 115 m 1
 1324 164 1309 211 1288 255 c 1
 1260 221 1228 189 1194 161 c 1
 1238 140 1285 125 1334 115 c 1
297 1246 m 1
 253 1267 206 1282 157 1292 c 1
 167 1243 182 1196 203 1152 c 1
 231 1186 263 1218 297 1246 c 1
1002 541 m 1
 958 562 911 577 862 587 c 1
 872 538 887 491 908 447 c 1
 936 481 968 513 1002 541 c 1
717 732 m 1
 713 840 684 941 635 1030 c 1
 624 1014 613 998 601 982 c 1
 631 923 651 857 660 789 c 1
 520 808 359 880 244 1033 c 1
 234 1018 224 1002 216 985 c 1
 331 841 509 740 717 732 c 1
1422 27 m 1
 1418 135 1389 236 1340 325 c 1
 1329 309 1318 293 1306 277 c 1
 1336 218 1356 152 1365 84 c 1
 1225 103 1064 175 949 328 c 1
 939 313 929 297 921 280 c 1
 1036 136 1214 35 1422 27 c 1
370 1205 m 1
 355 1215 339 1225 322 1233 c 1
 178 1118 77 940 69 732 c 1
 177 736 278 765 367 814 c 1
 351 825 335 836 319 848 c 1
 260 818 194 798 126 789 c 1
 145 929 217 1090 370 1205 c 1
1075 500 m 1
 1060 510 1044 520 1027 528 c 1
 883 413 782 235 774 27 c 1
 882 31 983 60 1072 109 c 1
 1056 120 1040 131 1024 143 c 1
 965 113 899 93 831 84 c 1
 850 224 922 385 1075 500 c 1
297 866 m 1
 263 894 231 926 203 960 c 1
 182 916 167 869 157 820 c 1
 206 830 253 845 297 866 c 1
1002 161 m 1
 968 189 936 221 908 255 c 1
 887 211 872 164 862 115 c 1
 911 125 958 140 1002 161 c 1
629 587 m 1
 580 577 533 562 489 541 c 1
 523 513 555 481 583 447 c 1
 604 491 619 538 629 587 c 1
717 675 m 1
 609 671 508 642 419 593 c 1
 435 582 451 571 467 559 c 1
 526 589 592 609 660 618 c 1
 641 478 569 317 416 202 c 1
 431 192 447 182 464 174 c 1
 608 289 709 467 717 675 c 1
570 422 m 1
 455 566 277 667 69 675 c 1
 73 567 102 466 151 377 c 1
 162 393 173 409 185 425 c 1
 155 484 135 550 126 618 c 1
 266 599 427 527 542 374 c 1
 552 389 562 405 570 422 c 1
526 351 m 1
 489 402 444 447 393 484 c 1
 342 447 297 402 260 351 c 1
 297 300 342 255 393 218 c 1
 444 255 489 300 526 351 c 1
629 115 m 1
 619 164 604 211 583 255 c 1
 555 221 523 189 489 161 c 1
 533 140 580 125 629 115 c 1
297 541 m 1
 253 562 206 577 157 587 c 1
 167 538 182 491 203 447 c 1
 231 481 263 513 297 541 c 1
717 27 m 1
 713 135 684 236 635 325 c 1
 624 309 613 293 601 277 c 1
 631 218 651 152 660 84 c 1
 520 103 359 175 244 328 c 1
 234 313 224 297 216 280 c 1
 331 136 509 35 717 27 c 1
370 500 m 1
 355 510 339 520 322 528 c 1
 178 413 77 235 69 27 c 1
 177 31 278 60 367 109 c 1
 351 120 335 131 319 143 c 1
 260 113 194 93 126 84 c 1
 145 224 217 385 370 500 c 1
297 161 m 1
 263 189 231 221 203 255 c 1
 182 211 167 164 157 115 c 1
 206 125 253 140 297 161 c 1
EndSplineSet
EndChar
StartChar: plus
Encoding: 43 43 11
Width: 2190
Flags: W
Fore
2128 448 m 1
 1680 448 l 1
 1680 0 l 1
 952 0 l 1
 952 448 l 1
 784 448 l 1
 784 0 l 1
 56 0 l 1
 56 728 l 1
 504 728 l 1
 504 896 l 1
 56 896 l 1
 56 1624 l 1
 504 1624 l 1
 504 2072 l 1
 1232 2072 l 1
 1232 1624 l 1
 1400 1624 l 1
 1400 2072 l 1
 2128 2072 l 1
 2128 1344 l 1
 1680 1344 l 1
 1680 1176 l 1
 2128 1176 l 1
 2128 448 l 1
1848 1624 m 1
 1848 1792 l 1
 1680 1792 l 1
 1680 1624 l 1
 1848 1624 l 1
2100 1372 m 1
 2100 2044 l 1
 1428 2044 l 1
 1428 1624 l 1
 1484 1624 l 1
 1484 1988 l 1
 2044 1988 l 1
 2044 1428 l 1
 1232 1428 l 1
 1232 1372 l 1
 2100 1372 l 1
1932 1540 m 1
 1932 1876 l 1
 1596 1876 l 1
 1596 1624 l 1
 1652 1624 l 1
 1652 1820 l 1
 1876 1820 l 1
 1876 1596 l 1
 1232 1596 l 1
 1232 1540 l 1
 1932 1540 l 1
1652 728 m 1
 1652 1344 l 1
 1596 1344 l 1
 1596 728 l 1
 1652 728 l 1
1400 1176 m 1
 1400 1344 l 1
 1232 1344 l 1
 1232 1176 l 1
 1400 1176 l 1
1848 728 m 1
 1848 896 l 1
 1680 896 l 1
 1680 728 l 1
 1848 728 l 1
952 1624 m 1
 952 1792 l 1
 784 1792 l 1
 784 1624 l 1
 952 1624 l 1
1484 728 m 1
 1484 1344 l 1
 1428 1344 l 1
 1428 728 l 1
 1484 728 l 1
1204 1176 m 1
 1204 2044 l 1
 532 2044 l 1
 532 1624 l 1
 588 1624 l 1
 588 1988 l 1
 1148 1988 l 1
 1148 1176 l 1
 1204 1176 l 1
2100 476 m 1
 2100 1148 l 1
 1680 1148 l 1
 1680 1092 l 1
 2044 1092 l 1
 2044 532 l 1
 1232 532 l 1
 1232 476 l 1
 2100 476 l 1
1036 1176 m 1
 1036 1876 l 1
 700 1876 l 1
 700 1624 l 1
 756 1624 l 1
 756 1820 l 1
 980 1820 l 1
 980 1176 l 1
 1036 1176 l 1
1932 644 m 1
 1932 980 l 1
 1680 980 l 1
 1680 924 l 1
 1876 924 l 1
 1876 700 l 1
 1232 700 l 1
 1232 644 l 1
 1932 644 l 1
1400 1092 m 1
 1400 1148 l 1
 784 1148 l 1
 784 1092 l 1
 1400 1092 l 1
952 1176 m 1
 952 1344 l 1
 784 1344 l 1
 784 1176 l 1
 952 1176 l 1
1400 728 m 1
 1400 896 l 1
 1232 896 l 1
 1232 728 l 1
 1400 728 l 1
1400 924 m 1
 1400 980 l 1
 784 980 l 1
 784 924 l 1
 1400 924 l 1
952 1372 m 1
 952 1428 l 1
 252 1428 l 1
 252 1092 l 1
 504 1092 l 1
 504 1148 l 1
 308 1148 l 1
 308 1372 l 1
 952 1372 l 1
1484 196 m 1
 1484 448 l 1
 1428 448 l 1
 1428 252 l 1
 1204 252 l 1
 1204 896 l 1
 1148 896 l 1
 1148 196 l 1
 1484 196 l 1
952 1540 m 1
 952 1596 l 1
 84 1596 l 1
 84 924 l 1
 504 924 l 1
 504 980 l 1
 140 980 l 1
 140 1540 l 1
 952 1540 l 1
1652 28 m 1
 1652 448 l 1
 1596 448 l 1
 1596 84 l 1
 1036 84 l 1
 1036 896 l 1
 980 896 l 1
 980 28 l 1
 1652 28 l 1
756 728 m 1
 756 1344 l 1
 700 1344 l 1
 700 728 l 1
 756 728 l 1
504 1176 m 1
 504 1344 l 1
 336 1344 l 1
 336 1176 l 1
 504 1176 l 1
1400 280 m 1
 1400 448 l 1
 1232 448 l 1
 1232 280 l 1
 1400 280 l 1
952 728 m 1
 952 896 l 1
 784 896 l 1
 784 728 l 1
 952 728 l 1
588 728 m 1
 588 1344 l 1
 532 1344 l 1
 532 728 l 1
 588 728 l 1
952 476 m 1
 952 532 l 1
 252 532 l 1
 252 196 l 1
 588 196 l 1
 588 448 l 1
 532 448 l 1
 532 252 l 1
 308 252 l 1
 308 476 l 1
 952 476 l 1
952 644 m 1
 952 700 l 1
 84 700 l 1
 84 28 l 1
 756 28 l 1
 756 448 l 1
 700 448 l 1
 700 84 l 1
 140 84 l 1
 140 644 l 1
 952 644 l 1
504 280 m 1
 504 448 l 1
 336 448 l 1
 336 280 l 1
 504 280 l 1
EndSplineSet
EndChar
StartChar: comma
Encoding: 44 44 12
Width: 2368
Flags: W
Fore
2327 1343 m 1
 1844 993 l 1
 1844 986 1845 979 1845 972 c 0
 1845 819 1793 679 1706 567 c 1
 1890 0 l 1
 1408 350 l 1
 1338 325 1263 311 1184 311 c 0
 1105 311 1030 325 960 350 c 1
 478 0 l 1
 662 567 l 1
 575 679 523 819 523 972 c 0
 523 979 524 986 524 993 c 1
 41 1343 l 1
 638 1343 l 1
 723 1469 851 1563 1000 1607 c 1
 1184 2173 l 1
 1368 1607 l 1
 1517 1563 1645 1469 1730 1343 c 1
 2327 1343 l 1
1933 1215 m 1
 1798 1215 l 1
 1808 1190 1817 1163 1824 1136 c 1
 1933 1215 l 1
2228 1311 m 1
 1464 1311 l 1
 1485 1247 l 1
 2031 1247 l 1
 1832 1102 l 1
 1836 1079 1840 1055 1842 1031 c 1
 2228 1311 l 1
1566 1343 m 1
 1524 1387 1474 1423 1419 1450 c 1
 1454 1343 l 1
 1566 1343 l 1
1226 1631 m 1
 1184 1759 l 1
 1142 1631 l 1
 1156 1632 1170 1633 1184 1633 c 0
 1198 1633 1212 1632 1226 1631 c 1
1691 1343 m 1
 1573 1504 1387 1601 1184 1601 c 0
 1166 1601 1149 1600 1132 1598 c 1
 1110 1532 l 1
 1134 1535 1159 1537 1184 1537 c 0
 1386 1537 1529 1436 1609 1343 c 1
 1691 1343 l 1
1331 1616 m 1
 1184 2070 l 1
 948 1343 l 1
 1015 1343 l 1
 1184 1863 l 1
 1260 1628 l 1
 1284 1625 1308 1621 1331 1616 c 1
1710 1054 m 1
 1702 1111 1684 1165 1658 1215 c 1
 1495 1215 l 1
 1579 958 l 1
 1710 1054 l 1
1813 972 m 0
 1813 1069 1792 1148 1764 1215 c 1
 1694 1215 l 1
 1722 1155 1749 1071 1749 972 c 0
 1749 853 1712 755 1669 682 c 1
 1694 604 l 1
 1769 708 1813 834 1813 972 c 0
1552 938 m 1
 1380 1467 l 1
 1356 1477 1331 1485 1305 1491 c 1
 1497 899 l 1
 1552 938 l 1
1319 1343 m 1
 1269 1498 l 1
 1241 1502 1213 1505 1184 1505 c 0
 1155 1505 1127 1502 1099 1498 c 1
 1049 1343 l 1
 1319 1343 l 1
1711 896 m 1
 1620 830 l 1
 1655 723 l 1
 1683 776 1702 835 1711 896 c 1
1350 1247 m 1
 1330 1311 l 1
 773 1311 l 1
 757 1291 742 1270 728 1247 c 1
 1350 1247 l 1
1717 972 m 0
 1717 987 1716 1002 1715 1017 c 1
 1211 652 l 1
 1266 612 l 1
 1716 939 l 1
 1716 950 1717 961 1717 972 c 0
949 1450 m 1
 894 1423 844 1387 802 1343 c 1
 914 1343 l 1
 949 1450 l 1
1470 879 m 1
 1361 1215 l 1
 1007 1215 l 1
 898 879 l 1
 1184 671 l 1
 1470 879 l 1
988 1569 m 1
 777 1500 621 1325 572 1116 c 1
 629 1075 l 1
 663 1260 789 1418 962 1491 c 1
 988 1569 l 1
1829 84 m 1
 1593 810 l 1
 1539 771 l 1
 1708 251 l 1
 1508 396 l 1
 1487 384 1466 374 1443 364 c 1
 1829 84 l 1
1562 597 m 1
 1512 751 l 1
 1293 592 l 1
 1424 497 l 1
 1475 523 1522 556 1562 597 c 1
1647 335 m 1
 1605 463 l 1
 1584 445 1561 429 1538 414 c 1
 1647 335 l 1
873 1215 m 1
 710 1215 l 1
 684 1165 666 1111 658 1054 c 1
 789 958 l 1
 873 1215 l 1
974 1215 m 1
 906 1215 l 1
 734 686 l 1
 749 664 764 643 781 623 c 1
 974 1215 l 1
1391 481 m 1
 888 847 l 1
 867 783 l 1
 1317 456 l 1
 1342 463 1367 471 1391 481 c 1
1594 496 m 1
 1573 563 l 1
 1432 429 1271 407 1184 407 c 0
 1141 407 1098 412 1058 422 c 1
 992 373 l 1
 1052 354 1117 343 1184 343 c 0
 1320 343 1468 387 1594 496 c 1
570 1215 m 1
 435 1215 l 1
 544 1136 l 1
 551 1163 560 1190 570 1215 c 1
1275 447 m 1
 1184 513 l 1
 1093 447 l 1
 1123 442 1153 439 1184 439 c 0
 1215 439 1245 442 1275 447 c 1
1075 592 m 1
 856 751 l 1
 806 597 l 1
 846 556 893 523 944 497 c 1
 1075 592 l 1
779 926 m 1
 337 1247 l 1
 583 1247 l 1
 593 1269 605 1291 617 1311 c 1
 140 1311 l 1
 758 862 l 1
 779 926 l 1
748 830 m 1
 657 896 l 1
 666 835 685 776 713 723 c 1
 748 830 l 1
915 476 m 1
 763 558 639 720 622 922 c 1
 555 970 l 1
 556 762 663 553 858 434 c 1
 915 476 l 1
830 414 m 1
 807 429 784 445 763 463 c 1
 721 335 l 1
 830 414 l 1
1157 533 m 1
 1102 572 l 1
 660 251 l 1
 737 486 l 1
 719 502 702 520 686 538 c 1
 539 84 l 1
 1157 533 l 1
EndSplineSet
EndChar
StartChar: hyphen
Encoding: 45 45 13
Width: 1372
Flags: W
Fore
1361 864 m 0
 1361 855 1258 625 1199 581 c 0
 1160 551 1077 495 914 431 c 1
 973 393 1003 306 1003 216 c 0
 1003 140 971 -13 843 -13 c 0
 734 -13 682 102 682 219 c 0
 682 306 713 394 771 431 c 1
 608 494 526 551 487 581 c 0
 427 625 324 856 324 864 c 0
 324 873 331 881 341 881 c 0
 348 881 354 877 357 871 c 0
 402 767 442 693 471 650 c 1
 502 688 609 830 660 966 c 1
 551 1032 502 1087 454 1188 c 0
 453 1190 453 1192 453 1195 c 0
 453 1203 460 1212 470 1212 c 0
 504 1212 484 1113 672 998 c 1
 719 1134 706 1151 729 1151 c 0
 740 1151 746 1143 746 1134 c 0
 746 1123 703 961 660 880 c 0
 627 818 572 721 492 622 c 1
 520 590 638 516 813 451 c 1
 815 451 816 450 817 449 c 1
 825 450 833 451 842 451 c 0
 851 451 860 450 868 449 c 1
 878 457 1044 507 1178 608 c 0
 1183 611 1187 615 1193 622 c 1
 1113 721 1058 818 1025 880 c 0
 983 961 939 1123 939 1134 c 0
 939 1143 945 1151 956 1151 c 0
 979 1151 967 1131 1013 998 c 1
 1201 1113 1181 1212 1216 1212 c 0
 1225 1212 1232 1203 1232 1195 c 0
 1232 1192 1232 1190 1231 1188 c 0
 1183 1087 1135 1032 1025 966 c 1
 1076 830 1183 688 1214 650 c 1
 1243 693 1283 767 1328 871 c 0
 1331 877 1337 881 1344 881 c 0
 1354 881 1361 873 1361 864 c 0
1320 1 m 1
 1251 1 l 1
 1118 307 l 1
 1118 1 l 1
 1049 1 l 1
 1049 444 l 1
 1120 444 l 1
 1251 142 l 1
 1251 444 l 1
 1320 444 l 1
 1320 1 l 1
266 1196 m 0
 266 1162 252 1119 189 1118 c 1
 189 1142 l 1
 212 1142 241 1153 241 1198 c 0
 241 1242 214 1248 201 1248 c 0
 184 1248 173 1237 165 1212 c 2
 151 1163 l 2
 143 1137 126 1125 99 1125 c 0
 59 1125 34 1151 34 1194 c 0
 34 1240 59 1266 103 1266 c 1
 103 1243 l 1
 74 1242 58 1225 58 1193 c 0
 58 1167 73 1149 95 1149 c 0
 112 1149 121 1158 128 1182 c 2
 143 1231 l 2
 151 1258 171 1273 199 1273 c 0
 225 1273 266 1258 266 1196 c 0
266 1001 m 0
 266 944 219 905 150 905 c 0
 81 905 34 944 34 1000 c 0
 34 1058 81 1096 152 1096 c 0
 213 1096 266 1062 266 1001 c 0
266 790 m 0
 266 733 219 694 150 694 c 0
 81 694 34 733 34 789 c 0
 34 847 81 885 152 885 c 0
 213 885 266 851 266 790 c 0
259 480 m 1
 38 480 l 1
 38 515 l 1
 231 573 l 1
 38 630 l 1
 38 665 l 1
 259 665 l 1
 259 642 l 1
 74 642 l 1
 259 586 l 1
 259 560 l 1
 74 503 l 1
 259 503 l 1
 259 480 l 1
636 1 m 1
 567 1 l 1
 434 307 l 1
 434 1 l 1
 365 1 l 1
 365 444 l 1
 436 444 l 1
 567 142 l 1
 567 444 l 1
 636 444 l 1
 636 1 l 1
326 1 m 1
 256 1 l 1
 234 91 l 1
 110 91 l 1
 88 1 l 1
 18 1 l 1
 136 444 l 1
 212 444 l 1
 326 1 l 1
241 1001 m 0
 241 1042 205 1071 151 1071 c 0
 95 1071 59 1043 59 1000 c 0
 59 958 96 930 150 930 c 0
 205 930 241 959 241 1001 c 0
934 216 m 0
 934 313 899 374 843 374 c 0
 787 374 751 312 751 219 c 0
 751 126 787 64 843 64 c 0
 897 64 934 126 934 216 c 0
241 790 m 0
 241 831 205 860 151 860 c 0
 95 860 59 832 59 789 c 0
 59 747 96 719 150 719 c 0
 205 719 241 748 241 790 c 0
216 166 m 1
 172 339 l 1
 129 166 l 1
 216 166 l 1
EndSplineSet
EndChar
StartChar: period
Encoding: 46 46 14
Width: 3522
Flags: W
Fore
3448 0 m 1
 3034 0 l 2
 2802 0 2579 77 2397 216 c 1
 2216 77 1992 0 1761 0 c 2
 74 0 l 1
 74 2088 l 1
 488 2088 l 2
 720 2088 943 2011 1125 1872 c 1
 1306 2011 1530 2088 1761 2088 c 2
 3448 2088 l 1
 3448 0 l 1
2703 1230 m 0
 2703 1268 2701 1305 2695 1342 c 1
 2658 1347 2621 1350 2584 1350 c 0
 2383 1350 2191 1270 2049 1129 c 2
 1965 1044 l 1
 2397 611 l 1
 2482 696 l 2
 2624 838 2703 1030 2703 1230 c 0
3160 288 m 1
 3160 1800 l 1
 1761 1800 l 2
 1609 1800 1462 1754 1338 1671 c 1
 1761 1248 l 1
 1846 1332 l 2
 2041 1528 2307 1638 2584 1638 c 0
 2675 1638 2766 1626 2854 1602 c 2
 2934 1581 l 1
 2956 1501 l 2
 2979 1412 2991 1322 2991 1230 c 0
 2991 954 2881 688 2686 492 c 2
 2611 417 l 1
 2735 334 2882 288 3034 288 c 2
 3160 288 l 1
3358 90 m 1
 3358 1998 l 1
 1761 1998 l 2
 1525 1998 1277 1909 1086 1719 c 2
 900 1532 l 2
 721 1353 621 1111 621 858 c 0
 621 774 632 691 653 611 c 2
 661 581 l 1
 691 573 l 2
 772 551 855 540 938 540 c 0
 1191 540 1434 641 1613 819 c 2
 1697 904 l 1
 1621 980 l 1
 1536 896 l 2
 1378 737 1163 648 938 648 c 0
 875 648 812 655 750 669 c 1
 736 731 729 794 729 858 c 0
 729 1082 818 1297 976 1456 c 2
 1163 1642 l 2
 1332 1811 1552 1890 1761 1890 c 2
 3250 1890 l 1
 3250 198 l 1
 3034 198 l 2
 2858 198 2688 253 2546 353 c 1
 2468 276 l 1
 2631 156 2829 90 3034 90 c 2
 3358 90 l 1
2334 548 m 1
 1266 1615 l 1
 1252 1604 1239 1591 1226 1579 c 2
 1188 1540 l 1
 2256 473 l 1
 2270 484 2283 497 2296 509 c 2
 2334 548 l 1
2901 1230 m 0
 2901 1314 2890 1397 2869 1477 c 2
 2861 1507 l 1
 2831 1515 l 2
 2750 1537 2667 1548 2584 1548 c 0
 2331 1548 2088 1447 1909 1269 c 2
 1825 1184 l 1
 1901 1108 l 1
 1986 1192 l 2
 2144 1351 2359 1440 2584 1440 c 0
 2647 1440 2710 1433 2772 1419 c 1
 2786 1357 2793 1294 2793 1230 c 0
 2793 1006 2704 791 2546 632 c 2
 2359 446 l 2
 2190 277 1970 198 1761 198 c 2
 272 198 l 1
 272 1890 l 1
 488 1890 l 2
 664 1890 834 1835 976 1735 c 1
 1054 1812 l 1
 891 1932 693 1998 488 1998 c 2
 164 1998 l 1
 164 90 l 1
 1761 90 l 2
 1997 90 2245 179 2436 369 c 2
 2622 556 l 2
 2801 735 2901 977 2901 1230 c 0
2184 417 m 1
 1761 840 l 1
 1676 756 l 2
 1481 560 1215 450 938 450 c 0
 847 450 756 462 668 486 c 2
 588 507 l 1
 566 587 l 2
 543 676 531 766 531 858 c 0
 531 1134 641 1400 836 1596 c 2
 911 1671 l 1
 787 1754 640 1800 488 1800 c 2
 362 1800 l 1
 362 288 l 1
 1761 288 l 2
 1913 288 2060 334 2184 417 c 1
1557 1044 m 1
 1125 1477 l 1
 1040 1392 l 2
 898 1250 819 1058 819 858 c 0
 819 820 821 783 827 746 c 1
 864 741 901 738 938 738 c 0
 1139 738 1331 818 1473 959 c 2
 1557 1044 l 1
EndSplineSet
EndChar
StartChar: slash
Encoding: 47 47 15
Width: 2212
Flags: W
Fore
2154 734 m 0
 2154 329 1825 0 1420 0 c 0
 1307 0 1197 21 1097 58 c 1
 995 21 886 0 776 0 c 0
 371 0 42 329 42 734 c 0
 42 981 166 1196 352 1351 c 1
 431 1810 777 2026 1098 2026 c 0
 1432 2026 1767 1798 1844 1351 c 1
 2011 1212 2154 1001 2154 734 c 0
1682 1460 m 1
 1563 1801 1286 1896 1098 1896 c 0
 913 1896 634 1802 514 1460 c 1
 630 1522 755 1556 874 1556 c 0
 952 1556 1029 1541 1098 1508 c 1
 1167 1541 1244 1556 1322 1556 c 0
 1441 1556 1566 1522 1682 1460 c 1
1715 1334 m 1
 1711 1358 1705 1382 1699 1406 c 1
 1578 1477 1445 1517 1322 1517 c 0
 1028 1517 878 1293 853 1111 c 1
 872 1121 891 1130 911 1138 c 1
 943 1287 1075 1465 1322 1465 c 0
 1449 1465 1590 1418 1715 1334 c 1
1728 1190 m 0
 1728 1220 1726 1250 1723 1281 c 1
 1596 1375 1450 1426 1322 1426 c 0
 1290 1426 1259 1422 1230 1416 c 1
 1315 1334 1375 1218 1385 1085 c 1
 1441 1047 1552 952 1594 786 c 1
 1677 878 1728 1022 1728 1190 c 0
1819 1190 m 0
 1819 1615 1529 1987 1098 1987 c 0
 809 1987 492 1804 399 1388 c 1
 420 1403 442 1418 464 1431 c 1
 576 1812 877 1935 1098 1935 c 0
 1428 1935 1767 1665 1767 1190 c 0
 1767 1018 1713 845 1603 740 c 1
 1606 719 1608 697 1609 676 c 1
 1748 787 1819 987 1819 1190 c 0
1241 1153 m 1
 1216 1244 1160 1312 1098 1357 c 1
 1036 1312 981 1244 955 1153 c 1
 1001 1166 1049 1173 1098 1173 c 0
 1147 1173 1195 1166 1241 1153 c 1
1347 1049 m 0
 1347 1214 1263 1336 1186 1404 c 1
 1167 1397 1150 1389 1133 1380 c 1
 1290 1258 1295 1086 1295 1049 c 0
 1295 1011 1290 840 1133 718 c 1
 1150 708 1167 700 1185 693 c 1
 1264 762 1347 884 1347 1049 c 0
2024 734 m 0
 2024 903 1956 1042 1858 1156 c 1
 1850 939 1765 735 1607 626 c 1
 1592 435 1459 260 1273 144 c 1
 1320 135 1370 130 1420 130 c 0
 1754 130 2024 400 2024 734 c 0
1477 701 m 1
 1469 778 1437 860 1371 928 c 1
 1345 821 1288 736 1228 679 c 1
 1258 672 1289 668 1321 668 c 0
 1375 668 1428 679 1477 701 c 1
2115 734 m 0
 2115 813 2105 1060 1853 1292 c 1
 1856 1266 1857 1240 1858 1214 c 1
 1979 1087 2063 927 2063 734 c 0
 2063 379 1775 91 1420 91 c 0
 1061 91 750 327 689 573 c 1
 669 581 650 590 631 600 c 1
 677 296 1041 39 1420 39 c 0
 1804 39 2115 350 2115 734 c 0
1254 1010 m 1
 1205 1032 1152 1043 1098 1043 c 0
 1044 1043 991 1032 942 1010 c 1
 954 893 1018 797 1098 740 c 1
 1178 798 1242 893 1254 1010 c 1
1479 660 m 1
 1429 639 1375 629 1321 629 c 0
 1120 629 935 775 905 991 c 1
 889 981 873 970 858 958 c 1
 898 755 1078 577 1321 577 c 0
 1373 577 1424 586 1473 602 c 1
 1477 621 1479 641 1479 660 c 1
1570 663 m 0
 1570 841 1475 968 1386 1036 c 1
 1385 1015 1383 994 1380 973 c 1
 1472 890 1518 775 1518 663 c 0
 1518 469 1357 280 1147 178 c 1
 1170 170 1194 163 1217 156 c 1
 1422 272 1570 460 1570 663 c 0
1256 1052 m 1
 1256 1071 1254 1090 1251 1109 c 1
 1202 1126 1150 1134 1098 1134 c 0
 875 1134 679 975 635 754 c 1
 650 741 666 730 682 720 c 1
 710 918 879 1082 1098 1082 c 0
 1152 1082 1206 1072 1256 1052 c 1
966 1416 m 1
 937 1422 906 1426 874 1426 c 0
 746 1426 600 1375 473 1281 c 1
 470 1250 468 1220 468 1190 c 0
 468 1022 519 878 602 786 c 1
 635 916 712 1018 811 1085 c 1
 821 1217 881 1334 966 1416 c 1
968 679 m 1
 902 742 849 828 825 928 c 1
 759 860 727 778 719 701 c 1
 768 679 821 668 875 668 c 0
 907 668 938 672 968 679 c 1
1055 613 m 1
 1037 624 1020 636 1003 649 c 1
 962 636 919 629 875 629 c 0
 607 629 429 865 429 1190 c 0
 429 1209 429 1228 431 1248 c 1
 412 1232 394 1215 377 1198 c 1
 377 1190 l 2
 377 838 576 577 875 577 c 0
 937 577 998 589 1055 613 c 1
1462 558 m 1
 1416 545 1369 538 1321 538 c 0
 1244 538 1167 556 1098 589 c 1
 1029 556 952 538 875 538 c 0
 827 538 780 545 735 558 c 1
 781 415 916 277 1097 198 c 1
 1278 276 1415 413 1462 558 c 1
1054 1484 m 1
 998 1506 937 1517 874 1517 c 0
 518 1517 81 1181 81 734 c 0
 81 350 392 39 776 39 c 0
 867 39 957 54 1042 81 c 1
 1018 91 995 103 972 115 c 1
 909 100 843 91 776 91 c 0
 421 91 133 379 133 734 c 0
 133 1151 546 1465 874 1465 c 0
 919 1465 962 1459 1002 1447 c 1
 1018 1461 1036 1473 1054 1484 c 1
923 144 m 1
 734 263 604 441 589 626 c 1
 432 735 346 939 338 1156 c 1
 240 1042 172 903 172 734 c 0
 172 400 442 130 776 130 c 0
 826 130 875 135 923 144 c 1
EndSplineSet
EndChar
StartChar: zero
Encoding: 48 48 16
Width: 1860
Flags: W
Fore
1800 0 m 1
 900 0 l 1
 900 420 l 1
 1380 420 l 1
 1380 1200 l 1
 480 1200 l 1
 480 540 l 1
 780 540 l 1
 780 900 l 1
 1080 900 l 1
 1080 660 l 1
 1140 660 l 1
 1140 960 l 1
 720 960 l 1
 720 600 l 1
 540 600 l 1
 540 1140 l 1
 1320 1140 l 1
 1320 480 l 1
 900 480 l 1
 900 780 l 1
 960 720 l 1
 960 540 l 1
 1260 540 l 1
 1260 1080 l 1
 600 1080 l 1
 600 660 l 1
 660 660 l 1
 660 1020 l 1
 1200 1020 l 1
 1200 600 l 1
 1020 600 l 1
 1020 840 l 1
 840 840 l 1
 840 480 l 1
 420 480 l 1
 420 1260 l 1
 1440 1260 l 1
 1440 360 l 1
 960 360 l 1
 960 60 l 1
 1740 60 l 1
 1740 1560 l 1
 120 1560 l 1
 120 180 l 1
 660 180 l 1
 660 240 l 1
 180 240 l 1
 180 1500 l 1
 1680 1500 l 1
 1680 120 l 1
 1020 120 l 1
 1020 300 l 1
 1500 300 l 1
 1500 1320 l 1
 360 1320 l 1
 360 420 l 1
 840 420 l 1
 840 0 l 1
 780 60 l 1
 780 360 l 1
 300 360 l 1
 300 1380 l 1
 1560 1380 l 1
 1560 240 l 1
 1080 240 l 1
 1080 180 l 1
 1620 180 l 1
 1620 1440 l 1
 240 1440 l 1
 240 300 l 1
 720 300 l 1
 720 120 l 1
 60 120 l 1
 60 1620 l 1
 1800 1620 l 1
 1800 0 l 1
EndSplineSet
EndChar
StartChar: one
Encoding: 49 49 17
Width: 2352
Flags: W
Fore
2304 0 m 1
 1104 0 l 1
 1104 576 l 1
 528 576 l 1
 528 1584 l 1
 1824 1584 l 1
 1824 480 l 1
 1248 480 l 1
 1248 144 l 1
 2160 144 l 1
 2160 1920 l 1
 192 1920 l 1
 192 240 l 1
 912 240 l 1
 912 384 l 1
 336 384 l 1
 336 1776 l 1
 2016 1776 l 1
 2016 288 l 1
 1392 288 l 1
 1392 336 l 1
 1968 336 l 1
 1968 1728 l 1
 384 1728 l 1
 384 432 l 1
 960 432 l 1
 960 192 l 1
 144 192 l 1
 144 1968 l 1
 2208 1968 l 1
 2208 96 l 1
 1200 96 l 1
 1200 528 l 1
 1776 528 l 1
 1776 1536 l 1
 576 1536 l 1
 576 624 l 1
 1104 624 l 1
 1104 1008 l 1
 1248 1008 l 1
 1248 720 l 1
 1584 720 l 1
 1584 1344 l 1
 768 1344 l 1
 768 816 l 1
 912 816 l 1
 912 1200 l 1
 1440 1200 l 1
 1440 864 l 1
 1392 864 l 1
 1392 1152 l 1
 960 1152 l 1
 960 768 l 1
 720 768 l 1
 720 1392 l 1
 1632 1392 l 1
 1632 672 l 1
 1200 672 l 1
 1200 960 l 1
 1152 960 l 1
 1152 624 l 1
 1680 624 l 1
 1680 1440 l 1
 672 1440 l 1
 672 720 l 1
 1008 720 l 1
 1008 1104 l 1
 1344 1104 l 1
 1344 816 l 1
 1488 816 l 1
 1488 1248 l 1
 864 1248 l 1
 864 864 l 1
 816 864 l 1
 816 1296 l 1
 1536 1296 l 1
 1536 768 l 1
 1296 768 l 1
 1296 1056 l 1
 1056 1056 l 1
 1056 672 l 1
 624 672 l 1
 624 1488 l 1
 1728 1488 l 1
 1728 576 l 1
 1152 576 l 1
 1152 48 l 1
 2256 48 l 1
 2256 2016 l 1
 96 2016 l 1
 96 144 l 1
 1008 144 l 1
 1008 480 l 1
 432 480 l 1
 432 1680 l 1
 1920 1680 l 1
 1920 384 l 1
 1344 384 l 1
 1344 240 l 1
 2064 240 l 1
 2064 1824 l 1
 288 1824 l 1
 288 336 l 1
 864 336 l 1
 864 288 l 1
 240 288 l 1
 240 1872 l 1
 2112 1872 l 1
 2112 192 l 1
 1296 192 l 1
 1296 432 l 1
 1872 432 l 1
 1872 1632 l 1
 480 1632 l 1
 480 528 l 1
 1056 528 l 1
 1056 96 l 1
 48 96 l 1
 48 2064 l 1
 2304 2064 l 1
 2304 0 l 1
EndSplineSet
EndChar
StartChar: two
Encoding: 50 50 18
Width: 2100
Flags: W
Fore
2040 696 m 0
 2040 579 2019 463 1979 353 c 0
 1901 141 1698 0 1472 0 c 0
 1262 0 1071 122 982 313 c 0
 954 374 891 473 859 505 c 0
 809 555 780 624 780 696 c 0
 780 845 901 966 1050 966 c 0
 1199 966 1320 845 1320 696 c 0
 1320 614 1292 603 1292 540 c 0
 1292 441 1373 360 1472 360 c 0
 1548 360 1615 407 1641 478 c 0
 1667 548 1680 622 1680 696 c 0
 1680 1044 1398 1326 1050 1326 c 0
 702 1326 420 1044 420 696 c 0
 420 567 460 441 534 335 c 0
 541 324 545 312 545 300 c 0
 545 267 518 240 485 240 c 0
 466 240 447 249 436 266 c 0
 347 392 300 542 300 696 c 0
 300 1110 636 1446 1050 1446 c 0
 1464 1446 1800 1110 1800 696 c 0
 1800 607 1784 520 1754 436 c 0
 1710 319 1598 240 1472 240 c 0
 1306 240 1172 374 1172 540 c 0
 1172 626 1200 643 1200 696 c 0
 1200 779 1133 846 1050 846 c 0
 967 846 900 779 900 696 c 0
 900 656 916 618 944 590 c 0
 1000 534 1074 400 1091 364 c 0
 1160 215 1309 120 1472 120 c 0
 1648 120 1805 230 1866 395 c 0
 1902 491 1920 593 1920 696 c 0
 1920 1176 1530 1566 1050 1566 c 0
 570 1566 180 1176 180 696 c 0
 180 517 235 343 337 197 c 0
 371 149 426 120 485 120 c 0
 584 120 665 201 665 300 c 0
 665 337 653 373 632 403 c 0
 572 489 540 591 540 696 c 0
 540 978 768 1206 1050 1206 c 0
 1332 1206 1560 978 1560 696 c 0
 1560 636 1549 576 1528 519 c 0
 1520 495 1497 480 1472 480 c 0
 1439 480 1412 507 1412 540 c 0
 1412 564 1440 606 1440 696 c 0
 1440 911 1265 1086 1050 1086 c 0
 835 1086 660 911 660 696 c 0
 660 616 685 538 731 472 c 0
 766 422 785 362 785 300 c 0
 785 134 651 0 485 0 c 0
 387 0 295 48 239 128 c 0
 123 295 60 493 60 696 c 0
 60 1243 503 1686 1050 1686 c 0
 1597 1686 2040 1243 2040 696 c 0
EndSplineSet
EndChar
StartChar: three
Encoding: 51 51 19
Width: 2203
Flags: W
Fore
2161 1080 m 0
 2161 545 1805 233 1516 118 c 0
 1492 108 1468 103 1442 103 c 0
 1335 103 1248 190 1248 297 c 0
 1248 375 1295 447 1368 476 c 0
 1551 548 1786 732 1786 1077 c 0
 1786 1390 1532 1736 1103 1736 c 0
 776 1736 417 1470 417 1024 c 0
 417 843 511 514 852 365 c 0
 866 359 874 345 874 330 c 0
 874 308 856 293 837 293 c 0
 832 293 827 294 822 296 c 0
 445 461 342 824 342 1024 c 0
 342 1514 738 1811 1103 1811 c 0
 1576 1811 1861 1428 1861 1077 c 0
 1861 694 1601 487 1396 406 c 0
 1352 389 1323 345 1323 297 c 0
 1323 231 1376 178 1442 178 c 0
 1458 178 1473 182 1488 187 c 0
 1754 293 2086 582 2086 1080 c 0
 2086 1534 1719 2036 1101 2036 c 0
 631 2036 117 1656 117 1022 c 0
 117 757 257 301 740 94 c 0
 771 81 804 75 837 75 c 0
 978 75 1092 189 1092 330 c 2
 1092 524 l 1
 794 556 641 819 641 1027 c 0
 641 1342 899 1511 1107 1511 c 0
 1404 1511 1562 1267 1562 1073 c 0
 1562 826 1353 670 1151 670 c 0
 931 670 791 854 791 1030 c 0
 791 1223 942 1361 1110 1361 c 0
 1285 1361 1412 1224 1412 1070 c 0
 1412 920 1284 820 1148 820 c 0
 1021 820 941 926 941 1034 c 0
 941 1136 1021 1212 1114 1212 c 0
 1196 1212 1264 1148 1264 1071 c 0
 1264 1006 1208 967 1150 967 c 0
 1108 967 1101 990 1101 1005 c 0
 1101 1028 1118 1043 1138 1043 c 0
 1143 1043 1145 1042 1150 1042 c 0
 1162 1042 1189 1048 1189 1071 c 0
 1189 1105 1157 1137 1114 1137 c 0
 1062 1137 1016 1096 1016 1034 c 0
 1016 965 1064 895 1148 895 c 0
 1243 895 1337 962 1337 1070 c 0
 1337 1183 1245 1286 1110 1286 c 0
 983 1286 866 1183 866 1030 c 0
 866 891 976 745 1151 745 c 0
 1317 745 1487 872 1487 1073 c 0
 1487 1230 1358 1436 1107 1436 c 0
 936 1436 716 1296 716 1027 c 0
 716 839 863 596 1154 596 c 0
 1370 596 1636 761 1636 1076 c 0
 1636 1310 1445 1586 1104 1586 c 0
 858 1586 567 1385 567 1025 c 0
 567 884 635 619 907 501 c 0
 975 471 1021 405 1021 330 c 0
 1021 229 938 146 837 146 c 0
 813 146 789 151 767 160 c 0
 319 353 192 783 192 1023 c 0
 192 1602 660 1961 1102 1961 c 0
 1664 1961 2011 1506 2011 1079 c 0
 2011 616 1704 360 1456 262 c 0
 1451 260 1447 259 1442 259 c 0
 1423 259 1405 274 1405 297 c 0
 1405 312 1414 326 1428 332 c 0
 1652 420 1936 653 1936 1079 c 0
 1936 1467 1621 1886 1102 1886 c 0
 699 1886 267 1558 267 1023 c 0
 267 802 384 407 796 229 c 0
 809 224 823 221 837 221 c 0
 897 221 946 270 946 330 c 0
 946 375 918 414 877 432 c 0
 570 567 492 864 492 1025 c 0
 492 1430 821 1661 1104 1661 c 0
 1490 1661 1711 1348 1711 1076 c 0
 1711 719 1415 527 1167 521 c 1
 1167 330 l 2
 1167 148 1019 0 837 0 c 0
 794 0 751 8 711 25 c 0
 193 247 42 734 42 1022 c 0
 42 1700 593 2111 1101 2111 c 0
 1763 2111 2161 1572 2161 1080 c 0
EndSplineSet
EndChar
StartChar: four
Encoding: 52 52 20
Width: 2168
Flags: W
Fore
2152 1093 m 0
 2152 695 1916 336 1552 176 c 0
 1527 165 1500 160 1472 160 c 0
 1362 160 1272 250 1272 360 c 0
 1272 439 1319 511 1392 543 c 0
 1611 639 1752 854 1752 1093 c 0
 1752 1437 1467 1704 1112 1704 c 0
 736 1704 432 1400 432 1024 c 0
 432 753 592 509 840 400 c 0
 855 394 864 379 864 364 c 0
 864 342 846 324 824 324 c 0
 819 324 813 325 808 327 c 0
 531 448 352 722 352 1024 c 0
 352 1444 692 1784 1112 1784 c 0
 1511 1784 1832 1481 1832 1093 c 0
 1832 823 1672 578 1424 470 c 0
 1380 451 1352 408 1352 360 c 0
 1352 294 1406 240 1472 240 c 0
 1489 240 1505 243 1520 250 c 0
 1855 396 2072 727 2072 1093 c 0
 2072 1422 1897 1725 1612 1890 c 0
 1460 1978 1288 2024 1112 2024 c 0
 560 2024 112 1576 112 1024 c 0
 112 626 348 266 716 105 c 0
 759 87 797 80 832 80 c 0
 987 80 1112 205 1112 360 c 0
 1112 468 1051 565 950 614 c 2
 940 618 l 2
 776 690 672 848 672 1024 c 0
 672 1267 869 1464 1112 1464 c 0
 1322 1464 1512 1315 1512 1093 c 0
 1512 894 1351 733 1152 733 c 0
 983 733 832 849 832 1024 c 0
 832 1179 957 1304 1112 1304 c 0
 1241 1304 1352 1219 1352 1093 c 0
 1352 983 1262 893 1152 893 c 0
 1076 893 992 937 992 1024 c 0
 992 1090 1046 1144 1112 1144 c 0
 1136 1144 1192 1134 1192 1093 c 0
 1192 1071 1174 1053 1152 1053 c 0
 1136 1053 1128 1064 1112 1064 c 0
 1090 1064 1072 1046 1072 1024 c 0
 1072 985 1124 973 1152 973 c 0
 1218 973 1272 1027 1272 1093 c 0
 1272 1175 1195 1224 1112 1224 c 0
 1002 1224 912 1134 912 1024 c 0
 912 897 1023 813 1152 813 c 0
 1307 813 1432 938 1432 1093 c 0
 1432 1266 1282 1384 1112 1384 c 0
 913 1384 752 1223 752 1024 c 0
 752 881 836 751 972 692 c 2
 983 687 l 2
 1036 665 1094 653 1152 653 c 0
 1212 653 1269 665 1322 687 c 2
 1331 691 l 2
 1485 759 1592 914 1592 1093 c 0
 1592 1350 1376 1544 1112 1544 c 0
 825 1544 592 1311 592 1024 c 0
 592 817 714 630 908 545 c 0
 984 512 1032 439 1032 360 c 0
 1032 250 942 160 832 160 c 0
 798 160 771 168 748 179 c 0
 409 327 192 658 192 1024 c 0
 192 1532 604 1944 1112 1944 c 0
 1273 1944 1432 1901 1572 1820 c 0
 1832 1670 1992 1393 1992 1093 c 0
 1992 759 1794 457 1488 323 c 0
 1483 321 1477 320 1472 320 c 0
 1450 320 1432 338 1432 360 c 0
 1432 375 1441 390 1456 396 c 0
 1733 517 1912 791 1912 1093 c 0
 1912 1527 1554 1864 1112 1864 c 0
 648 1864 272 1488 272 1024 c 0
 272 690 470 388 780 252 c 0
 794 245 811 240 832 240 c 0
 898 240 952 294 952 360 c 0
 952 407 925 450 876 472 c 0
 654 569 512 785 512 1024 c 0
 512 1355 781 1624 1112 1624 c 0
 1421 1624 1672 1394 1672 1093 c 0
 1672 877 1541 692 1354 614 c 0
 1255 568 1192 469 1192 360 c 0
 1192 161 1031 0 832 0 c 0
 788 0 738 8 684 32 c 0
 287 206 32 594 32 1024 c 0
 32 1620 516 2104 1112 2104 c 0
 1302 2104 1488 2054 1652 1959 c 0
 1961 1780 2152 1450 2152 1093 c 0
1183 574 m 1
 1172 573 1162 573 1152 573 c 0
 1142 573 1131 573 1121 574 c 1
 1133 558 1143 542 1152 524 c 1
 1161 542 1171 558 1183 574 c 1
EndSplineSet
EndChar
StartChar: five
Encoding: 53 53 21
Width: 2268
Flags: W
Fore
2214 1080 m 0
 2214 484 1730 0 1134 0 c 0
 538 0 54 484 54 1080 c 0
 54 1595 418 2039 923 2139 c 1
 1102 1239 l 1
 1049 1228 1005 1192 984 1142 c 1
 386 1390 l 1
 345 1292 324 1186 324 1080 c 0
 324 633 687 270 1134 270 c 0
 1581 270 1944 633 1944 1080 c 0
 1944 1240 1896 1397 1807 1530 c 1
 1358 1230 l 1
 1349 1245 1337 1258 1325 1271 c 1
 1745 1691 l 1
 1907 1529 1998 1309 1998 1080 c 0
 1998 603 1611 216 1134 216 c 0
 657 216 270 603 270 1080 c 0
 270 1251 321 1418 416 1560 c 1
 954 1200 l 1
 978 1236 1012 1263 1051 1280 c 1
 741 2028 l 1
 358 1869 108 1495 108 1080 c 0
 108 513 567 54 1134 54 c 0
 1701 54 2160 513 2160 1080 c 0
 2160 1569 1814 1991 1334 2086 c 1
 1155 1186 l 1
 1206 1176 1242 1132 1242 1080 c 1
 1782 1080 l 1
 1782 722 1492 432 1134 432 c 0
 825 432 559 650 498 954 c 1
 975 1048 l 1
 986 995 1022 951 1072 930 c 1
 989 731 l 1
 1035 712 1084 702 1134 702 c 0
 1209 702 1282 724 1344 766 c 1
 1284 856 l 1
 1299 865 1312 877 1325 889 c 1
 1439 775 l 1
 1358 694 1249 648 1134 648 c 0
 1049 648 965 673 894 721 c 1
 1014 900 l 1
 978 924 951 958 934 997 c 1
 585 853 l 1
 677 631 894 486 1134 486 c 0
 1417 486 1661 686 1717 964 c 1
 1240 1059 l 1
 1230 1008 1186 972 1134 972 c 1
 1134 810 l 1
 1152 810 1169 812 1187 815 c 1
 1166 921 l 1
 1219 932 1263 968 1284 1018 c 1
 1633 873 l 1
 1549 672 1352 540 1134 540 c 0
 954 540 785 630 685 780 c 1
 910 930 l 1
 919 915 931 902 943 889 c 1
 790 736 l 1
 881 645 1005 594 1134 594 c 0
 1296 594 1448 675 1538 810 c 1
 1314 960 l 1
 1290 924 1256 897 1217 880 c 1
 1258 781 l 1
 1219 764 1177 756 1134 756 c 0
 1113 756 1092 758 1071 762 c 1
 1113 974 l 1
 1062 984 1026 1028 1026 1080 c 1
 432 1080 l 1
 432 692 746 378 1134 378 c 0
 1522 378 1836 692 1836 1080 c 0
 1836 1126 1831 1172 1823 1217 c 1
 1293 1112 l 1
 1282 1165 1246 1209 1196 1230 c 1
 1506 1978 l 1
 1869 1828 2106 1473 2106 1080 c 0
 2106 543 1671 108 1134 108 c 0
 597 108 162 543 162 1080 c 0
 162 1405 324 1708 594 1888 c 1
 984 1304 l 1
 969 1295 956 1283 943 1271 c 1
 485 1729 l 1
 313 1557 216 1323 216 1080 c 0
 216 573 627 162 1134 162 c 0
 1641 162 2052 573 2052 1080 c 0
 2052 1387 1899 1673 1644 1843 c 1
 1254 1260 l 1
 1290 1236 1317 1202 1334 1163 c 1
 1832 1369 l 1
 1870 1278 1890 1179 1890 1080 c 0
 1890 662 1552 324 1134 324 c 0
 716 324 378 662 378 1080 c 0
 378 1130 383 1179 393 1227 c 1
 1028 1101 l 1
 1038 1152 1082 1188 1134 1188 c 1
 1134 2160 l 1
 1730 2160 2214 1676 2214 1080 c 0
EndSplineSet
EndChar
StartChar: six
Encoding: 54 54 22
Width: 2312
Flags: W
Fore
2272 130 m 0
 2272 121 2265 114 2256 114 c 2
 1848 114 l 1
 1848 0 l 1
 1824 0 l 1
 1824 114 l 1
 1788 114 l 1
 1788 0 l 1
 1764 0 l 1
 1764 114 l 1
 1728 114 l 1
 1728 0 l 1
 1704 0 l 1
 1704 114 l 1
 1668 114 l 1
 1668 0 l 1
 1644 0 l 1
 1644 114 l 1
 1608 114 l 1
 1608 0 l 1
 1584 0 l 1
 1584 114 l 1
 1408 114 l 1
 1408 0 l 1
 1384 0 l 1
 1384 114 l 1
 1348 114 l 1
 1348 0 l 1
 1324 0 l 1
 1324 114 l 1
 1288 114 l 1
 1288 0 l 1
 1264 0 l 1
 1264 114 l 1
 1228 114 l 1
 1228 0 l 1
 1204 0 l 1
 1204 114 l 1
 1048 114 l 1
 1048 0 l 1
 1024 0 l 1
 1024 114 l 1
 988 114 l 1
 988 0 l 1
 964 0 l 1
 964 114 l 1
 928 114 l 1
 928 0 l 1
 904 0 l 1
 904 114 l 1
 738 114 l 1
 738 0 l 1
 714 0 l 1
 714 114 l 1
 678 114 l 1
 678 0 l 1
 654 0 l 1
 654 114 l 1
 488 114 l 1
 488 0 l 1
 464 0 l 1
 464 114 l 1
 56 114 l 2
 47 114 40 121 40 130 c 0
 40 139 47 146 56 146 c 2
 240 146 l 1
 240 1930 l 2
 240 1939 247 1946 256 1946 c 2
 464 1946 l 1
 464 2070 l 1
 488 2070 l 1
 488 1946 l 1
 654 1946 l 1
 654 2070 l 1
 678 2070 l 1
 678 1946 l 1
 714 1946 l 1
 714 2070 l 1
 738 2070 l 1
 738 1946 l 1
 904 1946 l 1
 904 2070 l 1
 928 2070 l 1
 928 1946 l 1
 964 1946 l 1
 964 2070 l 1
 988 2070 l 1
 988 1946 l 1
 1024 1946 l 1
 1024 2070 l 1
 1048 2070 l 1
 1048 1946 l 1
 1204 1946 l 1
 1204 2070 l 1
 1228 2070 l 1
 1228 1946 l 1
 1264 1946 l 1
 1264 2070 l 1
 1288 2070 l 1
 1288 1946 l 1
 1324 1946 l 1
 1324 2070 l 1
 1348 2070 l 1
 1348 1946 l 1
 1384 1946 l 1
 1384 2070 l 1
 1408 2070 l 1
 1408 1946 l 1
 1584 1946 l 1
 1584 2070 l 1
 1608 2070 l 1
 1608 1946 l 1
 1644 1946 l 1
 1644 2070 l 1
 1668 2070 l 1
 1668 1946 l 1
 1704 1946 l 1
 1704 2070 l 1
 1728 2070 l 1
 1728 1946 l 1
 1764 1946 l 1
 1764 2070 l 1
 1788 2070 l 1
 1788 1946 l 1
 1824 1946 l 1
 1824 2070 l 1
 1848 2070 l 1
 1848 1946 l 1
 2056 1946 l 2
 2065 1946 2072 1939 2072 1930 c 2
 2072 1715 l 1
 2186 1658 l 1
 2186 1632 l 1
 2072 1689 l 1
 2072 1525 l 1
 2186 1468 l 1
 2186 1442 l 1
 2072 1499 l 1
 2072 1465 l 1
 2186 1408 l 1
 2186 1382 l 1
 2072 1439 l 1
 2072 1275 l 1
 2186 1218 l 1
 2186 1192 l 1
 2072 1249 l 1
 2072 1215 l 1
 2186 1158 l 1
 2186 1132 l 1
 2072 1189 l 1
 2072 1155 l 1
 2186 1098 l 1
 2186 1072 l 1
 2072 1129 l 1
 2072 975 l 1
 2186 918 l 1
 2186 892 l 1
 2072 949 l 1
 2072 915 l 1
 2186 858 l 1
 2186 832 l 1
 2072 889 l 1
 2072 855 l 1
 2186 798 l 1
 2186 772 l 1
 2072 829 l 1
 2072 795 l 1
 2186 738 l 1
 2186 712 l 1
 2072 769 l 1
 2072 595 l 1
 2186 538 l 1
 2186 512 l 1
 2072 569 l 1
 2072 535 l 1
 2186 478 l 1
 2186 452 l 1
 2072 509 l 1
 2072 475 l 1
 2186 418 l 1
 2186 392 l 1
 2072 449 l 1
 2072 415 l 1
 2186 358 l 1
 2186 332 l 1
 2072 389 l 1
 2072 355 l 1
 2186 298 l 1
 2186 272 l 1
 2072 329 l 1
 2072 146 l 1
 2256 146 l 2
 2265 146 2272 139 2272 130 c 0
2040 146 m 1
 2040 345 l 1
 1926 402 l 1
 1926 428 l 1
 2040 371 l 1
 2040 405 l 1
 1926 462 l 1
 1926 488 l 1
 2040 431 l 1
 2040 465 l 1
 1926 522 l 1
 1926 548 l 1
 2040 491 l 1
 2040 525 l 1
 1926 582 l 1
 1926 608 l 1
 2040 551 l 1
 2040 585 l 1
 1926 642 l 1
 1926 668 l 1
 2040 611 l 1
 2040 785 l 1
 1926 842 l 1
 1926 868 l 1
 2040 811 l 1
 2040 845 l 1
 1926 902 l 1
 1926 928 l 1
 2040 871 l 1
 2040 905 l 1
 1926 962 l 1
 1926 988 l 1
 2040 931 l 1
 2040 965 l 1
 1926 1022 l 1
 1926 1048 l 1
 2040 991 l 1
 2040 1145 l 1
 1926 1202 l 1
 1926 1228 l 1
 2040 1171 l 1
 2040 1205 l 1
 1926 1262 l 1
 1926 1288 l 1
 2040 1231 l 1
 2040 1265 l 1
 1926 1322 l 1
 1926 1348 l 1
 2040 1291 l 1
 2040 1455 l 1
 1926 1512 l 1
 1926 1538 l 1
 2040 1481 l 1
 2040 1515 l 1
 1926 1572 l 1
 1926 1598 l 1
 2040 1541 l 1
 2040 1705 l 1
 1926 1762 l 1
 1926 1788 l 1
 2040 1731 l 1
 2040 1914 l 1
 272 1914 l 1
 272 1752 l 1
 396 1752 l 1
 396 1728 l 1
 272 1728 l 1
 272 1692 l 1
 396 1692 l 1
 396 1668 l 1
 272 1668 l 1
 272 1632 l 1
 396 1632 l 1
 396 1608 l 1
 272 1608 l 1
 272 1572 l 1
 396 1572 l 1
 396 1548 l 1
 272 1548 l 1
 272 1512 l 1
 396 1512 l 1
 396 1488 l 1
 272 1488 l 1
 272 1312 l 1
 396 1312 l 1
 396 1288 l 1
 272 1288 l 1
 272 1252 l 1
 396 1252 l 1
 396 1228 l 1
 272 1228 l 1
 272 1192 l 1
 396 1192 l 1
 396 1168 l 1
 272 1168 l 1
 272 1132 l 1
 396 1132 l 1
 396 1108 l 1
 272 1108 l 1
 272 952 l 1
 396 952 l 1
 396 928 l 1
 272 928 l 1
 272 892 l 1
 396 892 l 1
 396 868 l 1
 272 868 l 1
 272 832 l 1
 396 832 l 1
 396 808 l 1
 272 808 l 1
 272 642 l 1
 396 642 l 1
 396 618 l 1
 272 618 l 1
 272 582 l 1
 396 582 l 1
 396 558 l 1
 272 558 l 1
 272 392 l 1
 396 392 l 1
 396 368 l 1
 272 368 l 1
 272 146 l 1
 464 146 l 1
 464 260 l 1
 488 260 l 1
 488 146 l 1
 654 146 l 1
 654 260 l 1
 678 260 l 1
 678 146 l 1
 714 146 l 1
 714 260 l 1
 738 260 l 1
 738 146 l 1
 904 146 l 1
 904 260 l 1
 928 260 l 1
 928 146 l 1
 964 146 l 1
 964 260 l 1
 988 260 l 1
 988 146 l 1
 1024 146 l 1
 1024 260 l 1
 1048 260 l 1
 1048 146 l 1
 1204 146 l 1
 1204 260 l 1
 1228 260 l 1
 1228 146 l 1
 1264 146 l 1
 1264 260 l 1
 1288 260 l 1
 1288 146 l 1
 1324 146 l 1
 1324 260 l 1
 1348 260 l 1
 1348 146 l 1
 1384 146 l 1
 1384 260 l 1
 1408 260 l 1
 1408 146 l 1
 1584 146 l 1
 1584 260 l 1
 1608 260 l 1
 1608 146 l 1
 1644 146 l 1
 1644 260 l 1
 1668 260 l 1
 1668 146 l 1
 1704 146 l 1
 1704 260 l 1
 1728 260 l 1
 1728 146 l 1
 1764 146 l 1
 1764 260 l 1
 1788 260 l 1
 1788 146 l 1
 1824 146 l 1
 1824 260 l 1
 1848 260 l 1
 1848 146 l 1
 2040 146 l 1
EndSplineSet
EndChar
StartChar: seven
Encoding: 55 55 23
Width: 2312
Flags: W
Fore
2272 130 m 0
 2272 121 2265 114 2256 114 c 2
 1848 114 l 1
 1848 0 l 1
 1824 0 l 1
 1824 114 l 1
 1788 114 l 1
 1788 0 l 1
 1764 0 l 1
 1764 114 l 1
 1728 114 l 1
 1728 0 l 1
 1704 0 l 1
 1704 114 l 1
 1668 114 l 1
 1668 0 l 1
 1644 0 l 1
 1644 114 l 1
 1608 114 l 1
 1608 0 l 1
 1584 0 l 1
 1584 114 l 1
 1408 114 l 1
 1408 0 l 1
 1384 0 l 1
 1384 114 l 1
 1348 114 l 1
 1348 0 l 1
 1324 0 l 1
 1324 114 l 1
 1288 114 l 1
 1288 0 l 1
 1264 0 l 1
 1264 114 l 1
 1228 114 l 1
 1228 0 l 1
 1204 0 l 1
 1204 114 l 1
 1048 114 l 1
 1048 0 l 1
 1024 0 l 1
 1024 114 l 1
 988 114 l 1
 988 0 l 1
 964 0 l 1
 964 114 l 1
 928 114 l 1
 928 0 l 1
 904 0 l 1
 904 114 l 1
 738 114 l 1
 738 0 l 1
 714 0 l 1
 714 114 l 1
 678 114 l 1
 678 0 l 1
 654 0 l 1
 654 114 l 1
 488 114 l 1
 488 0 l 1
 464 0 l 1
 464 114 l 1
 56 114 l 2
 47 114 40 121 40 130 c 0
 40 139 47 146 56 146 c 2
 240 146 l 1
 240 1930 l 2
 240 1939 247 1946 256 1946 c 2
 464 1946 l 1
 464 2070 l 1
 488 2070 l 1
 488 1946 l 1
 524 1946 l 1
 524 2070 l 1
 548 2070 l 1
 548 1946 l 1
 584 1946 l 1
 584 2070 l 1
 608 2070 l 1
 608 1946 l 1
 644 1946 l 1
 644 2070 l 1
 668 2070 l 1
 668 1946 l 1
 704 1946 l 1
 704 2070 l 1
 728 2070 l 1
 728 1946 l 1
 904 1946 l 1
 904 2070 l 1
 928 2070 l 1
 928 1946 l 1
 1094 1946 l 1
 1094 2070 l 1
 1118 2070 l 1
 1118 1946 l 1
 1154 1946 l 1
 1154 2070 l 1
 1178 2070 l 1
 1178 1946 l 1
 1344 1946 l 1
 1344 2070 l 1
 1368 2070 l 1
 1368 1946 l 1
 1404 1946 l 1
 1404 2070 l 1
 1428 2070 l 1
 1428 1946 l 1
 1464 1946 l 1
 1464 2070 l 1
 1488 2070 l 1
 1488 1946 l 1
 1644 1946 l 1
 1644 2070 l 1
 1668 2070 l 1
 1668 1946 l 1
 1704 1946 l 1
 1704 2070 l 1
 1728 2070 l 1
 1728 1946 l 1
 1764 1946 l 1
 1764 2070 l 1
 1788 2070 l 1
 1788 1946 l 1
 1824 1946 l 1
 1824 2070 l 1
 1848 2070 l 1
 1848 1946 l 1
 2056 1946 l 2
 2065 1946 2072 1939 2072 1930 c 2
 2072 1715 l 1
 2186 1658 l 1
 2186 1632 l 1
 2072 1689 l 1
 2072 1655 l 1
 2186 1598 l 1
 2186 1572 l 1
 2072 1629 l 1
 2072 1595 l 1
 2186 1538 l 1
 2186 1512 l 1
 2072 1569 l 1
 2072 1535 l 1
 2186 1478 l 1
 2186 1452 l 1
 2072 1509 l 1
 2072 1355 l 1
 2186 1298 l 1
 2186 1272 l 1
 2072 1329 l 1
 2072 1165 l 1
 2186 1108 l 1
 2186 1082 l 1
 2072 1139 l 1
 2072 1105 l 1
 2186 1048 l 1
 2186 1022 l 1
 2072 1079 l 1
 2072 915 l 1
 2186 858 l 1
 2186 832 l 1
 2072 889 l 1
 2072 855 l 1
 2186 798 l 1
 2186 772 l 1
 2072 829 l 1
 2072 795 l 1
 2186 738 l 1
 2186 712 l 1
 2072 769 l 1
 2072 595 l 1
 2186 538 l 1
 2186 512 l 1
 2072 569 l 1
 2072 535 l 1
 2186 478 l 1
 2186 452 l 1
 2072 509 l 1
 2072 475 l 1
 2186 418 l 1
 2186 392 l 1
 2072 449 l 1
 2072 415 l 1
 2186 358 l 1
 2186 332 l 1
 2072 389 l 1
 2072 355 l 1
 2186 298 l 1
 2186 272 l 1
 2072 329 l 1
 2072 146 l 1
 2256 146 l 2
 2265 146 2272 139 2272 130 c 0
2040 146 m 1
 2040 345 l 1
 1926 402 l 1
 1926 428 l 1
 2040 371 l 1
 2040 405 l 1
 1926 462 l 1
 1926 488 l 1
 2040 431 l 1
 2040 465 l 1
 1926 522 l 1
 1926 548 l 1
 2040 491 l 1
 2040 525 l 1
 1926 582 l 1
 1926 608 l 1
 2040 551 l 1
 2040 585 l 1
 1926 642 l 1
 1926 668 l 1
 2040 611 l 1
 2040 785 l 1
 1926 842 l 1
 1926 868 l 1
 2040 811 l 1
 2040 845 l 1
 1926 902 l 1
 1926 928 l 1
 2040 871 l 1
 2040 905 l 1
 1926 962 l 1
 1926 988 l 1
 2040 931 l 1
 2040 1095 l 1
 1926 1152 l 1
 1926 1178 l 1
 2040 1121 l 1
 2040 1155 l 1
 1926 1212 l 1
 1926 1238 l 1
 2040 1181 l 1
 2040 1345 l 1
 1926 1402 l 1
 1926 1428 l 1
 2040 1371 l 1
 2040 1525 l 1
 1926 1582 l 1
 1926 1608 l 1
 2040 1551 l 1
 2040 1585 l 1
 1926 1642 l 1
 1926 1668 l 1
 2040 1611 l 1
 2040 1645 l 1
 1926 1702 l 1
 1926 1728 l 1
 2040 1671 l 1
 2040 1705 l 1
 1926 1762 l 1
 1926 1788 l 1
 2040 1731 l 1
 2040 1914 l 1
 272 1914 l 1
 272 1752 l 1
 396 1752 l 1
 396 1728 l 1
 272 1728 l 1
 272 1692 l 1
 396 1692 l 1
 396 1668 l 1
 272 1668 l 1
 272 1632 l 1
 396 1632 l 1
 396 1608 l 1
 272 1608 l 1
 272 1572 l 1
 396 1572 l 1
 396 1548 l 1
 272 1548 l 1
 272 1512 l 1
 396 1512 l 1
 396 1488 l 1
 272 1488 l 1
 272 1312 l 1
 396 1312 l 1
 396 1288 l 1
 272 1288 l 1
 272 1252 l 1
 396 1252 l 1
 396 1228 l 1
 272 1228 l 1
 272 1192 l 1
 396 1192 l 1
 396 1168 l 1
 272 1168 l 1
 272 1132 l 1
 396 1132 l 1
 396 1108 l 1
 272 1108 l 1
 272 952 l 1
 396 952 l 1
 396 928 l 1
 272 928 l 1
 272 892 l 1
 396 892 l 1
 396 868 l 1
 272 868 l 1
 272 832 l 1
 396 832 l 1
 396 808 l 1
 272 808 l 1
 272 642 l 1
 396 642 l 1
 396 618 l 1
 272 618 l 1
 272 582 l 1
 396 582 l 1
 396 558 l 1
 272 558 l 1
 272 392 l 1
 396 392 l 1
 396 368 l 1
 272 368 l 1
 272 146 l 1
 464 146 l 1
 464 260 l 1
 488 260 l 1
 488 146 l 1
 654 146 l 1
 654 260 l 1
 678 260 l 1
 678 146 l 1
 714 146 l 1
 714 260 l 1
 738 260 l 1
 738 146 l 1
 904 146 l 1
 904 260 l 1
 928 260 l 1
 928 146 l 1
 964 146 l 1
 964 260 l 1
 988 260 l 1
 988 146 l 1
 1024 146 l 1
 1024 260 l 1
 1048 260 l 1
 1048 146 l 1
 1204 146 l 1
 1204 260 l 1
 1228 260 l 1
 1228 146 l 1
 1264 146 l 1
 1264 260 l 1
 1288 260 l 1
 1288 146 l 1
 1324 146 l 1
 1324 260 l 1
 1348 260 l 1
 1348 146 l 1
 1384 146 l 1
 1384 260 l 1
 1408 260 l 1
 1408 146 l 1
 1584 146 l 1
 1584 260 l 1
 1608 260 l 1
 1608 146 l 1
 1644 146 l 1
 1644 260 l 1
 1668 260 l 1
 1668 146 l 1
 1704 146 l 1
 1704 260 l 1
 1728 260 l 1
 1728 146 l 1
 1764 146 l 1
 1764 260 l 1
 1788 260 l 1
 1788 146 l 1
 1824 146 l 1
 1824 260 l 1
 1848 260 l 1
 1848 146 l 1
 2040 146 l 1
EndSplineSet
EndChar
StartChar: eight
Encoding: 56 56 24
Width: 2312
Flags: W
Fore
2272 130 m 0
 2272 121 2265 114 2256 114 c 2
 1848 114 l 1
 1848 0 l 1
 1824 0 l 1
 1824 114 l 1
 1788 114 l 1
 1788 0 l 1
 1764 0 l 1
 1764 114 l 1
 1728 114 l 1
 1728 0 l 1
 1704 0 l 1
 1704 114 l 1
 1668 114 l 1
 1668 0 l 1
 1644 0 l 1
 1644 114 l 1
 1608 114 l 1
 1608 0 l 1
 1584 0 l 1
 1584 114 l 1
 1408 114 l 1
 1408 0 l 1
 1384 0 l 1
 1384 114 l 1
 1348 114 l 1
 1348 0 l 1
 1324 0 l 1
 1324 114 l 1
 1288 114 l 1
 1288 0 l 1
 1264 0 l 1
 1264 114 l 1
 1228 114 l 1
 1228 0 l 1
 1204 0 l 1
 1204 114 l 1
 1048 114 l 1
 1048 0 l 1
 1024 0 l 1
 1024 114 l 1
 988 114 l 1
 988 0 l 1
 964 0 l 1
 964 114 l 1
 928 114 l 1
 928 0 l 1
 904 0 l 1
 904 114 l 1
 738 114 l 1
 738 0 l 1
 714 0 l 1
 714 114 l 1
 678 114 l 1
 678 0 l 1
 654 0 l 1
 654 114 l 1
 488 114 l 1
 488 0 l 1
 464 0 l 1
 464 114 l 1
 56 114 l 2
 47 114 40 121 40 130 c 0
 40 139 47 146 56 146 c 2
 240 146 l 1
 240 1930 l 2
 240 1939 247 1946 256 1946 c 2
 527 1946 l 1
 591 2073 l 1
 618 2073 l 1
 554 1946 l 1
 587 1946 l 1
 651 2073 l 1
 678 2073 l 1
 614 1946 l 1
 647 1946 l 1
 711 2073 l 1
 738 2073 l 1
 674 1946 l 1
 707 1946 l 1
 771 2073 l 1
 798 2073 l 1
 734 1946 l 1
 904 1946 l 1
 904 2070 l 1
 928 2070 l 1
 928 1946 l 1
 1094 1946 l 1
 1094 2070 l 1
 1118 2070 l 1
 1118 1946 l 1
 1154 1946 l 1
 1154 2070 l 1
 1178 2070 l 1
 1178 1946 l 1
 1344 1946 l 1
 1344 2070 l 1
 1368 2070 l 1
 1368 1946 l 1
 1404 1946 l 1
 1404 2070 l 1
 1428 2070 l 1
 1428 1946 l 1
 1464 1946 l 1
 1464 2070 l 1
 1488 2070 l 1
 1488 1946 l 1
 1644 1946 l 1
 1644 2070 l 1
 1668 2070 l 1
 1668 1946 l 1
 1704 1946 l 1
 1704 2070 l 1
 1728 2070 l 1
 1728 1946 l 1
 1764 1946 l 1
 1764 2070 l 1
 1788 2070 l 1
 1788 1946 l 1
 1824 1946 l 1
 1824 2070 l 1
 1848 2070 l 1
 1848 1946 l 1
 2056 1946 l 2
 2065 1946 2072 1939 2072 1930 c 2
 2072 1355 l 1
 2186 1298 l 1
 2186 1272 l 1
 2072 1329 l 1
 2072 1165 l 1
 2186 1108 l 1
 2186 1082 l 1
 2072 1139 l 1
 2072 1105 l 1
 2186 1048 l 1
 2186 1022 l 1
 2072 1079 l 1
 2072 915 l 1
 2186 858 l 1
 2186 832 l 1
 2072 889 l 1
 2072 855 l 1
 2186 798 l 1
 2186 772 l 1
 2072 829 l 1
 2072 795 l 1
 2186 738 l 1
 2186 712 l 1
 2072 769 l 1
 2072 595 l 1
 2186 538 l 1
 2186 512 l 1
 2072 569 l 1
 2072 535 l 1
 2186 478 l 1
 2186 452 l 1
 2072 509 l 1
 2072 475 l 1
 2186 418 l 1
 2186 392 l 1
 2072 449 l 1
 2072 415 l 1
 2186 358 l 1
 2186 332 l 1
 2072 389 l 1
 2072 355 l 1
 2186 298 l 1
 2186 272 l 1
 2072 329 l 1
 2072 146 l 1
 2256 146 l 2
 2265 146 2272 139 2272 130 c 0
2040 146 m 1
 2040 345 l 1
 1926 402 l 1
 1926 428 l 1
 2040 371 l 1
 2040 405 l 1
 1926 462 l 1
 1926 488 l 1
 2040 431 l 1
 2040 465 l 1
 1926 522 l 1
 1926 548 l 1
 2040 491 l 1
 2040 525 l 1
 1926 582 l 1
 1926 608 l 1
 2040 551 l 1
 2040 585 l 1
 1926 642 l 1
 1926 668 l 1
 2040 611 l 1
 2040 785 l 1
 1926 842 l 1
 1926 868 l 1
 2040 811 l 1
 2040 845 l 1
 1926 902 l 1
 1926 928 l 1
 2040 871 l 1
 2040 905 l 1
 1926 962 l 1
 1926 988 l 1
 2040 931 l 1
 2040 1095 l 1
 1926 1152 l 1
 1926 1178 l 1
 2040 1121 l 1
 2040 1155 l 1
 1926 1212 l 1
 1926 1238 l 1
 2040 1181 l 1
 2040 1345 l 1
 1926 1402 l 1
 1926 1428 l 1
 2040 1371 l 1
 2040 1528 l 1
 1916 1528 l 1
 1916 1552 l 1
 2040 1552 l 1
 2040 1588 l 1
 1916 1588 l 1
 1916 1612 l 1
 2040 1612 l 1
 2040 1648 l 1
 1916 1648 l 1
 1916 1672 l 1
 2040 1672 l 1
 2040 1708 l 1
 1916 1708 l 1
 1916 1732 l 1
 2040 1732 l 1
 2040 1768 l 1
 1916 1768 l 1
 1916 1792 l 1
 2040 1792 l 1
 2040 1914 l 1
 718 1914 l 1
 668 1813 l 1
 641 1813 l 1
 691 1914 l 1
 658 1914 l 1
 608 1813 l 1
 581 1813 l 1
 631 1914 l 1
 598 1914 l 1
 548 1813 l 1
 521 1813 l 1
 571 1914 l 1
 538 1914 l 1
 488 1813 l 1
 461 1813 l 1
 511 1914 l 1
 272 1914 l 1
 272 1752 l 1
 396 1752 l 1
 396 1728 l 1
 272 1728 l 1
 272 1692 l 1
 396 1692 l 1
 396 1668 l 1
 272 1668 l 1
 272 1632 l 1
 396 1632 l 1
 396 1608 l 1
 272 1608 l 1
 272 1572 l 1
 396 1572 l 1
 396 1548 l 1
 272 1548 l 1
 272 1512 l 1
 396 1512 l 1
 396 1488 l 1
 272 1488 l 1
 272 1312 l 1
 396 1312 l 1
 396 1288 l 1
 272 1288 l 1
 272 1252 l 1
 396 1252 l 1
 396 1228 l 1
 272 1228 l 1
 272 1192 l 1
 396 1192 l 1
 396 1168 l 1
 272 1168 l 1
 272 1132 l 1
 396 1132 l 1
 396 1108 l 1
 272 1108 l 1
 272 952 l 1
 396 952 l 1
 396 928 l 1
 272 928 l 1
 272 892 l 1
 396 892 l 1
 396 868 l 1
 272 868 l 1
 272 832 l 1
 396 832 l 1
 396 808 l 1
 272 808 l 1
 272 642 l 1
 396 642 l 1
 396 618 l 1
 272 618 l 1
 272 582 l 1
 396 582 l 1
 396 558 l 1
 272 558 l 1
 272 392 l 1
 396 392 l 1
 396 368 l 1
 272 368 l 1
 272 146 l 1
 464 146 l 1
 464 260 l 1
 488 260 l 1
 488 146 l 1
 654 146 l 1
 654 260 l 1
 678 260 l 1
 678 146 l 1
 714 146 l 1
 714 260 l 1
 738 260 l 1
 738 146 l 1
 904 146 l 1
 904 260 l 1
 928 260 l 1
 928 146 l 1
 964 146 l 1
 964 260 l 1
 988 260 l 1
 988 146 l 1
 1024 146 l 1
 1024 260 l 1
 1048 260 l 1
 1048 146 l 1
 1204 146 l 1
 1204 260 l 1
 1228 260 l 1
 1228 146 l 1
 1264 146 l 1
 1264 260 l 1
 1288 260 l 1
 1288 146 l 1
 1324 146 l 1
 1324 260 l 1
 1348 260 l 1
 1348 146 l 1
 1384 146 l 1
 1384 260 l 1
 1408 260 l 1
 1408 146 l 1
 1584 146 l 1
 1584 260 l 1
 1608 260 l 1
 1608 146 l 1
 1644 146 l 1
 1644 260 l 1
 1668 260 l 1
 1668 146 l 1
 1704 146 l 1
 1704 260 l 1
 1728 260 l 1
 1728 146 l 1
 1764 146 l 1
 1764 260 l 1
 1788 260 l 1
 1788 146 l 1
 1824 146 l 1
 1824 260 l 1
 1848 260 l 1
 1848 146 l 1
 2040 146 l 1
EndSplineSet
EndChar
StartChar: nine
Encoding: 57 57 25
Width: 2581
Flags: W
Fore
1594 1644 m 0
 1594 1488 1478 1354 1324 1332 c 1
 1324 1129 l 1
 1549 1129 l 1
 1549 1039 l 1
 1324 1039 l 1
 1324 814 l 1
 1234 814 l 1
 1234 1039 l 1
 1009 1039 l 1
 1009 1129 l 1
 1234 1129 l 1
 1234 1332 l 1
 1079 1354 964 1488 964 1644 c 0
 964 1818 1105 1959 1279 1959 c 0
 1453 1959 1594 1818 1594 1644 c 0
2513 315 m 0
 2513 141 2372 0 2198 0 c 0
 2024 0 1883 141 1883 315 c 0
 1883 341 1887 367 1893 393 c 1
 1556 533 l 1
 1620 378 l 1
 1537 343 l 1
 1413 642 l 1
 1712 765 l 1
 1746 682 l 1
 1589 617 l 1
 1929 476 l 1
 1986 575 2090 630 2198 630 c 0
 2372 630 2513 489 2513 315 c 0
1145 642 m 1
 1021 343 l 1
 938 378 l 1
 1002 533 l 1
 665 393 l 1
 671 367 675 341 675 315 c 0
 675 141 534 0 360 0 c 0
 186 0 45 141 45 315 c 0
 45 489 186 630 360 630 c 0
 468 630 572 575 629 476 c 1
 969 617 l 1
 812 682 l 1
 846 765 l 1
 1145 642 l 1
1504 1644 m 0
 1504 1768 1403 1869 1279 1869 c 0
 1155 1869 1054 1768 1054 1644 c 0
 1054 1520 1155 1419 1279 1419 c 0
 1403 1419 1504 1520 1504 1644 c 0
2423 315 m 0
 2423 439 2322 540 2198 540 c 0
 2074 540 1973 439 1973 315 c 0
 1973 191 2074 90 2198 90 c 0
 2322 90 2423 191 2423 315 c 0
585 315 m 0
 585 439 484 540 360 540 c 0
 236 540 135 439 135 315 c 0
 135 191 236 90 360 90 c 0
 484 90 585 191 585 315 c 0
EndSplineSet
EndChar
StartChar: colon
Encoding: 58 58 26
Width: 2615
Flags: W
Fore
2574 1302 m 0
 2574 1063 2333 869 2104 869 c 0
 2057 869 2025 878 2021 880 c 0
 1952 919 1913 973 1775 973 c 0
 1646 973 1557 924 1545 920 c 1
 1545 926 1546 932 1546 938 c 0
 1546 1056 1495 1135 1400 1183 c 1
 1410 1192 1429 1246 1458 1309 c 0
 1497 1395 1532 1443 1581 1494 c 0
 1619 1526 1673 1546 1715 1578 c 0
 1774 1612 1854 1712 2047 1712 c 0
 2311 1712 2574 1495 2574 1302 c 0
1770 1813 m 0
 1770 1707 1739 1646 1703 1607 c 1
 1655 1570 1590 1546 1551 1508 c 0
 1453 1409 1390 1210 1375 1195 c 1
 1333 1212 1293 1222 1240 1222 c 0
 1165 1222 1097 1192 1044 1152 c 1
 999 1223 946 1302 923 1393 c 0
 911 1435 908 1476 904 1518 c 0
 900 1570 882 1632 882 1725 c 0
 882 2065 1144 2232 1377 2232 c 0
 1554 2232 1770 2037 1770 1813 c 0
2232 451 m 0
 2232 234 2072 0 1857 0 c 0
 1468 0 1285 314 1285 392 c 0
 1285 415 1318 446 1341 567 c 0
 1352 606 1360 656 1360 666 c 0
 1360 673 1359 682 1357 690 c 1
 1432 725 1517 787 1540 886 c 1
 1549 889 1662 944 1785 944 c 0
 1881 944 1947 883 1976 859 c 0
 2046 792 2232 713 2232 451 c 0
1483 990 m 0
 1483 935 1449 909 1449 885 c 0
 1449 875 1450 864 1450 850 c 0
 1450 758 1375 720 1325 720 c 0
 1299 720 1274 729 1262 729 c 0
 1247 729 1219 707 1176 707 c 0
 1128 707 1064 739 1052 818 c 0
 1041 883 1053 843 1017 896 c 0
 1008 908 993 932 993 967 c 0
 993 1071 1089 1090 1102 1102 c 0
 1118 1117 1141 1192 1232 1192 c 0
 1305 1192 1335 1134 1351 1124 c 0
 1368 1114 1443 1114 1473 1039 c 0
 1480 1021 1483 1009 1483 990 c 0
1018 1122 m 1
 969 1078 935 1010 935 933 c 0
 935 907 943 870 954 841 c 1
 917 846 896 848 881 848 c 0
 850 848 837 839 772 839 c 0
 738 839 601 846 508 869 c 0
 444 887 42 886 42 1317 c 0
 42 1555 264 1742 539 1742 c 0
 647 1742 775 1664 841 1615 c 1
 881 1572 868 1479 892 1384 c 0
 914 1292 974 1201 1018 1122 c 1
1329 665 m 1
 1329 665 1295 483 1261 422 c 0
 1257 414 1250 390 1244 378 c 0
 1137 201 987 55 689 55 c 0
 398 55 273 307 273 478 c 0
 273 654 427 813 475 841 c 1
 578 817 752 807 795 807 c 0
 839 807 866 814 922 814 c 0
 935 814 944 813 964 813 c 1
 1067 677 1197 664 1240 664 c 0
 1271 664 1301 669 1328 679 c 1
 1329 674 1329 670 1329 665 c 1
1379 990 m 0
 1379 1020 1341 1008 1298 1034 c 0
 1258 1058 1252 1087 1232 1087 c 0
 1218 1087 1215 1083 1204 1066 c 0
 1179 1027 1170 1017 1123 995 c 0
 1108 989 1098 984 1098 967 c 0
 1098 954 1128 930 1142 899 c 0
 1160 854 1146 828 1166 815 c 0
 1171 812 1174 812 1176 812 c 0
 1193 812 1222 833 1262 833 c 0
 1287 833 1312 825 1325 825 c 0
 1328 825 1331 825 1338 830 c 0
 1347 838 1346 843 1346 850 c 0
 1346 861 1344 871 1344 885 c 0
 1344 943 1379 972 1379 990 c 0
EndSplineSet
EndChar
StartChar: semicolon
Encoding: 59 59 27
Width: 2340
Flags: W
Fore
2266 1308 m 0
 2266 1098 2109 938 1939 938 c 0
 1804 938 1716 1031 1716 1122 c 0
 1716 1182 1754 1225 1798 1225 c 0
 1818 1225 1833 1214 1838 1208 c 1
 1835 1209 1832 1209 1829 1209 c 0
 1791 1209 1766 1173 1766 1135 c 0
 1766 1063 1839 999 1934 999 c 0
 2065 999 2202 1122 2202 1309 c 0
 2202 1352 2196 1385 2187 1416 c 0
 2101 1716 1887 1962 1602 2090 c 1
 1580 2126 1548 2163 1517 2191 c 1
 1870 2076 2144 1794 2248 1437 c 0
 2259 1400 2266 1360 2266 1308 c 0
2139 1309 m 0
 2139 1161 2037 1058 1927 1058 c 0
 1859 1058 1806 1104 1806 1154 c 0
 1806 1186 1826 1203 1838 1208 c 1
 1834 1201 1832 1191 1832 1181 c 0
 1832 1154 1858 1112 1920 1112 c 0
 1991 1112 2077 1182 2077 1307 c 0
 2077 1453 1940 1604 1738 1604 c 0
 1561 1604 1531 1515 1396 1515 c 0
 1261 1515 1173 1608 1173 1699 c 0
 1173 1758 1211 1802 1256 1802 c 0
 1276 1802 1290 1791 1296 1785 c 1
 1293 1785 1290 1786 1287 1786 c 0
 1249 1786 1223 1750 1223 1712 c 0
 1223 1640 1296 1576 1392 1576 c 0
 1411 1576 1445 1580 1476 1593 c 1
 1541 1633 1629 1668 1739 1668 c 0
 1963 1668 2139 1499 2139 1309 c 0
2018 1300 m 0
 2018 1221 1964 1158 1903 1158 c 0
 1864 1158 1841 1184 1838 1208 c 1
 1844 1202 1858 1191 1878 1191 c 0
 1923 1191 1961 1235 1961 1294 c 0
 1961 1381 1877 1478 1738 1478 c 0
 1603 1478 1573 1389 1396 1389 c 0
 1201 1389 1056 1533 1056 1686 c 0
 1056 1807 1140 1881 1214 1881 c 0
 1268 1881 1302 1846 1302 1812 c 0
 1302 1803 1300 1793 1296 1785 c 1
 1293 1808 1271 1835 1231 1835 c 0
 1169 1835 1116 1771 1116 1693 c 0
 1116 1573 1228 1453 1396 1453 c 0
 1552 1453 1582 1541 1737 1541 c 0
 1900 1541 2018 1425 2018 1300 c 0
1596 1886 m 0
 1596 1739 1495 1635 1384 1635 c 0
 1316 1635 1264 1681 1264 1731 c 0
 1264 1763 1284 1779 1296 1785 c 1
 1291 1777 1289 1767 1289 1758 c 0
 1289 1731 1315 1688 1377 1688 c 0
 1448 1688 1535 1759 1535 1884 c 0
 1535 2035 1394 2175 1206 2181 c 0
 1194 2181 1182 2182 1170 2182 c 0
 870 2182 585 2055 384 1832 c 1
 343 1823 298 1804 262 1783 c 1
 473 2074 811 2246 1170 2246 c 0
 1286 2246 1395 2219 1486 2132 c 0
 1536 2085 1596 1997 1596 1886 c 0
1475 1877 m 0
 1475 1798 1421 1735 1360 1735 c 0
 1321 1735 1299 1760 1296 1785 c 1
 1301 1779 1315 1768 1335 1768 c 0
 1380 1768 1418 1811 1418 1871 c 0
 1418 1958 1335 2055 1195 2055 c 0
 1025 2055 867 1895 867 1685 c 0
 867 1610 880 1603 880 1548 c 0
 880 1400 778 1297 668 1297 c 0
 600 1297 547 1343 547 1393 c 0
 547 1425 567 1441 579 1447 c 1
 575 1439 573 1429 573 1420 c 0
 573 1393 599 1350 661 1350 c 0
 732 1350 818 1421 818 1546 c 0
 818 1572 803 1606 803 1685 c 0
 803 1928 987 2117 1195 2117 c 0
 1358 2117 1475 2002 1475 1877 c 0
1911 1281 m 0
 1911 1243 1885 1207 1847 1207 c 0
 1844 1207 1841 1208 1838 1208 c 1
 1850 1214 1870 1230 1870 1263 c 0
 1870 1308 1822 1359 1749 1359 c 0
 1644 1359 1537 1259 1537 1107 c 0
 1537 1009 1584 921 1648 861 c 0
 1698 814 1759 726 1759 615 c 0
 1759 467 1656 363 1547 363 c 0
 1479 363 1426 409 1426 459 c 0
 1426 492 1446 508 1458 514 c 1
 1453 506 1451 496 1451 487 c 0
 1451 460 1477 417 1539 417 c 0
 1610 417 1697 488 1697 613 c 0
 1697 689 1660 757 1616 803 c 0
 1551 861 1474 966 1474 1108 c 0
 1474 1285 1603 1417 1742 1417 c 0
 1838 1417 1911 1354 1911 1281 c 0
1368 1858 m 0
 1368 1820 1342 1784 1304 1784 c 0
 1301 1784 1298 1784 1296 1785 c 1
 1307 1791 1327 1807 1327 1839 c 0
 1327 1885 1279 1935 1207 1935 c 0
 1101 1935 995 1837 995 1684 c 0
 995 1629 1007 1622 1007 1547 c 0
 1007 1337 850 1177 680 1177 c 0
 545 1177 457 1270 457 1361 c 0
 457 1420 495 1464 539 1464 c 0
 559 1464 574 1453 579 1447 c 1
 576 1447 573 1448 570 1448 c 0
 532 1448 507 1412 507 1374 c 0
 507 1302 580 1238 675 1238 c 0
 816 1238 943 1371 943 1547 c 0
 943 1602 931 1629 931 1684 c 0
 931 1862 1060 1994 1199 1994 c 0
 1295 1994 1368 1930 1368 1858 c 0
1886 614 m 0
 1886 403 1728 244 1558 244 c 0
 1423 244 1335 336 1335 428 c 0
 1335 487 1373 531 1418 531 c 0
 1438 531 1452 519 1458 514 c 1
 1455 514 1452 515 1449 515 c 0
 1411 515 1385 479 1385 441 c 0
 1385 368 1458 305 1554 305 c 0
 1684 305 1822 427 1822 614 c 0
 1822 736 1763 845 1680 919 c 0
 1636 965 1599 1033 1599 1109 c 0
 1599 1231 1683 1305 1757 1305 c 0
 1811 1305 1845 1269 1845 1235 c 0
 1845 1226 1842 1216 1838 1208 c 1
 1835 1231 1814 1259 1774 1259 c 0
 1712 1259 1659 1195 1659 1116 c 0
 1659 1060 1682 1012 1711 977 c 1
 1817 888 1886 759 1886 614 c 0
2293 1123 m 1
 2293 752 2109 404 1802 195 c 0
 1739 152 1656 118 1558 118 c 0
 1363 118 1218 262 1218 415 c 0
 1218 536 1302 610 1376 610 c 0
 1430 610 1464 575 1464 540 c 0
 1464 531 1462 521 1458 514 c 1
 1455 537 1433 564 1393 564 c 0
 1332 564 1278 500 1278 422 c 0
 1278 302 1390 181 1558 181 c 0
 1639 181 1710 210 1763 246 c 0
 2012 415 2188 689 2223 1011 c 1
 2250 1043 2276 1084 2293 1123 c 1
1478 1331 m 1
 1427 1257 1410 1175 1410 1104 c 0
 1410 1020 1436 946 1463 895 c 1
 1430 905 1390 910 1353 910 c 0
 1229 910 1117 849 1044 774 c 1
 1039 921 946 1063 799 1135 c 1
 941 1187 1044 1322 1067 1480 c 1
 1129 1399 1244 1325 1398 1325 c 0
 1426 1325 1453 1327 1478 1331 c 1
1637 606 m 0
 1637 527 1584 463 1522 463 c 0
 1483 463 1461 489 1458 514 c 1
 1463 508 1477 497 1497 497 c 0
 1542 497 1580 540 1580 600 c 0
 1580 687 1497 784 1357 784 c 0
 1281 784 1143 743 1068 587 c 0
 1021 489 916 391 780 391 c 0
 645 391 557 484 557 575 c 0
 557 635 595 678 640 678 c 0
 660 678 674 667 679 661 c 1
 677 662 674 662 670 662 c 0
 632 662 607 626 607 588 c 0
 607 516 680 452 776 452 c 0
 867 452 956 511 1004 600 c 0
 1056 719 1181 846 1357 846 c 0
 1519 846 1637 731 1637 606 c 0
859 753 m 0
 859 675 805 611 744 611 c 0
 705 611 683 637 679 661 c 1
 685 655 699 644 719 644 c 0
 764 644 802 688 802 747 c 0
 802 818 746 897 646 923 c 1
 429 938 215 1102 215 1346 c 0
 215 1524 344 1656 483 1656 c 0
 578 1656 652 1592 652 1520 c 0
 652 1485 629 1446 588 1446 c 0
 585 1446 582 1446 579 1447 c 1
 591 1452 611 1469 611 1501 c 0
 611 1547 563 1597 490 1597 c 0
 385 1597 278 1498 278 1346 c 0
 278 1170 429 1009 638 989 c 0
 753 967 859 876 859 753 c 0
980 762 m 0
 980 614 878 511 768 511 c 0
 700 511 648 557 648 607 c 0
 648 640 668 656 679 661 c 1
 675 654 673 644 673 635 c 0
 673 607 699 565 761 565 c 0
 831 565 919 635 919 760 c 0
 919 901 797 1032 629 1054 c 0
 438 1080 340 1230 340 1348 c 0
 340 1469 423 1543 498 1543 c 0
 551 1543 586 1508 586 1474 c 0
 586 1464 583 1454 579 1447 c 1
 576 1470 555 1497 515 1497 c 0
 453 1497 400 1433 400 1355 c 0
 400 1242 495 1143 621 1120 c 0
 835 1099 980 932 980 762 c 0
759 1539 m 0
 759 1460 705 1397 644 1397 c 0
 605 1397 582 1422 579 1447 c 1
 585 1441 599 1430 619 1430 c 0
 664 1430 702 1473 702 1533 c 0
 702 1620 619 1717 479 1717 c 0
 386 1717 237 1659 175 1484 c 0
 137 1379 111 1257 111 1123 c 0
 111 938 160 755 253 595 c 1
 252 584 251 573 251 562 c 0
 251 528 255 494 262 463 c 1
 122 655 47 886 47 1123 c 0
 47 1307 97 1468 125 1533 c 0
 177 1652 302 1779 478 1779 c 0
 641 1779 759 1664 759 1539 c 0
1530 587 m 0
 1530 552 1507 513 1467 513 c 0
 1463 513 1460 513 1458 514 c 1
 1469 519 1489 535 1489 568 c 0
 1489 613 1442 664 1369 664 c 0
 1300 664 1237 624 1198 563 c 1
 1142 423 997 265 780 265 c 0
 585 265 440 410 440 562 c 0
 440 684 524 758 598 758 c 0
 652 758 686 723 686 688 c 0
 686 679 684 669 679 661 c 1
 676 684 655 712 615 712 c 0
 553 712 500 648 500 569 c 0
 500 443 619 329 780 329 c 0
 930 329 1069 427 1133 575 c 0
 1180 662 1268 723 1362 723 c 0
 1457 723 1530 659 1530 587 c 0
1517 55 m 1
 1405 19 1288 0 1170 0 c 0
 1037 0 755 25 483 235 c 0
 407 292 315 406 315 561 c 0
 315 741 447 870 583 870 c 0
 679 870 752 807 752 734 c 0
 752 700 729 660 688 660 c 0
 685 660 682 661 679 661 c 1
 691 667 711 683 711 716 c 0
 711 761 664 812 590 812 c 0
 485 812 378 712 378 560 c 0
 378 451 437 352 519 288 c 0
 664 175 888 64 1170 64 c 0
 1244 64 1317 72 1389 87 c 1
 1428 71 1475 59 1517 55 c 1
1371 1261 m 1
 1289 1265 1189 1291 1101 1357 c 1
 1072 1280 1016 1193 926 1130 c 1
 990 1078 1056 998 1088 893 c 1
 1156 937 1249 974 1356 974 c 2
 1363 974 l 1
 1352 1015 1346 1064 1346 1108 c 0
 1346 1162 1357 1220 1371 1261 c 1
EndSplineSet
EndChar
StartChar: less
Encoding: 60 60 28
Width: 2148
Flags: W
Fore
1516 1549 m 0
 1516 1359 1371 1185 1172 1185 c 0
 1021 1185 903 1299 903 1429 c 0
 903 1547 991 1607 1053 1607 c 0
 1111 1607 1147 1569 1147 1533 c 0
 1147 1499 1121 1491 1112 1491 c 1
 1115 1495 1116 1501 1116 1507 c 0
 1116 1533 1090 1550 1064 1550 c 0
 1012 1550 966 1502 966 1430 c 0
 966 1344 1047 1250 1173 1250 c 0
 1334 1250 1451 1394 1451 1550 c 0
 1451 1652 1411 1739 1346 1806 c 1
 1387 1790 1433 1768 1470 1745 c 1
 1497 1692 1516 1627 1516 1549 c 0
2108 1082 m 0
 2108 869 2022 665 1944 548 c 0
 1858 419 1716 294 1576 225 c 0
 1457 167 1303 132 1166 132 c 0
 972 132 787 211 681 283 c 0
 566 361 455 489 394 615 c 0
 381 652 373 696 373 739 c 0
 373 901 497 1039 651 1039 c 0
 781 1039 858 941 858 859 c 0
 858 782 807 739 760 739 c 0
 733 739 708 756 708 782 c 0
 708 788 709 793 712 798 c 1
 715 793 727 781 742 781 c 0
 774 781 799 816 799 851 c 0
 799 909 745 975 650 975 c 0
 542 975 439 876 439 738 c 0
 439 707 443 675 452 648 c 0
 507 532 609 413 714 340 c 0
 820 268 991 199 1166 199 c 0
 1293 199 1433 230 1543 283 c 0
 1673 346 1805 462 1887 582 c 0
 1966 699 2041 890 2041 1083 c 0
 2041 1226 2005 1385 1944 1509 c 0
 1873 1654 1743 1800 1609 1890 c 0
 1470 1982 1278 2046 1112 2056 c 0
 1085 2058 1071 2076 1071 2092 c 0
 1071 2108 1083 2123 1108 2123 c 0
 1177 2123 1431 2087 1642 1947 c 0
 1786 1852 1925 1697 2002 1543 c 0
 2068 1409 2108 1237 2108 1082 c 0
1785 858 m 0
 1785 721 1682 621 1574 621 c 0
 1475 621 1425 691 1425 745 c 0
 1425 783 1452 815 1482 815 c 0
 1497 815 1509 803 1512 798 c 1
 1503 798 1477 790 1477 756 c 0
 1477 717 1517 682 1571 682 c 0
 1637 682 1721 746 1721 860 c 0
 1721 989 1604 1104 1452 1104 c 0
 1253 1104 1135 940 1112 798 c 0
 1085 626 944 492 772 492 c 0
 621 492 503 606 503 736 c 0
 503 854 591 914 653 914 c 0
 711 914 747 876 747 840 c 0
 747 806 721 798 712 798 c 1
 715 803 716 808 716 814 c 0
 716 841 690 857 664 857 c 0
 612 857 566 809 566 737 c 0
 566 652 646 557 773 557 c 0
 933 557 1051 701 1051 857 c 0
 1051 992 979 1090 912 1144 c 0
 845 1199 773 1297 773 1432 c 0
 773 1594 897 1732 1051 1732 c 0
 1181 1732 1258 1634 1258 1552 c 0
 1258 1476 1208 1431 1160 1431 c 0
 1133 1431 1108 1449 1108 1475 c 0
 1108 1480 1109 1486 1112 1491 c 1
 1115 1486 1127 1474 1142 1474 c 0
 1174 1474 1199 1508 1199 1544 c 0
 1199 1602 1144 1668 1050 1668 c 0
 942 1668 839 1569 839 1430 c 0
 839 1246 1003 1119 1171 1119 c 0
 1302 1119 1322 1169 1453 1169 c 0
 1629 1169 1785 1035 1785 858 c 0
1976 1083 m 0
 1976 896 1899 716 1830 615 c 0
 1780 556 1692 492 1572 492 c 0
 1421 492 1303 606 1303 736 c 0
 1303 854 1391 914 1453 914 c 0
 1511 914 1547 876 1547 840 c 0
 1547 806 1521 798 1512 798 c 1
 1515 803 1516 808 1516 814 c 0
 1516 841 1490 857 1464 857 c 0
 1413 857 1366 809 1366 737 c 0
 1366 652 1446 557 1573 557 c 0
 1665 557 1734 606 1772 648 c 0
 1842 749 1909 914 1909 1083 c 0
 1909 1204 1880 1338 1829 1443 c 0
 1769 1569 1658 1696 1543 1775 c 0
 1429 1852 1245 1925 1058 1925 c 0
 921 1925 768 1891 648 1832 c 0
 508 1764 367 1639 280 1509 c 0
 196 1384 117 1179 117 975 c 0
 117 821 156 649 223 515 c 0
 227 508 228 500 228 493 c 0
 228 472 214 458 197 458 c 0
 186 458 174 465 165 482 c 0
 93 625 50 811 50 976 c 0
 50 1188 131 1405 222 1543 c 0
 314 1682 465 1816 615 1890 c 0
 744 1954 910 1992 1058 1992 c 0
 1265 1992 1463 1908 1576 1833 c 0
 1701 1749 1821 1612 1887 1476 c 0
 1943 1362 1976 1215 1976 1083 c 0
1667 437 m 1
 1633 410 1591 382 1553 361 c 1
 1340 372 1173 536 1173 739 c 0
 1173 902 1297 1039 1451 1039 c 0
 1581 1039 1658 941 1658 859 c 0
 1658 783 1608 739 1560 739 c 0
 1533 739 1508 756 1508 782 c 0
 1508 788 1509 793 1512 798 c 1
 1515 793 1527 781 1542 781 c 0
 1574 781 1599 815 1599 851 c 0
 1599 909 1545 975 1450 975 c 0
 1342 975 1239 876 1239 738 c 0
 1239 557 1397 426 1576 426 c 0
 1613 426 1650 433 1667 437 c 1
2068 508 m 0
 2068 500 2065 491 2059 482 c 0
 1962 334 1801 190 1642 111 c 0
 1504 41 1325 0 1165 0 c 0
 959 0 748 79 615 168 c 0
 481 257 351 404 280 548 c 0
 219 672 182 832 182 975 c 0
 182 1176 263 1367 337 1476 c 0
 418 1597 551 1712 681 1775 c 0
 791 1828 931 1859 1058 1859 c 0
 1076 1859 1094 1859 1112 1857 c 0
 1271 1830 1385 1700 1385 1551 c 0
 1385 1413 1282 1314 1174 1314 c 0
 1075 1314 1025 1383 1025 1438 c 0
 1025 1476 1052 1508 1082 1508 c 0
 1097 1508 1109 1496 1112 1491 c 1
 1103 1491 1077 1482 1077 1448 c 0
 1077 1410 1117 1375 1171 1375 c 0
 1237 1375 1321 1439 1321 1552 c 0
 1321 1687 1207 1771 1112 1791 c 1
 1094 1792 1076 1793 1058 1793 c 0
 942 1793 815 1765 714 1717 c 0
 593 1660 471 1554 395 1443 c 0
 320 1334 249 1156 249 975 c 0
 249 843 282 696 337 582 c 0
 403 446 523 310 648 226 c 0
 769 144 968 67 1166 67 c 0
 1314 67 1480 104 1609 168 c 0
 1758 242 1909 376 2001 515 c 0
 2011 531 2025 537 2037 537 c 0
 2054 537 2068 525 2068 508 c 0
985 858 m 0
 985 721 882 621 774 621 c 0
 675 621 625 691 625 745 c 0
 625 783 652 815 682 815 c 0
 697 815 709 803 712 798 c 1
 703 798 677 790 677 756 c 0
 677 717 717 682 771 682 c 0
 837 682 921 746 921 860 c 0
 921 989 804 1104 652 1104 c 0
 471 1104 357 966 322 844 c 1
 316 883 313 927 313 967 c 2
 313 981 l 1
 371 1070 486 1169 653 1169 c 0
 829 1169 985 1035 985 858 c 0
1171 1053 m 1
 1136 1053 1096 1059 1062 1068 c 1
 1079 1037 1094 1000 1103 966 c 1
 1121 996 1146 1028 1171 1053 c 1
EndSplineSet
EndChar
StartChar: equal
Encoding: 61 61 29
Width: 2280
Flags: W
Fore
1737 1759 m 0
 1737 1725 1728 1691 1711 1661 c 2
 1391 1107 l 1
 1342 1107 l 1
 1674 1682 l 2
 1688 1706 1695 1733 1695 1759 c 0
 1695 1844 1626 1913 1541 1913 c 0
 1456 1913 1387 1844 1387 1759 c 0
 1387 1733 1394 1706 1408 1682 c 2
 1529 1472 l 1
 1505 1430 l 1
 1371 1661 l 2
 1353 1692 1345 1726 1345 1759 c 0
 1345 1867 1433 1955 1541 1955 c 0
 1649 1955 1737 1867 1737 1759 c 0
2238 891 m 0
 2238 782 2151 694 2043 694 c 0
 1975 694 1909 730 1873 792 c 2
 1553 1346 l 1
 1577 1388 l 1
 1909 813 l 2
 1938 764 1989 736 2043 736 c 0
 2127 736 2196 805 2196 891 c 0
 2196 975 2127 1044 2042 1044 c 2
 1800 1044 l 1
 1776 1086 l 1
 2042 1086 l 2
 2150 1086 2238 999 2238 891 c 0
1703 1044 m 1
 998 1044 l 1
 974 1086 l 1
 1679 1086 l 1
 1703 1044 l 1
935 1759 m 0
 935 1726 927 1692 909 1661 c 2
 589 1107 l 1
 541 1107 l 1
 872 1682 l 2
 886 1706 893 1733 893 1759 c 0
 893 1844 824 1913 739 1913 c 0
 654 1913 585 1844 585 1759 c 0
 585 1733 592 1706 606 1682 c 2
 727 1472 l 1
 703 1430 l 1
 569 1661 l 2
 552 1691 543 1725 543 1759 c 0
 543 1867 631 1955 739 1955 c 0
 847 1955 935 1867 935 1759 c 0
1128 778 m 1
 1104 736 l 1
 751 1346 l 1
 775 1388 l 1
 1128 778 l 1
1342 1023 m 1
 990 413 l 1
 942 413 l 1
 1294 1023 l 1
 1342 1023 l 1
1838 196 m 0
 1838 88 1750 0 1642 0 c 0
 1572 0 1507 37 1472 98 c 2
 1152 652 l 1
 1176 694 l 1
 1508 119 l 2
 1536 71 1587 42 1642 42 c 0
 1727 42 1796 111 1796 196 c 0
 1796 281 1727 350 1642 350 c 2
 1399 350 l 1
 1375 392 l 1
 1642 392 l 2
 1750 392 1838 304 1838 196 c 0
901 1044 m 1
 238 1044 l 2
 153 1044 84 975 84 891 c 0
 84 805 153 736 237 736 c 0
 291 736 342 764 371 813 c 2
 492 1023 l 1
 541 1023 l 1
 407 792 l 2
 371 730 305 694 237 694 c 0
 129 694 42 782 42 891 c 0
 42 999 130 1086 238 1086 c 2
 877 1086 l 1
 901 1044 l 1
1302 350 m 1
 638 350 l 2
 553 350 484 281 484 196 c 0
 484 111 553 42 638 42 c 0
 693 42 744 71 772 119 c 2
 893 329 l 1
 942 329 l 1
 808 98 l 2
 773 37 708 0 638 0 c 0
 530 0 442 88 442 196 c 0
 442 304 530 392 638 392 c 2
 1278 392 l 1
 1302 350 l 1
EndSplineSet
EndChar
StartChar: greater
Encoding: 62 62 30
Width: 2175
Flags: W
Fore
1571 1566 m 0
 1571 1399 1436 1264 1269 1264 c 2
 891 1264 l 2
 881 1264 871 1264 861 1265 c 1
 873 1294 885 1315 897 1336 c 1
 1269 1336 l 2
 1396 1336 1499 1439 1499 1566 c 0
 1499 1694 1396 1797 1269 1797 c 0
 1226 1797 1186 1785 1151 1765 c 1
 1136 1784 1119 1802 1100 1818 c 1
 1149 1850 1208 1869 1269 1869 c 0
 1436 1869 1571 1733 1571 1566 c 0
1350 1376 m 1
 1328 1367 1303 1361 1277 1360 c 1
 1091 1682 l 2
 1056 1742 986 1797 891 1797 c 0
 764 1797 661 1694 661 1566 c 0
 661 1481 707 1406 776 1366 c 1
 765 1345 755 1323 746 1301 c 1
 652 1352 589 1452 589 1566 c 0
 589 1733 724 1869 891 1869 c 0
 941 1869 1075 1854 1154 1718 c 2
 1350 1376 l 1
1891 440 m 1
 1868 430 1843 424 1818 423 c 1
 1621 763 l 2
 1604 792 1585 820 1564 845 c 0
 1534 881 1500 914 1462 942 c 1
 1466 971 1467 999 1467 1027 c 1
 1523 990 1574 945 1617 894 c 0
 1637 869 1656 843 1674 816 c 2
 1883 454 l 2
 1886 449 1888 444 1891 440 c 1
2112 629 m 0
 2112 462 1976 327 1809 327 c 2
 1415 327 l 1
 1419 354 1427 379 1438 399 c 1
 1809 399 l 2
 1937 399 2040 502 2040 629 c 0
 2040 757 1937 860 1810 860 c 0
 1769 860 1729 849 1694 829 c 1
 1681 850 1667 869 1652 888 c 1
 1700 917 1754 932 1810 932 c 0
 1977 932 2112 796 2112 629 c 0
1066 1677 m 1
 870 1337 l 2
 823 1255 803 1179 794 1109 c 1
 768 1098 742 1085 718 1071 c 1
 723 1158 744 1253 798 1355 c 2
 1006 1718 l 2
 1009 1722 1012 1727 1015 1732 c 1
 1035 1717 1052 1698 1066 1677 c 1
1443 1028 m 0
 1443 817 1348 610 1173 474 c 1
 1148 485 1125 498 1102 512 c 1
 1270 629 1371 821 1371 1028 c 0
 1371 1114 1354 1188 1332 1246 c 1
 1356 1250 1379 1258 1401 1268 c 1
 1425 1201 1443 1119 1443 1028 c 0
1923 303 m 2
 1923 136 1788 0 1621 0 c 0
 1454 0 1318 136 1318 303 c 0
 1318 364 1336 415 1359 454 c 2
 1547 781 l 2
 1552 790 1558 798 1564 806 c 1
 1583 781 1595 761 1607 740 c 1
 1421 418 l 2
 1404 388 1390 349 1390 303 c 0
 1390 175 1493 72 1621 72 c 0
 1748 72 1851 175 1851 303 c 2
 1851 306 l 1
 1876 309 1900 315 1923 323 c 1
 1923 303 l 2
1347 1012 m 1
 1265 1051 1174 1072 1080 1072 c 0
 967 1072 838 1041 720 959 c 0
 673 926 632 889 596 845 c 1
 580 863 562 880 543 894 c 1
 593 953 650 1002 717 1043 c 0
 821 1106 945 1144 1080 1144 c 0
 1172 1144 1261 1126 1344 1092 c 1
 1346 1071 1347 1049 1347 1028 c 2
 1347 1012 l 1
1311 408 m 1
 1304 386 1299 363 1296 337 c 1
 1190 356 1080 402 987 474 c 0
 853 579 750 739 723 932 c 1
 745 947 767 962 791 974 c 1
 808 775 915 611 1058 512 c 0
 1127 463 1214 424 1311 408 c 1
1055 400 m 1
 944 345 834 327 745 327 c 2
 334 327 l 1
 337 352 344 376 356 399 c 1
 749 399 l 2
 814 399 897 411 984 447 c 1
 1006 430 1030 414 1055 400 c 1
815 427 m 1
 791 424 767 423 743 423 c 2
 736 423 l 1
 550 745 l 2
 515 806 445 860 350 860 c 0
 223 860 120 757 120 629 c 0
 120 540 171 466 238 428 c 1
 228 406 221 382 217 358 c 1
 124 404 48 504 48 629 c 0
 48 796 183 932 350 932 c 0
 461 932 559 874 613 781 c 2
 801 454 l 2
 806 445 811 436 815 427 c 1
842 303 m 2
 842 136 706 0 539 0 c 0
 372 0 237 136 237 303 c 0
 237 363 254 415 277 454 c 2
 474 795 l 1
 494 781 511 762 525 740 c 1
 339 418 l 2
 316 378 309 337 309 303 c 0
 309 175 412 72 539 72 c 0
 667 72 770 175 770 303 c 1
 794 304 818 306 842 310 c 1
 842 303 l 2
EndSplineSet
EndChar
StartChar: question
Encoding: 63 63 31
Width: 1200
Flags: W
Fore
1121 894 m 0
 1121 455 855 124 585 0 c 1
 314 125 49 457 49 894 c 0
 49 1144 105 1337 169 1485 c 0
 233 1632 391 1831 585 1900 c 1
 779 1831 937 1632 1001 1485 c 0
 1065 1337 1121 1144 1121 894 c 0
863 991 m 0
 863 1073 841 1198 790 1312 c 0
 741 1420 667 1540 618 1607 c 1
 671 1621 709 1669 709 1726 c 0
 709 1794 653 1850 585 1850 c 0
 517 1850 461 1794 461 1726 c 0
 461 1669 499 1621 552 1607 c 1
 503 1540 429 1420 380 1312 c 0
 329 1198 307 1073 307 991 c 0
 307 898 306 782 343 672 c 0
 394 520 486 377 585 272 c 1
 684 377 776 520 827 672 c 0
 864 782 863 898 863 991 c 0
689 1726 m 0
 689 1669 642 1622 585 1622 c 0
 528 1622 481 1669 481 1726 c 0
 481 1783 528 1830 585 1830 c 0
 642 1830 689 1783 689 1726 c 0
800 970 m 0
 800 922 753 895 753 766 c 0
 753 746 781 731 781 708 c 0
 781 660 749 606 717 556 c 0
 703 534 657 491 589 410 c 1
 557 424 529 448 520 474 c 0
 503 514 509 558 492 587 c 0
 463 636 393 654 393 711 c 0
 393 748 419 787 419 812 c 0
 419 850 377 888 377 942 c 0
 377 998 423 1054 423 1101 c 0
 423 1146 399 1184 397 1214 c 1
 402 1262 435 1318 472 1369 c 0
 520 1435 540 1444 589 1512 c 1
 668 1486 681 1382 705 1341 c 0
 730 1302 761 1265 772 1204 c 1
 772 1204 764 1123 764 1096 c 0
 764 1058 800 1034 800 970 c 0
717 970 m 1
 693 1014 657 1059 657 1101 c 0
 657 1124 673 1179 677 1189 c 1
 666 1211 641 1232 629 1261 c 0
 610 1298 605 1369 589 1403 c 1
 568 1367 554 1324 529 1293 c 0
 509 1271 489 1249 474 1221 c 1
 499 1178 510 1173 510 1085 c 0
 510 995 483 968 472 930 c 1
 494 898 520 854 520 812 c 0
 520 790 473 741 473 726 c 0
 473 714 534 663 548 629 c 0
 567 592 583 575 589 519 c 1
 609 555 632 577 658 606 c 1
 677 641 688 673 703 701 c 1
 678 744 667 734 667 802 c 0
 667 901 691 916 717 970 c 1
EndSplineSet
EndChar
StartChar: at
Encoding: 64 64 32
Width: 2421
Flags: W
Fore
2358 1236 m 0
 2358 825 2032 428 1714 184 c 0
 1587 90 1444 0 1306 0 c 1
 1366 329 1368 676 1456 1002 c 0
 1506 1191 1654 1400 1654 1599 c 0
 1654 1734 1566 1817 1493 1932 c 0
 1429 2030 1387 2149 1378 2268 c 1
 1478 2300 1516 2307 1637 2307 c 0
 2080 2307 2358 1809 2358 1236 c 0
1330 1746 m 0
 1330 1327 1242 929 1210 516 c 0
 1210 513 1207 511 1204 511 c 0
 1201 511 1198 513 1198 516 c 0
 1166 929 1078 1327 1078 1746 c 0
 1078 1919 1082 2154 1204 2292 c 1
 1326 2154 1330 1919 1330 1746 c 0
1102 0 m 1
 964 0 821 90 694 184 c 0
 376 428 50 825 50 1236 c 0
 50 1809 328 2307 771 2307 c 0
 892 2307 930 2300 1030 2268 c 1
 1021 2149 979 2030 915 1932 c 0
 842 1817 754 1734 754 1599 c 0
 754 1400 902 1191 952 1002 c 0
 1040 676 1042 329 1102 0 c 1
EndSplineSet
EndChar
StartChar: A
Encoding: 65 65 33
Width: 3900
Flags: W
Fore
3850 0 m 1
 3320 0 2890 430 2890 960 c 0
 2890 1490 3320 1920 3850 1920 c 1
 3508 1722 3296 1356 3296 960 c 0
 3296 564 3508 198 3850 0 c 1
2890 960 m 0
 2890 430 2460 0 1930 0 c 0
 1400 0 970 430 970 960 c 0
 970 1490 1400 1920 1930 1920 c 0
 2460 1920 2890 1490 2890 960 c 0
970 960 m 0
 970 430 540 0 10 0 c 1
 352 198 564 564 564 960 c 0
 564 1356 352 1722 10 1920 c 1
 540 1920 970 1490 970 960 c 0
EndSplineSet
EndChar
StartChar: B
Encoding: 66 66 34
Width: 3914
Flags: W
Fore
3874 0 m 1
 3800 0 l 2
 3344 0 2962 324 2872 754 c 1
 2782 324 2400 0 1944 0 c 0
 1488 0 1106 324 1016 754 c 1
 926 324 544 0 88 0 c 2
 14 0 l 1
 78 38 l 2
 404 226 604 574 604 948 c 0
 604 1322 404 1670 78 1858 c 2
 14 1896 l 1
 88 1896 l 2
 544 1896 926 1572 1016 1142 c 1
 1106 1572 1488 1896 1944 1896 c 0
 2400 1896 2782 1572 2872 1142 c 1
 2962 1572 3344 1896 3800 1896 c 2
 3874 1896 l 1
 3810 1858 l 2
 3484 1670 3284 1322 3284 948 c 0
 3284 574 3484 226 3810 38 c 2
 3874 0 l 1
3726 44 m 1
 3426 246 3244 584 3244 948 c 0
 3244 1312 3426 1650 3726 1852 c 1
 3260 1816 2892 1424 2892 948 c 0
 2892 472 3260 82 3726 44 c 1
2852 948 m 0
 2852 1449 2445 1856 1944 1856 c 0
 1443 1856 1036 1449 1036 948 c 0
 1036 447 1443 40 1944 40 c 0
 2445 40 2852 447 2852 948 c 0
996 948 m 0
 996 1424 628 1814 162 1852 c 1
 462 1650 644 1312 644 948 c 0
 644 584 462 246 162 44 c 1
 628 80 996 472 996 948 c 0
EndSplineSet
EndChar
StartChar: C
Encoding: 67 67 35
Width: 3900
Flags: W
Fore
3850 0 m 1
 3320 0 2890 430 2890 960 c 0
 2890 1490 3320 1920 3850 1920 c 1
 3508 1722 3296 1356 3296 960 c 0
 3296 564 3508 198 3850 0 c 1
2890 960 m 0
 2890 430 2460 0 1930 0 c 0
 1400 0 970 430 970 960 c 0
 970 1490 1400 1920 1930 1920 c 0
 2460 1920 2890 1490 2890 960 c 0
970 960 m 0
 970 430 540 0 10 0 c 1
 352 198 564 564 564 960 c 0
 564 1356 352 1722 10 1920 c 1
 540 1920 970 1490 970 960 c 0
2484 960 m 0
 2484 1356 2272 1722 1930 1920 c 1
 1588 1722 1376 1356 1376 960 c 0
 1376 564 1588 198 1930 0 c 1
 2272 198 2484 564 2484 960 c 0
EndSplineSet
EndChar
StartChar: D
Encoding: 68 68 36
Width: 2200
Flags: W
Fore
1840 1395 m 1
 1801 1421 1756 1444 1711 1463 c 1
 1711 1473 l 2
 1711 1660 1625 1843 1470 1962 c 1
 1673 1845 1814 1635 1840 1395 c 1
2170 750 m 1
 2129 1057 1867 1286 1559 1286 c 0
 1489 1286 1420 1274 1355 1251 c 1
 1302 1313 1224 1383 1118 1437 c 1
 1213 1478 1316 1500 1420 1500 c 0
 1834 1500 2170 1164 2170 750 c 1
1836 1197 m 1
 1779 828 1460 562 1095 562 c 0
 1053 562 1012 566 971 573 c 1
 966 605 963 637 963 670 c 0
 963 736 974 802 996 865 c 1
 1029 860 1062 857 1095 857 c 0
 1379 857 1591 1044 1671 1255 c 1
 1729 1244 1784 1225 1836 1197 c 1
1473 1012 m 1
 1397 950 1307 907 1207 888 c 1
 1120 1117 897 1286 631 1286 c 0
 598 1286 565 1283 532 1278 c 1
 513 1333 502 1391 499 1449 c 1
 586 1483 677 1500 770 1500 c 0
 1109 1500 1373 1279 1473 1012 c 1
720 1962 m 1
 582 1856 479 1682 479 1473 c 0
 479 1301 552 1128 694 1006 c 1
 665 924 650 837 650 750 c 0
 650 736 650 722 651 708 c 1
 462 847 345 1071 345 1312 c 0
 345 1606 512 1842 720 1962 c 1
1082 280 m 1
 1044 236 999 197 949 166 c 1
 767 312 670 531 670 750 c 0
 670 927 732 1095 841 1227 c 1
 921 1197 1008 1145 1082 1059 c 1
 993 950 943 814 943 670 c 0
 943 526 993 389 1082 280 c 1
1795 100 m 1
 1681 35 1551 0 1420 0 c 0
 1316 0 1213 22 1118 63 c 1
 1163 86 1204 112 1242 141 c 1
 1348 79 1456 54 1559 54 c 0
 1640 54 1720 70 1795 100 c 1
1516 668 m 1
 1473 285 1150 0 770 0 c 0
 639 0 509 35 395 100 c 1
 470 70 550 54 631 54 c 0
 942 54 1185 281 1236 556 c 1
 1335 574 1430 611 1516 668 c 1
332 1208 m 1
 162 1112 46 946 20 750 c 1
 20 992 137 1216 326 1354 c 1
 325 1340 325 1326 325 1312 c 0
 325 1278 327 1243 332 1208 c 1
EndSplineSet
EndChar
StartChar: E
Encoding: 69 69 37
Width: 2175
Flags: W
Fore
2160 531 m 0
 2160 289 1968 26 1657 26 c 0
 1438 26 1199 200 1199 481 c 0
 1199 685 1362 890 1606 890 c 0
 1785 890 1967 748 1967 533 c 0
 1967 377 1846 218 1659 218 c 0
 1533 218 1392 316 1392 478 c 0
 1392 581 1469 699 1603 699 c 0
 1695 699 1777 629 1777 536 c 0
 1777 460 1720 408 1662 408 c 0
 1616 408 1577 438 1577 481 c 0
 1577 505 1595 527 1617 527 c 0
 1644 527 1640 499 1655 514 c 1
 1659 517 1662 524 1662 532 c 0
 1662 548 1648 581 1601 581 c 0
 1557 581 1511 539 1511 477 c 0
 1511 402 1576 338 1660 338 c 0
 1768 338 1848 431 1848 534 c 0
 1848 671 1731 770 1604 770 c 0
 1431 770 1320 622 1320 480 c 0
 1320 278 1491 146 1658 146 c 0
 1887 146 2040 340 2040 532 c 0
 2040 791 1821 963 1607 963 c 0
 1331 963 1149 744 1129 523 c 0
 1105 256 889 0 563 0 c 0
 314 0 42 198 42 520 c 0
 42 747 222 993 513 993 c 0
 725 993 938 824 938 570 c 0
 938 382 790 193 565 193 c 0
 401 193 234 321 234 517 c 0
 234 675 360 800 511 800 c 0
 627 800 746 711 746 573 c 0
 746 475 672 384 568 384 c 0
 484 384 424 448 424 514 c 0
 424 572 465 613 510 613 c 0
 539 613 568 594 568 565 c 0
 568 545 554 532 538 532 c 0
 536 532 533 531 533 524 c 0
 533 514 544 500 566 500 c 0
 591 500 628 523 628 575 c 0
 628 629 578 681 509 681 c 0
 422 681 354 605 354 516 c 0
 354 397 456 313 566 313 c 0
 717 313 818 442 818 571 c 0
 818 754 663 872 512 872 c 0
 301 872 162 693 162 519 c 0
 162 279 365 120 564 120 c 0
 831 120 1011 346 1011 569 c 0
 1011 810 849 940 804 971 c 0
 674 1063 557 1228 557 1448 c 0
 557 1705 762 1985 1093 1985 c 0
 1338 1985 1582 1789 1582 1497 c 0
 1582 1285 1414 1056 1144 1056 c 0
 948 1056 750 1212 750 1446 c 0
 750 1618 885 1792 1091 1792 c 0
 1239 1792 1390 1677 1390 1500 c 0
 1390 1381 1299 1248 1146 1248 c 0
 1052 1248 942 1319 942 1443 c 0
 942 1521 999 1602 1088 1602 c 0
 1157 1602 1202 1549 1202 1502 c 0
 1202 1465 1177 1431 1141 1431 c 0
 1122 1431 1104 1444 1104 1464 c 0
 1104 1471 1116 1490 1095 1490 c 0
 1074 1490 1059 1468 1059 1443 c 0
 1059 1412 1088 1367 1148 1367 c 0
 1212 1367 1270 1424 1270 1501 c 0
 1270 1599 1185 1672 1090 1672 c 0
 961 1672 870 1562 870 1445 c 0
 870 1282 1010 1176 1145 1176 c 0
 1337 1176 1462 1340 1462 1498 c 0
 1462 1719 1275 1864 1092 1864 c 0
 843 1864 678 1654 678 1447 c 0
 678 1170 911 984 1143 984 c 0
 1345 984 1384 1083 1607 1083 c 0
 1872 1083 2160 872 2160 531 c 0
2136 531 m 0
 2136 848 1870 1059 1607 1059 c 0
 1389 1059 1352 960 1143 960 c 0
 908 960 654 1147 654 1447 c 0
 654 1667 830 1888 1092 1888 c 0
 1288 1888 1486 1733 1486 1498 c 0
 1486 1327 1351 1152 1145 1152 c 0
 997 1152 846 1267 846 1445 c 0
 846 1563 937 1696 1090 1696 c 0
 1184 1696 1294 1625 1294 1501 c 0
 1294 1424 1237 1343 1148 1343 c 0
 1079 1343 1035 1395 1035 1443 c 0
 1035 1479 1059 1514 1095 1514 c 0
 1125 1514 1140 1485 1128 1466 c 1
 1128 1464 l 2
 1128 1460 1132 1455 1141 1455 c 0
 1163 1455 1178 1477 1178 1502 c 0
 1178 1532 1148 1578 1088 1578 c 0
 1024 1578 966 1521 966 1443 c 0
 966 1345 1051 1272 1146 1272 c 0
 1275 1272 1366 1382 1366 1500 c 0
 1366 1663 1226 1768 1091 1768 c 0
 899 1768 774 1604 774 1446 c 0
 774 1226 961 1080 1144 1080 c 0
 1394 1080 1558 1292 1558 1497 c 0
 1558 1774 1325 1961 1093 1961 c 0
 787 1961 581 1703 581 1448 c 0
 581 1238 693 1079 818 991 c 0
 865 958 1035 822 1035 569 c 0
 1035 333 845 96 564 96 c 0
 351 96 138 265 138 519 c 0
 138 707 287 896 512 896 c 0
 676 896 842 768 842 571 c 0
 842 414 717 289 566 289 c 0
 450 289 330 378 330 516 c 0
 330 614 404 705 509 705 c 0
 593 705 652 641 652 575 c 0
 652 517 611 476 566 476 c 0
 538 476 509 495 509 524 c 0
 509 550 529 556 538 556 c 0
 543 556 544 561 544 565 c 0
 544 575 533 589 510 589 c 0
 485 589 448 565 448 514 c 0
 448 460 498 408 568 408 c 0
 654 408 722 484 722 573 c 0
 722 692 620 776 511 776 c 0
 360 776 258 647 258 517 c 0
 258 335 414 217 565 217 c 0
 776 217 914 396 914 570 c 0
 914 810 712 969 513 969 c 0
 245 969 66 743 66 520 c 0
 66 223 315 24 563 24 c 0
 873 24 1082 268 1105 525 c 0
 1126 756 1316 987 1607 987 c 0
 1835 987 2064 804 2064 532 c 0
 2064 328 1901 122 1658 122 c 0
 1478 122 1296 264 1296 480 c 0
 1296 635 1417 794 1604 794 c 0
 1731 794 1872 697 1872 534 c 0
 1872 432 1794 314 1660 314 c 0
 1568 314 1487 384 1487 477 c 0
 1487 553 1543 605 1601 605 c 0
 1647 605 1686 575 1686 532 c 0
 1686 489 1637 470 1621 501 c 1
 1621 501 1618 503 1617 503 c 0
 1609 503 1601 493 1601 481 c 0
 1601 467 1614 432 1662 432 c 0
 1706 432 1753 473 1753 536 c 0
 1753 611 1686 675 1603 675 c 0
 1495 675 1416 582 1416 478 c 0
 1416 338 1536 242 1659 242 c 0
 1832 242 1943 390 1943 533 c 0
 1943 734 1772 866 1606 866 c 0
 1376 866 1223 672 1223 481 c 0
 1223 221 1442 50 1657 50 c 0
 1943 50 2136 291 2136 531 c 0
EndSplineSet
EndChar
StartChar: F
Encoding: 70 70 38
Width: 2175
Flags: W
Fore
2136 508 m 0
 2136 204 1881 0 1627 0 c 0
 1311 0 1096 249 1073 512 c 0
 1052 738 867 963 583 963 c 0
 372 963 138 795 138 520 c 0
 138 322 296 122 532 122 c 0
 706 122 882 259 882 468 c 0
 882 617 766 770 586 770 c 0
 461 770 330 674 330 522 c 0
 330 421 407 314 530 314 c 0
 622 314 691 385 691 465 c 0
 691 533 641 581 589 581 c 0
 541 581 516 548 516 520 c 0
 516 499 531 485 542 485 c 0
 555 485 563 503 575 503 c 0
 586 503 601 489 601 469 c 0
 601 440 575 408 528 408 c 0
 476 408 425 457 425 524 c 0
 425 607 498 675 587 675 c 0
 701 675 786 576 786 466 c 0
 786 317 658 218 531 218 c 0
 351 218 235 372 235 521 c 0
 235 729 411 866 584 866 c 0
 821 866 979 667 979 469 c 0
 979 204 756 26 533 26 c 0
 239 26 42 273 42 519 c 0
 42 844 315 1059 583 1059 c 0
 804 1059 842 960 1047 960 c 0
 1275 960 1524 1141 1524 1435 c 0
 1524 1640 1362 1864 1098 1864 c 0
 908 1864 716 1714 716 1486 c 0
 716 1321 846 1152 1045 1152 c 0
 1186 1152 1332 1263 1332 1433 c 0
 1332 1550 1242 1672 1100 1672 c 0
 1003 1672 908 1598 908 1489 c 0
 908 1406 971 1343 1042 1343 c 0
 1107 1343 1143 1392 1143 1434 c 0
 1143 1472 1116 1489 1097 1489 c 0
 1082 1489 1069 1481 1069 1469 c 0
 1069 1462 1075 1459 1075 1451 c 0
 1075 1440 1062 1431 1047 1431 c 0
 1017 1431 1001 1464 1001 1490 c 0
 1001 1539 1048 1578 1102 1578 c 0
 1173 1578 1236 1515 1236 1431 c 0
 1236 1327 1146 1248 1044 1248 c 0
 903 1248 812 1370 812 1488 c 0
 812 1658 958 1768 1099 1768 c 0
 1298 1768 1428 1599 1428 1434 c 0
 1428 1207 1236 1056 1046 1056 c 0
 791 1056 620 1271 620 1485 c 0
 620 1769 858 1961 1097 1961 c 0
 1410 1961 1621 1698 1621 1436 c 0
 1621 1222 1507 1059 1379 969 c 0
 1333 936 1167 804 1167 557 c 0
 1167 337 1342 96 1626 96 c 0
 1832 96 2040 260 2040 507 c 0
 2040 688 1896 872 1678 872 c 0
 1521 872 1360 749 1360 559 c 0
 1360 426 1463 289 1624 289 c 0
 1733 289 1848 372 1848 504 c 0
 1848 596 1778 681 1681 681 c 0
 1604 681 1550 623 1550 563 c 0
 1550 505 1592 476 1626 476 c 0
 1661 476 1670 501 1670 513 c 0
 1670 537 1634 528 1634 552 c 0
 1634 574 1656 589 1680 589 c 0
 1708 589 1754 563 1754 502 c 0
 1754 442 1699 384 1622 384 c 0
 1529 384 1456 465 1456 561 c 0
 1456 686 1563 776 1679 776 c 0
 1840 776 1944 638 1944 505 c 0
 1944 316 1782 193 1625 193 c 0
 1407 193 1264 377 1264 558 c 0
 1264 805 1472 969 1677 969 c 0
 1952 969 2136 738 2136 508 c 0
1160 875 m 1
 1117 866 1065 862 1021 863 c 1
 1050 830 1080 788 1101 748 c 1
 1115 791 1137 837 1160 875 c 1
EndSplineSet
EndChar
StartChar: G
Encoding: 71 71 39
Width: 2100
Flags: W
Fore
1725 1791 m 1
 1604 1107 l 1
 1565 1174 l 1
 1661 1715 l 1
 1324 1592 l 1
 1299 1636 l 1
 1725 1791 l 1
1397 1435 m 1
 1324 1462 l 1
 1050 1937 l 1
 871 1627 l 1
 823 1644 l 1
 1050 2037 l 1
 1397 1435 l 1
2084 1169 m 1
 1552 723 l 1
 1565 799 l 1
 1986 1152 l 1
 1649 1274 l 1
 1658 1324 l 1
 2084 1169 l 1
1582 1352 m 1
 1573 1302 l 1
 1072 1485 l 1
 1145 1511 l 1
 1582 1352 l 1
1692 925 m 1
 1653 893 l 1
 1387 1354 l 1
 1460 1327 l 1
 1692 925 l 1
1248 1564 m 1
 747 1382 l 1
 786 1450 l 1
 1222 1608 l 1
 1248 1564 l 1
1583 984 m 1
 1502 527 l 1
 1451 527 l 1
 1544 1052 l 1
 1583 984 l 1
1028 1554 m 1
 955 1527 l 1
 439 1715 l 1
 502 1362 l 1
 454 1345 l 1
 375 1791 l 1
 1028 1554 l 1
1959 462 m 1
 1264 462 l 1
 1324 512 l 1
 1873 512 l 1
 1694 822 l 1
 1733 855 l 1
 1959 462 l 1
830 1556 m 1
 564 1095 l 1
 550 1172 l 1
 783 1574 l 1
 830 1556 l 1
1470 719 m 1
 1456 643 l 1
 1101 344 l 1
 1062 377 l 1
 1470 719 l 1
608 757 m 1
 549 807 l 1
 468 1265 l 1
 516 1282 l 1
 608 757 l 1
669 1407 m 1
 630 1340 l 1
 114 1152 l 1
 389 922 l 1
 363 878 l 1
 16 1169 l 1
 669 1407 l 1
1488 447 m 1
 1409 0 l 1
 877 447 l 1
 955 447 l 1
 1375 94 l 1
 1437 447 l 1
 1488 447 l 1
1200 512 m 1
 1140 462 l 1
 675 462 l 1
 667 512 l 1
 1200 512 l 1
859 527 m 1
 781 527 l 1
 426 826 l 1
 451 870 l 1
 859 527 l 1
1038 292 m 1
 691 0 l 1
 570 685 l 1
 630 635 l 1
 725 94 l 1
 999 325 l 1
 1038 292 l 1
594 462 m 1
 141 462 l 1
 488 1064 l 1
 502 987 l 1
 227 512 l 1
 585 512 l 1
 594 462 l 1
EndSplineSet
EndChar
StartChar: H
Encoding: 72 72 40
Width: 1478
Flags: W
Fore
1266 1686 m 1
 1244 1662 l 1
 1221 1679 1205 1686 1205 1717 c 0
 1205 1730 1210 1744 1210 1757 c 0
 1210 1805 1166 1803 1155 1822 c 1
 1156 1831 1165 1834 1174 1834 c 0
 1189 1834 1240 1821 1240 1770 c 0
 1240 1756 1235 1739 1235 1724 c 0
 1235 1699 1250 1696 1266 1686 c 1
1440 1544 m 0
 1440 1526 1430 1519 1421 1519 c 0
 1417 1519 1414 1520 1411 1520 c 0
 1401 1520 1381 1503 1362 1503 c 0
 1353 1503 1332 1508 1332 1530 c 0
 1332 1537 1337 1555 1337 1571 c 0
 1337 1586 1329 1594 1316 1600 c 1
 1337 1629 l 1
 1352 1614 1365 1610 1365 1574 c 0
 1365 1567 1364 1560 1364 1553 c 0
 1364 1545 1366 1535 1374 1531 c 1
 1403 1538 1398 1567 1420 1567 c 0
 1429 1567 1440 1559 1440 1544 c 0
809 2045 m 0
 809 1968 778 1905 739 1905 c 0
 700 1905 669 1968 669 2045 c 0
 669 2122 700 2185 739 2185 c 0
 778 2185 809 2122 809 2045 c 0
1329 1640 m 1
 1303 1604 l 1
 1299 1600 l 2
 1293 1595 1234 1514 1209 1480 c 0
 1197 1462 1181 1443 1162 1430 c 0
 1145 1420 1121 1414 1098 1414 c 0
 1093 1414 1089 1414 1085 1415 c 1
 1087 1422 1091 1444 1091 1463 c 0
 1091 1478 1089 1491 1086 1503 c 1
 1092 1503 1096 1502 1101 1502 c 0
 1105 1502 1109 1503 1113 1505 c 0
 1127 1511 1139 1527 1149 1538 c 0
 1167 1557 1186 1575 1205 1591 c 0
 1214 1599 1225 1608 1232 1618 c 0
 1241 1629 1241 1639 1244 1643 c 2
 1280 1681 l 1
 1281 1683 1282 1685 1284 1687 c 1
 1293 1683 1307 1672 1309 1664 c 1
 1319 1661 1325 1648 1329 1640 c 1
916 1823 m 0
 916 1819 913 1816 912 1812 c 0
 904 1778 886 1768 879 1766 c 0
 875 1765 871 1765 866 1761 c 1
 845 1801 813 1806 787 1814 c 0
 769 1819 749 1820 739 1820 c 0
 729 1820 709 1819 691 1814 c 0
 665 1806 633 1801 612 1761 c 1
 607 1765 603 1765 599 1766 c 0
 591 1769 574 1779 566 1812 c 0
 565 1816 562 1819 562 1823 c 0
 562 1833 575 1833 581 1836 c 1
 582 1841 582 1847 586 1851 c 0
 602 1872 691 1901 739 1901 c 0
 787 1901 876 1872 892 1851 c 0
 896 1847 896 1841 897 1836 c 1
 903 1833 916 1833 916 1823 c 0
827 1545 m 1
 812 1549 801 1556 801 1586 c 0
 801 1596 808 1614 821 1632 c 1
 819 1625 818 1618 818 1611 c 0
 818 1580 827 1569 827 1559 c 0
 827 1556 826 1553 826 1550 c 0
 826 1548 827 1546 827 1545 c 1
677 1586 m 0
 677 1556 666 1549 651 1545 c 1
 651 1546 652 1548 652 1550 c 0
 652 1553 651 1556 651 1559 c 0
 651 1569 660 1580 660 1611 c 0
 660 1618 659 1625 657 1632 c 1
 670 1614 677 1596 677 1586 c 0
1078 1463 m 0
 1078 1448 1074 1414 1068 1408 c 1
 1066 1408 1065 1407 1064 1407 c 0
 1053 1406 1040 1406 1031 1405 c 0
 983 1400 971 1401 931 1398 c 0
 917 1397 895 1395 883 1387 c 0
 874 1381 875 1363 869 1355 c 0
 864 1348 858 1340 851 1334 c 0
 842 1326 832 1317 830 1311 c 0
 825 1297 825 1282 820 1269 c 1
 827 1267 829 1262 829 1257 c 0
 829 1250 826 1242 826 1236 c 0
 826 1233 827 1231 828 1229 c 1
 806 1217 778 1207 739 1207 c 0
 700 1207 672 1217 650 1229 c 1
 651 1231 652 1233 652 1236 c 0
 652 1242 649 1250 649 1257 c 0
 649 1262 651 1267 658 1269 c 1
 653 1282 653 1297 648 1311 c 0
 646 1317 636 1326 627 1334 c 0
 620 1340 614 1348 609 1355 c 0
 603 1363 604 1381 595 1387 c 0
 583 1395 561 1397 547 1398 c 0
 507 1401 495 1400 447 1405 c 0
 438 1406 425 1406 414 1407 c 0
 413 1407 412 1408 410 1408 c 1
 404 1414 400 1448 400 1463 c 0
 400 1486 408 1511 411 1514 c 1
 432 1520 459 1520 481 1523 c 0
 511 1527 542 1535 572 1535 c 0
 596 1535 605 1530 622 1530 c 0
 643 1530 649 1531 653 1532 c 0
 675 1537 690 1552 690 1586 c 0
 690 1606 673 1637 651 1660 c 0
 639 1674 621 1693 621 1737 c 0
 621 1745 623 1771 656 1789 c 0
 666 1795 706 1807 739 1807 c 0
 772 1807 812 1795 822 1789 c 0
 855 1771 857 1745 857 1737 c 0
 857 1693 839 1674 827 1660 c 0
 805 1637 788 1606 788 1586 c 0
 788 1552 803 1537 825 1532 c 0
 829 1531 835 1530 856 1530 c 0
 873 1530 882 1535 906 1535 c 0
 936 1535 967 1527 997 1523 c 0
 1019 1520 1046 1520 1067 1514 c 1
 1070 1511 1078 1486 1078 1463 c 0
323 1822 m 1
 312 1803 268 1805 268 1757 c 0
 268 1744 273 1730 273 1717 c 0
 273 1684 256 1678 234 1662 c 1
 212 1686 l 1
 229 1698 243 1699 243 1724 c 0
 243 1739 238 1756 238 1770 c 0
 238 1822 290 1834 304 1834 c 0
 313 1834 322 1831 323 1822 c 1
393 1415 m 1
 389 1414 385 1414 380 1414 c 0
 357 1414 333 1420 316 1430 c 0
 297 1443 281 1462 269 1480 c 0
 245 1513 185 1596 175 1604 c 1
 149 1640 l 1
 153 1648 159 1661 169 1664 c 1
 171 1672 185 1683 194 1687 c 1
 196 1685 197 1683 198 1681 c 1
 234 1643 l 2
 236 1640 237 1636 238 1631 c 1
 242 1622 246 1615 273 1591 c 0
 292 1575 311 1557 329 1538 c 0
 339 1527 351 1511 365 1505 c 0
 369 1503 373 1502 377 1502 c 0
 382 1502 386 1503 392 1503 c 1
 389 1491 387 1478 387 1463 c 0
 387 1444 391 1422 393 1415 c 1
897 1128 m 1
 896 1123 895 1119 894 1114 c 0
 877 1037 882 969 852 874 c 2
 846 854 l 2
 839 832 825 749 739 749 c 0
 655 749 640 829 632 854 c 2
 626 874 l 2
 595 972 602 1041 581 1128 c 1
 624 1181 615 1163 637 1187 c 1
 637 1192 634 1198 634 1203 c 0
 634 1210 637 1215 641 1219 c 1
 669 1203 701 1194 739 1194 c 0
 777 1194 809 1203 837 1219 c 1
 841 1215 844 1210 844 1203 c 0
 844 1198 841 1192 841 1187 c 1
 863 1163 854 1181 897 1128 c 1
162 1600 m 1
 149 1594 141 1586 141 1571 c 0
 141 1555 146 1537 146 1530 c 0
 146 1508 125 1503 116 1503 c 0
 97 1503 77 1520 67 1520 c 0
 64 1520 61 1519 57 1519 c 0
 48 1519 38 1526 38 1544 c 0
 38 1559 49 1567 58 1567 c 0
 80 1567 75 1538 104 1531 c 1
 112 1535 114 1545 114 1553 c 0
 114 1560 113 1567 113 1574 c 0
 113 1582 114 1590 117 1598 c 1
 120 1612 132 1620 141 1629 c 1
 162 1600 l 1
1097 125 m 0
 1097 117 1095 109 1090 101 c 0
 1083 90 1070 82 1059 75 c 0
 1032 57 997 47 967 36 c 0
 947 29 874 13 852 11 c 0
 774 3 777 0 739 0 c 0
 701 0 704 3 626 11 c 0
 604 13 531 29 511 36 c 0
 481 47 446 57 419 75 c 0
 408 82 395 90 388 101 c 0
 383 109 381 117 381 125 c 0
 381 150 414 216 414 239 c 0
 414 248 408 253 408 262 c 0
 408 269 411 276 413 283 c 0
 420 307 433 331 442 355 c 0
 446 366 448 379 451 390 c 1
 447 396 443 404 443 413 c 0
 443 445 483 506 483 526 c 0
 483 537 475 548 475 560 c 0
 475 584 513 636 513 660 c 0
 513 670 509 678 509 687 c 0
 509 715 540 743 540 770 c 0
 540 786 522 786 522 806 c 0
 522 828 538 871 538 899 c 0
 538 923 523 927 523 943 c 0
 523 948 525 958 527 969 c 0
 531 1000 543 1036 556 1075 c 0
 558 1081 558 1086 558 1092 c 0
 558 1100 559 1108 569 1116 c 1
 588 1044 582 971 613 871 c 2
 619 850 l 2
 626 829 643 736 739 736 c 0
 835 736 852 829 859 850 c 2
 865 871 l 2
 896 971 890 1044 909 1116 c 1
 921 1107 920 1098 920 1088 c 0
 920 1084 920 1080 922 1075 c 0
 935 1036 947 1000 951 969 c 0
 953 958 954 948 954 943 c 0
 954 927 940 923 940 899 c 0
 940 871 956 828 956 806 c 0
 956 786 938 786 938 770 c 0
 938 743 969 715 969 687 c 0
 969 678 965 670 965 660 c 0
 965 636 1003 584 1003 560 c 0
 1003 548 995 537 995 526 c 0
 995 506 1035 445 1035 413 c 0
 1035 404 1030 396 1027 390 c 1
 1030 379 1032 366 1036 355 c 0
 1045 331 1058 307 1065 283 c 0
 1067 276 1070 269 1070 262 c 0
 1070 253 1064 248 1064 239 c 0
 1064 216 1097 150 1097 125 c 0
864 1827 m 0
 864 1835 857 1842 849 1842 c 0
 840 1842 833 1835 833 1827 c 0
 833 1818 840 1811 849 1811 c 0
 857 1811 864 1818 864 1827 c 0
756 1854 m 0
 756 1863 748 1871 739 1871 c 0
 730 1871 722 1863 722 1854 c 0
 722 1845 730 1837 739 1837 c 0
 748 1837 756 1845 756 1854 c 0
800 1725 m 0
 800 1733 789 1737 783 1737 c 0
 775 1737 763 1729 763 1722 c 0
 763 1716 772 1711 779 1711 c 0
 787 1711 800 1717 800 1725 c 0
645 1827 m 0
 645 1835 638 1842 629 1842 c 0
 621 1842 614 1835 614 1827 c 0
 614 1818 621 1811 629 1811 c 0
 638 1811 645 1818 645 1827 c 0
715 1722 m 0
 715 1729 703 1737 695 1737 c 0
 689 1737 678 1733 678 1725 c 0
 678 1717 691 1711 699 1711 c 0
 706 1711 715 1716 715 1722 c 0
764 1653 m 0
 764 1658 740 1660 739 1660 c 0
 738 1660 714 1658 714 1653 c 0
 714 1650 715 1649 717 1649 c 0
 723 1649 733 1653 739 1653 c 0
 745 1653 755 1649 761 1649 c 0
 763 1649 764 1650 764 1653 c 0
762 1639 m 0
 762 1643 760 1643 758 1643 c 0
 752 1643 745 1640 739 1640 c 0
 733 1640 726 1643 720 1643 c 0
 718 1643 716 1643 716 1639 c 0
 716 1635 738 1633 739 1633 c 0
 740 1633 762 1635 762 1639 c 0
872 1394 m 0
 872 1429 848 1465 807 1465 c 0
 770 1465 747 1432 747 1399 c 0
 747 1370 766 1329 818 1329 c 0
 858 1329 872 1370 872 1394 c 0
731 1399 m 0
 731 1432 708 1465 671 1465 c 0
 630 1465 606 1429 606 1394 c 0
 606 1370 620 1329 660 1329 c 0
 712 1329 731 1370 731 1399 c 0
857 1827 m 0
 857 1822 853 1819 849 1819 c 0
 844 1819 841 1822 841 1827 c 0
 841 1831 844 1835 849 1835 c 0
 853 1835 857 1831 857 1827 c 0
748 1854 m 0
 748 1849 744 1845 739 1845 c 0
 734 1845 730 1849 730 1854 c 0
 730 1859 734 1863 739 1863 c 0
 744 1863 748 1859 748 1854 c 0
787 1723 m 0
 787 1720 784 1718 781 1718 c 0
 778 1718 775 1720 775 1723 c 0
 775 1726 778 1729 781 1729 c 0
 784 1729 787 1726 787 1723 c 0
637 1827 m 0
 637 1822 634 1819 629 1819 c 0
 625 1819 621 1822 621 1827 c 0
 621 1831 625 1835 629 1835 c 0
 634 1835 637 1831 637 1827 c 0
703 1723 m 0
 703 1720 700 1718 697 1718 c 0
 694 1718 691 1720 691 1723 c 0
 691 1726 694 1729 697 1729 c 0
 700 1729 703 1726 703 1723 c 0
832 1399 m 0
 832 1394 828 1391 824 1391 c 0
 820 1391 816 1394 816 1399 c 0
 816 1403 820 1407 824 1407 c 0
 828 1407 832 1403 832 1399 c 0
662 1399 m 0
 662 1394 658 1391 654 1391 c 0
 650 1391 646 1394 646 1399 c 0
 646 1403 650 1407 654 1407 c 0
 658 1407 662 1403 662 1399 c 0
EndSplineSet
EndChar
StartChar: I
Encoding: 73 73 41
Width: 2048
Flags: W
Fore
1731 1707 m 1
 1532 1226 l 1
 1332 1308 l 1
 1250 1508 l 1
 1731 1707 l 1
798 1508 m 1
 716 1308 l 1
 516 1226 l 1
 317 1707 l 1
 798 1508 l 1
2024 1000 m 1
 1317 707 l 1
 1024 0 l 1
 731 707 l 1
 24 1000 l 1
 731 1293 l 1
 1024 2000 l 1
 1317 1293 l 1
 2024 1000 l 1
1731 293 m 1
 1250 492 l 1
 1332 692 l 1
 1532 774 l 1
 1731 293 l 1
798 492 m 1
 317 293 l 1
 516 774 l 1
 716 692 l 1
 798 492 l 1
1417 1000 m 0
 1417 1217 1241 1393 1024 1393 c 0
 807 1393 631 1217 631 1000 c 0
 631 783 807 607 1024 607 c 0
 1241 607 1417 783 1417 1000 c 0
EndSplineSet
EndChar
StartChar: J
Encoding: 74 74 42
Width: 1280
Flags: W
Fore
1205 2177 m 0
 1205 2044 1066 1869 992 1795 c 0
 909 1712 832 1670 785 1549 c 0
 768 1506 756 1459 756 1426 c 0
 756 1322 878 1275 888 1175 c 0
 890 1158 891 1140 891 1121 c 0
 891 878 808 615 783 376 c 0
 768 233 756 147 741 91 c 0
 731 60 709 16 680 6 c 1
 671 0 651 0 640 0 c 0
 629 0 609 0 600 6 c 1
 549 22 526 97 497 376 c 0
 471 624 426 703 395 1015 c 0
 392 1049 389 1086 389 1121 c 0
 389 1140 390 1158 392 1175 c 0
 402 1275 524 1322 524 1426 c 0
 524 1473 499 1579 428 1661 c 0
 359 1741 216 1828 117 2031 c 0
 97 2070 75 2123 75 2177 c 0
 75 2217 84 2263 104 2280 c 0
 124 2299 153 2307 183 2307 c 0
 256 2307 320 2264 324 2225 c 1
 318 2223 311 2219 300 2219 c 0
 280 2219 252 2236 210 2236 c 0
 176 2236 145 2222 145 2186 c 0
 145 2148 181 2075 263 1996 c 0
 290 1966 463 1826 518 1826 c 0
 585 1826 587 1921 587 1943 c 0
 587 2007 551 2018 551 2054 c 0
 551 2119 600 2152 640 2152 c 0
 680 2152 729 2119 729 2054 c 0
 729 2018 693 2007 693 1943 c 0
 693 1900 700 1826 762 1826 c 0
 819 1826 996 1971 1017 1996 c 0
 1098 2075 1135 2148 1135 2186 c 0
 1135 2222 1104 2236 1070 2236 c 0
 1028 2236 1000 2219 980 2219 c 0
 969 2219 962 2223 956 2225 c 1
 960 2265 1025 2307 1097 2307 c 0
 1127 2307 1156 2299 1176 2280 c 0
 1196 2263 1205 2217 1205 2177 c 0
758 1610 m 0
 758 1643 738 1666 714 1666 c 0
 688 1666 668 1641 668 1607 c 0
 668 1573 688 1553 712 1553 c 0
 740 1553 758 1578 758 1610 c 0
612 1607 m 0
 612 1641 592 1666 566 1666 c 0
 542 1666 522 1643 522 1610 c 0
 522 1578 540 1553 568 1553 c 0
 592 1553 612 1573 612 1607 c 0
838 1101 m 0
 838 1207 749 1288 648 1288 c 0
 531 1288 442 1191 442 1080 c 0
 442 937 568 856 661 856 c 0
 678 856 685 863 685 871 c 0
 685 909 601 870 524 956 c 0
 492 993 478 1036 478 1079 c 0
 478 1178 557 1252 647 1252 c 0
 735 1252 802 1182 802 1101 c 0
 802 1023 740 964 669 964 c 0
 601 964 549 1017 549 1079 c 0
 549 1137 595 1181 647 1181 c 0
 696 1181 731 1143 731 1101 c 0
 731 1063 701 1035 670 1035 c 0
 641 1035 620 1056 620 1079 c 0
 620 1096 633 1111 648 1111 c 0
 657 1111 664 1105 664 1097 c 0
 664 1094 662 1090 658 1090 c 0
 654 1090 652 1086 652 1083 c 0
 652 1075 659 1069 668 1069 c 0
 683 1069 696 1084 696 1101 c 0
 696 1124 675 1145 646 1145 c 0
 615 1145 585 1117 585 1079 c 0
 585 1037 620 999 669 999 c 0
 720 999 767 1043 767 1101 c 0
 767 1163 715 1216 647 1216 c 0
 574 1216 514 1155 514 1079 c 0
 514 995 584 928 669 928 c 0
 764 928 838 1007 838 1101 c 0
646 66 m 2
 646 791 l 2
 646 794 643 797 640 797 c 0
 637 797 634 794 634 791 c 2
 634 66 l 2
 634 63 637 60 640 60 c 0
 643 60 646 63 646 66 c 2
715 1592 m 0
 715 1590 714 1582 709 1582 c 0
 704 1582 704 1587 704 1590 c 0
 704 1595 706 1599 709 1599 c 0
 712 1599 715 1597 715 1592 c 0
576 1590 m 0
 576 1586 575 1582 571 1582 c 0
 566 1582 565 1590 565 1592 c 0
 565 1597 568 1599 571 1599 c 0
 574 1599 576 1595 576 1590 c 0
EndSplineSet
EndChar
StartChar: K
Encoding: 75 75 43
Width: 1280
Flags: W
Fore
1205 1827 m 0
 1205 1694 1066 1519 992 1445 c 0
 909 1362 832 1320 785 1199 c 0
 768 1156 756 1109 756 1076 c 0
 756 972 878 925 888 825 c 0
 890 808 891 790 891 771 c 0
 891 573 824 292 802 168 c 0
 786 80 696 0 640 0 c 0
 584 0 494 80 478 168 c 0
 454 300 389 572 389 771 c 0
 389 790 390 808 392 825 c 0
 402 925 524 972 524 1076 c 0
 524 1123 499 1229 428 1311 c 0
 359 1391 216 1478 117 1681 c 0
 97 1720 75 1773 75 1827 c 0
 75 1867 84 1913 104 1930 c 0
 124 1949 153 1957 183 1957 c 0
 256 1957 320 1914 324 1875 c 1
 318 1873 311 1869 300 1869 c 0
 280 1869 252 1886 210 1886 c 0
 176 1886 145 1872 145 1836 c 0
 145 1798 181 1725 263 1646 c 0
 290 1616 463 1476 518 1476 c 0
 585 1476 587 1571 587 1593 c 0
 587 1657 551 1668 551 1704 c 0
 551 1769 600 1802 640 1802 c 0
 680 1802 729 1769 729 1704 c 0
 729 1668 693 1657 693 1593 c 0
 693 1550 700 1476 762 1476 c 0
 819 1476 996 1621 1017 1646 c 0
 1098 1725 1135 1798 1135 1836 c 0
 1135 1872 1104 1886 1070 1886 c 0
 1028 1886 1000 1869 980 1869 c 0
 969 1869 962 1873 956 1875 c 1
 960 1915 1025 1957 1097 1957 c 0
 1127 1957 1156 1949 1176 1930 c 0
 1196 1913 1205 1867 1205 1827 c 0
758 1260 m 0
 758 1293 738 1316 714 1316 c 0
 688 1316 668 1291 668 1257 c 0
 668 1223 688 1203 712 1203 c 0
 740 1203 758 1228 758 1260 c 0
612 1257 m 0
 612 1291 592 1316 566 1316 c 0
 542 1316 522 1293 522 1260 c 0
 522 1228 540 1203 568 1203 c 0
 592 1203 612 1223 612 1257 c 0
838 751 m 0
 838 857 749 938 648 938 c 0
 531 938 442 841 442 730 c 0
 442 587 568 506 661 506 c 0
 678 506 685 513 685 521 c 0
 685 559 601 520 524 606 c 0
 492 643 478 686 478 729 c 0
 478 828 557 902 647 902 c 0
 735 902 802 832 802 751 c 0
 802 673 740 614 669 614 c 0
 601 614 549 667 549 729 c 0
 549 787 595 831 647 831 c 0
 696 831 731 793 731 751 c 0
 731 713 701 685 670 685 c 0
 641 685 620 706 620 729 c 0
 620 746 633 761 648 761 c 0
 657 761 664 755 664 747 c 0
 664 744 662 740 658 740 c 0
 654 740 652 736 652 733 c 0
 652 725 659 719 668 719 c 0
 683 719 696 734 696 751 c 0
 696 774 675 795 646 795 c 0
 615 795 585 767 585 729 c 0
 585 687 620 649 669 649 c 0
 720 649 767 693 767 751 c 0
 767 813 715 866 647 866 c 0
 574 866 514 805 514 729 c 0
 514 645 584 578 669 578 c 0
 764 578 838 657 838 751 c 0
646 66 m 2
 646 441 l 2
 646 444 643 447 640 447 c 0
 637 447 634 444 634 441 c 2
 634 66 l 2
 634 63 637 60 640 60 c 0
 643 60 646 63 646 66 c 2
715 1242 m 0
 715 1240 714 1232 709 1232 c 0
 704 1232 704 1237 704 1240 c 0
 704 1245 706 1249 709 1249 c 0
 712 1249 715 1247 715 1242 c 0
576 1240 m 0
 576 1236 575 1232 571 1232 c 0
 566 1232 565 1240 565 1242 c 0
 565 1247 568 1249 571 1249 c 0
 574 1249 576 1245 576 1240 c 0
EndSplineSet
EndChar
StartChar: L
Encoding: 76 76 44
Width: 1900
Flags: W
Fore
1620 1627 m 0
 1620 1558 1577 1495 1511 1471 c 1
 1425 1471 1355 1541 1355 1627 c 0
 1355 1713 1425 1783 1511 1783 c 1
 1577 1759 1620 1697 1620 1627 c 0
1194 1922 m 0
 1194 1786 1084 1676 948 1676 c 0
 812 1676 702 1786 702 1922 c 0
 702 2058 812 2168 948 2168 c 0
 1084 2168 1194 2058 1194 1922 c 0
1844 1108 m 0
 1844 1055 1833 1001 1811 952 c 1
 1725 952 1655 1022 1655 1108 c 0
 1655 1194 1725 1264 1811 1264 c 1
 1833 1215 1844 1162 1844 1108 c 0
1574 1318 m 1
 1575 1316 1574 1314 1573 1314 c 1
 1466 1252 l 2
 1465 1251 1463 1252 1462 1253 c 1
 1462 1255 1462 1256 1463 1257 c 2
 1570 1319 l 2
 1571 1320 1573 1319 1574 1318 c 1
1785 227 m 1
 1649 227 1539 337 1539 473 c 0
 1539 609 1649 719 1785 719 c 1
 1697 669 1643 575 1643 473 c 0
 1643 372 1697 278 1785 227 c 1
541 1627 m 0
 541 1541 471 1471 385 1471 c 1
 319 1495 276 1558 276 1627 c 0
 276 1697 319 1759 385 1783 c 1
 471 1783 541 1713 541 1627 c 0
1586 1069 m 1
 1365 883 l 1
 1509 632 l 1
 1220 632 l 1
 1170 347 l 1
 948 533 l 1
 726 347 l 1
 676 632 l 1
 387 632 l 1
 531 883 l 1
 310 1069 l 1
 582 1168 l 1
 531 1453 l 1
 803 1354 l 1
 948 1604 l 1
 1093 1354 l 1
 1365 1453 l 1
 1314 1168 l 1
 1586 1069 l 1
434 1253 m 1
 433 1252 431 1251 430 1252 c 2
 323 1314 l 1
 322 1314 321 1316 322 1318 c 1
 323 1319 325 1320 326 1319 c 2
 433 1257 l 2
 434 1256 434 1255 434 1253 c 1
1304 0 m 1
 1218 0 1148 70 1148 156 c 0
 1148 242 1218 312 1304 312 c 1
 1237 290 1191 227 1191 156 c 0
 1191 85 1237 22 1304 0 c 1
241 1108 m 0
 241 1022 171 952 85 952 c 1
 63 1001 52 1055 52 1108 c 0
 52 1162 63 1215 85 1264 c 1
 171 1264 241 1194 241 1108 c 0
748 156 m 0
 748 70 678 0 592 0 c 1
 659 22 705 85 705 156 c 0
 705 227 659 290 592 312 c 1
 678 312 748 242 748 156 c 0
357 473 m 0
 357 337 247 227 111 227 c 1
 199 278 253 372 253 473 c 0
 253 575 199 669 111 719 c 1
 247 719 357 609 357 473 c 0
951 236 m 2
 951 234 950 233 948 233 c 0
 946 233 945 234 945 236 c 2
 945 359 l 2
 945 361 946 362 948 362 c 0
 950 362 951 361 951 359 c 2
 951 236 l 2
1492 1052 m 1
 1260 1136 l 1
 1303 1379 l 1
 1071 1295 l 1
 948 1508 l 1
 825 1295 l 1
 593 1379 l 1
 636 1136 l 1
 404 1052 l 1
 593 894 l 1
 470 680 l 1
 716 680 l 1
 759 438 l 1
 948 596 l 1
 1137 438 l 1
 1180 680 l 1
 1426 680 l 1
 1303 894 l 1
 1492 1052 l 1
EndSplineSet
EndChar
StartChar: M
Encoding: 77 77 45
Width: 1553
Flags: W
Fore
1532 1388 m 0
 1532 1223 1478 1062 1377 932 c 1
 1254 1091 1074 1194 876 1218 c 1
 876 1557 l 1
 1074 1581 1254 1685 1377 1844 c 1
 1478 1713 1532 1553 1532 1388 c 0
687 1218 m 1
 489 1194 309 1091 186 932 c 1
 86 1062 32 1223 32 1388 c 0
 32 1553 86 1713 186 1844 c 1
 309 1685 489 1581 687 1557 c 1
 687 1218 l 1
857 38 m 2
 857 17 824 0 782 0 c 0
 740 0 707 17 707 38 c 2
 707 1641 l 2
 707 1662 740 1679 782 1679 c 0
 824 1679 857 1662 857 1641 c 2
 857 38 l 2
EndSplineSet
EndChar
StartChar: N
Encoding: 78 78 46
Width: 1300
Flags: W
Fore
1250 1400 m 0
 1250 1108 1038 858 750 808 c 1
 750 560 l 1
 1110 560 l 1
 1110 360 l 1
 750 360 l 1
 750 0 l 1
 550 0 l 1
 550 360 l 1
 190 360 l 1
 190 560 l 1
 550 560 l 1
 550 808 l 1
 262 858 50 1108 50 1400 c 0
 50 1732 318 2000 650 2000 c 0
 982 2000 1250 1732 1250 1400 c 0
1070 1400 m 0
 1070 1632 882 1820 650 1820 c 0
 418 1820 230 1632 230 1400 c 0
 230 1206 362 1038 550 992 c 1
 550 1070 l 1
 440 1084 376 1126 376 1224 c 0
 376 1302 424 1350 500 1350 c 0
 624 1350 636 1282 736 1282 c 0
 764 1282 786 1300 786 1310 c 0
 786 1316 780 1318 768 1318 c 0
 750 1318 740 1306 710 1306 c 0
 660 1306 610 1336 610 1396 c 0
 610 1436 632 1462 654 1462 c 0
 676 1462 660 1414 760 1414 c 0
 810 1414 840 1428 890 1428 c 0
 950 1428 986 1384 986 1336 c 0
 986 1236 890 1132 750 1070 c 1
 750 992 l 1
 938 1038 1070 1206 1070 1400 c 0
938 1584 m 0
 938 1544 892 1434 870 1434 c 0
 840 1434 810 1470 810 1500 c 0
 810 1520 830 1688 860 1688 c 0
 890 1688 938 1624 938 1584 c 0
808 1672 m 0
 808 1566 770 1454 720 1454 c 0
 670 1454 652 1506 652 1546 c 0
 652 1646 664 1746 702 1746 c 0
 730 1746 808 1722 808 1672 c 0
640 1682 m 0
 640 1626 614 1436 560 1436 c 0
 510 1436 490 1536 490 1636 c 0
 490 1686 566 1736 606 1736 c 0
 628 1736 640 1710 640 1682 c 0
482 1436 m 0
 482 1382 472 1366 450 1366 c 0
 390 1366 350 1472 350 1556 c 0
 350 1600 400 1632 440 1632 c 0
 470 1632 482 1526 482 1436 c 0
EndSplineSet
EndChar
StartChar: O
Encoding: 79 79 47
Width: 798
Flags: W
Fore
742 1963 m 1
 647 1963 570 2040 570 2135 c 0
 570 2230 647 2307 742 2307 c 1
 681 2272 643 2206 643 2135 c 0
 643 2064 681 1998 742 1963 c 1
570 2135 m 0
 570 2040 493 1963 398 1963 c 0
 303 1963 226 2040 226 2135 c 0
 226 2230 303 2307 398 2307 c 0
 493 2307 570 2230 570 2135 c 0
743 1826 m 0
 743 1815 742 1783 728 1769 c 1
 727 1756 720 1610 662 1610 c 0
 604 1610 598 1743 598 1745 c 0
 595 1774 586 1827 574 1827 c 0
 563 1827 551 1758 548 1728 c 0
 548 1725 543 1610 491 1610 c 0
 441 1610 435 1707 435 1711 c 0
 432 1737 425 1759 419 1759 c 0
 413 1759 399 1713 398 1694 c 0
 397 1684 386 1650 374 1630 c 1
 366 1656 365 1686 365 1696 c 0
 365 1705 376 1798 417 1798 c 0
 485 1798 462 1650 490 1650 c 0
 520 1650 501 1866 572 1866 c 0
 627 1866 633 1754 634 1748 c 0
 637 1713 650 1649 661 1649 c 0
 667 1649 683 1675 692 1774 c 1
 688 1780 686 1790 686 1801 c 0
 686 1821 692 1867 717 1867 c 0
 727 1867 743 1860 743 1826 c 0
226 2135 m 0
 226 2040 149 1963 54 1963 c 1
 115 1998 153 2064 153 2135 c 0
 153 2206 115 2272 54 2307 c 1
 149 2307 226 2230 226 2135 c 0
323 1773 m 1
 239 1712 l 1
 271 1613 l 1
 187 1674 l 1
 103 1613 l 1
 135 1712 l 1
 51 1773 l 1
 155 1773 l 1
 187 1872 l 1
 219 1773 l 1
 323 1773 l 1
735 953 m 0
 735 900 729 744 712 628 c 0
 671 472 627 424 618 313 c 1
 565 279 491 263 419 263 c 0
 324 263 233 286 209 309 c 1
 205 485 82 556 78 648 c 2
 66 929 l 2
 63 1007 60 1070 60 1130 c 0
 60 1138 77 1143 89 1143 c 0
 222 1143 180 984 207 945 c 1
 228 992 213 1232 222 1390 c 0
 231 1437 251 1453 277 1453 c 0
 303 1453 325 1437 333 1390 c 1
 341 1041 334 1008 345 1001 c 1
 356 1008 349 1061 357 1441 c 0
 359 1516 385 1549 413 1549 c 0
 441 1549 468 1516 469 1441 c 0
 477 1256 475 1021 485 1000 c 1
 496 1021 493 1256 502 1439 c 1
 510 1473 528 1491 553 1491 c 0
 579 1491 597 1473 605 1439 c 1
 621 1260 610 1023 620 946 c 1
 635 976 635 1134 635 1203 c 0
 638 1245 658 1269 685 1273 c 1
 711 1269 731 1245 734 1203 c 0
 734 1166 735 1131 735 953 c 0
746 108 m 1
 724 101 l 1
 724 95 723 89 721 83 c 1
 740 70 l 1
 729 48 l 1
 707 56 l 1
 704 51 699 47 694 43 c 1
 702 21 l 1
 680 10 l 1
 668 29 l 1
 665 28 662 28 659 27 c 1
 655 30 l 1
 662 38 l 1
 652 42 l 1
 662 49 l 1
 655 53 l 1
 679 57 698 78 698 104 c 0
 698 133 675 156 646 156 c 0
 632 156 619 150 609 141 c 1
 610 148 l 1
 600 147 l 1
 602 155 l 1
 592 155 l 1
 591 160 l 1
 593 162 596 164 598 166 c 1
 590 187 l 1
 612 198 l 1
 624 179 l 1
 631 181 637 182 643 182 c 1
 649 204 l 1
 674 200 l 1
 673 177 l 1
 679 175 684 172 690 169 c 1
 708 183 l 1
 725 166 l 1
 711 148 l 1
 714 142 717 137 719 131 c 1
 742 132 l 1
 746 108 l 1
641 34 m 1
 635 26 l 1
 639 24 l 1
 635 23 632 22 629 22 c 1
 623 0 l 1
 599 3 l 1
 599 26 l 1
 593 28 587 30 582 34 c 1
 564 19 l 1
 547 36 l 1
 560 54 l 1
 556 59 553 65 551 71 c 1
 528 69 l 1
 523 93 l 1
 545 100 l 1
 545 106 546 113 548 119 c 1
 528 131 l 1
 538 153 l 1
 560 146 l 1
 562 149 564 151 567 154 c 1
 567 149 l 1
 577 149 l 1
 576 141 l 1
 586 144 l 1
 585 136 l 1
 577 126 571 114 571 100 c 0
 571 70 595 48 623 48 c 0
 627 48 630 48 634 49 c 1
 641 45 l 1
 632 38 l 1
 641 34 l 1
499 185 m 0
 499 181 497 179 493 179 c 0
 492 179 490 179 488 180 c 1
 485 167 468 146 450 137 c 1
 467 120 l 1
 461 114 l 1
 448 127 l 1
 405 84 l 1
 392 91 l 1
 439 137 l 1
 435 140 l 1
 388 93 l 1
 376 100 l 1
 425 150 l 1
 412 163 l 1
 418 169 l 1
 435 152 l 1
 444 170 465 187 478 190 c 1
 477 192 477 194 477 195 c 0
 477 199 479 201 483 201 c 0
 491 201 499 191 499 185 c 0
384 74 m 1
 301 6 l 1
 295 4 289 0 279 0 c 0
 277 0 274 0 272 1 c 1
 272 16 278 22 282 29 c 1
 357 93 l 1
 369 85 l 1
 286 14 l 1
 286 13 287 12 288 13 c 2
 372 82 l 1
 384 74 l 1
255 102 m 2
 255 46 209 0 153 0 c 0
 97 0 51 46 51 102 c 0
 51 158 97 204 153 204 c 2
 156 204 l 1
 157 199 157 194 157 190 c 1
 153 190 l 2
 104 190 65 151 65 102 c 0
 65 53 104 14 153 14 c 0
 202 14 241 53 241 102 c 2
 241 106 l 1
 245 107 250 109 255 110 c 1
 255 102 l 2
233 102 m 2
 233 58 197 22 153 22 c 0
 109 22 73 58 73 102 c 0
 73 146 109 182 153 182 c 2
 158 182 l 1
 162 149 187 144 195 139 c 0
 203 133 197 102 222 102 c 0
 225 102 229 103 233 104 c 1
 233 102 l 2
EndSplineSet
EndChar
StartChar: P
Encoding: 80 80 48
Width: 1684
Flags: W
Fore
1455 1816 m 1
 1431 1790 l 1
 1407 1807 1389 1816 1389 1849 c 0
 1389 1863 1394 1878 1394 1892 c 0
 1394 1944 1346 1942 1335 1962 c 1
 1337 1971 1345 1975 1355 1975 c 0
 1372 1975 1427 1961 1427 1906 c 0
 1427 1891 1421 1873 1421 1857 c 0
 1421 1829 1438 1827 1455 1816 c 1
1642 1662 m 0
 1642 1644 1631 1636 1621 1636 c 0
 1617 1636 1614 1637 1611 1637 c 0
 1600 1637 1578 1618 1558 1618 c 0
 1549 1618 1526 1624 1526 1647 c 0
 1526 1656 1531 1675 1531 1692 c 0
 1531 1708 1522 1717 1508 1723 c 1
 1531 1755 l 1
 1546 1739 1561 1734 1561 1695 c 0
 1561 1688 1560 1680 1560 1673 c 0
 1560 1664 1562 1653 1570 1649 c 1
 1602 1657 1597 1688 1621 1688 c 0
 1630 1688 1642 1679 1642 1662 c 0
1523 1766 m 1
 1494 1727 l 1
 1492 1726 1491 1724 1490 1723 c 0
 1483 1718 1420 1630 1394 1594 c 0
 1380 1575 1363 1554 1342 1540 c 0
 1325 1529 1298 1523 1273 1523 c 2
 1259 1523 l 1
 1262 1532 1266 1555 1266 1575 c 0
 1266 1592 1264 1606 1261 1619 c 1
 1267 1619 1272 1618 1277 1618 c 0
 1281 1618 1286 1618 1290 1620 c 0
 1304 1628 1318 1644 1329 1656 c 0
 1348 1676 1369 1696 1389 1714 c 0
 1398 1722 1410 1732 1418 1742 c 0
 1428 1755 1427 1765 1431 1769 c 2
 1469 1811 l 1
 1470 1813 1472 1815 1474 1816 c 1
 1483 1813 1499 1800 1500 1792 c 1
 1511 1788 1518 1775 1523 1766 c 1
1036 2155 m 0
 1036 2073 969 2006 887 2006 c 0
 805 2006 738 2073 738 2155 c 0
 738 2237 805 2303 887 2303 c 0
 969 2303 1036 2237 1036 2155 c 0
1323 2279 m 1
 1299 2271 1211 2260 1136 2173 c 0
 1103 2135 1080 2062 1071 2021 c 0
 1069 2013 1068 2006 1068 2000 c 0
 1068 1982 1067 1964 1067 1955 c 0
 1067 1932 1052 1914 1024 1897 c 1
 1001 1940 967 1945 939 1953 c 0
 919 1959 897 1960 887 1960 c 0
 877 1960 855 1959 835 1953 c 0
 807 1945 773 1940 750 1897 c 1
 746 1899 707 1920 707 1955 c 0
 707 1964 706 1982 706 2000 c 0
 706 2006 705 2013 703 2021 c 0
 694 2062 671 2135 638 2173 c 0
 563 2260 475 2271 451 2279 c 1
 471 2287 502 2293 521 2293 c 0
 602 2293 635 2272 668 2245 c 0
 688 2230 722 2188 724 2174 c 1
 724 2155 l 2
 724 2065 797 1992 887 1992 c 0
 977 1992 1050 2065 1050 2155 c 2
 1050 2174 l 1
 1052 2188 1086 2230 1106 2245 c 0
 1139 2272 1172 2293 1253 2293 c 0
 1272 2293 1303 2287 1323 2279 c 1
982 1663 m 1
 965 1668 954 1675 954 1708 c 0
 954 1719 961 1738 975 1758 c 1
 973 1750 972 1743 972 1735 c 0
 972 1701 982 1690 982 1678 c 0
 982 1675 981 1672 981 1669 c 0
 981 1667 981 1665 982 1663 c 1
820 1708 m 0
 820 1675 809 1668 792 1663 c 1
 793 1665 793 1667 793 1669 c 0
 793 1672 792 1675 792 1678 c 0
 792 1690 802 1701 802 1735 c 0
 802 1743 801 1750 799 1758 c 1
 813 1738 820 1719 820 1708 c 0
1252 1575 m 0
 1252 1559 1248 1523 1241 1517 c 1
 1239 1516 1238 1516 1237 1516 c 0
 1225 1514 1211 1514 1201 1513 c 0
 1149 1508 1142 1509 1094 1505 c 0
 1078 1504 1055 1502 1042 1493 c 0
 1032 1487 1033 1468 1026 1459 c 0
 1021 1452 1015 1443 1007 1436 c 0
 998 1428 987 1418 985 1411 c 0
 979 1397 979 1381 974 1367 c 1
 982 1364 984 1359 984 1354 c 0
 984 1346 981 1338 981 1331 c 0
 981 1328 981 1325 983 1323 c 1
 960 1311 929 1300 887 1300 c 0
 845 1300 814 1311 791 1323 c 1
 793 1325 793 1328 793 1331 c 0
 793 1338 790 1346 790 1354 c 0
 790 1359 792 1364 800 1367 c 1
 795 1381 795 1397 789 1411 c 0
 787 1418 776 1428 767 1436 c 0
 759 1443 753 1452 748 1459 c 0
 741 1468 742 1487 732 1493 c 0
 719 1502 696 1504 680 1505 c 0
 632 1509 625 1508 573 1513 c 0
 563 1514 549 1514 537 1516 c 0
 536 1516 535 1516 533 1517 c 1
 526 1523 522 1559 522 1575 c 0
 522 1595 525 1610 529 1621 c 0
 531 1625 531 1628 534 1631 c 1
 556 1637 585 1637 609 1640 c 0
 642 1644 674 1653 708 1653 c 0
 733 1653 742 1648 761 1648 c 0
 784 1648 790 1649 794 1649 c 1
 818 1655 834 1671 834 1708 c 0
 834 1730 816 1763 793 1788 c 0
 779 1803 760 1823 760 1871 c 0
 760 1879 763 1907 798 1926 c 0
 808 1933 852 1946 887 1946 c 0
 922 1946 965 1933 976 1926 c 0
 1011 1907 1014 1879 1014 1871 c 0
 1014 1823 995 1803 981 1788 c 0
 958 1763 940 1730 940 1708 c 0
 940 1671 956 1655 980 1649 c 1
 984 1649 990 1648 1013 1648 c 0
 1032 1648 1041 1653 1066 1653 c 0
 1100 1653 1132 1644 1165 1640 c 0
 1189 1637 1218 1637 1240 1631 c 1
 1243 1628 1243 1625 1245 1621 c 0
 1249 1610 1252 1595 1252 1575 c 0
515 1523 m 1
 501 1523 l 2
 476 1523 449 1529 432 1540 c 0
 411 1554 394 1575 380 1594 c 0
 350 1635 290 1719 280 1727 c 1
 251 1766 l 1
 256 1775 263 1788 274 1792 c 1
 275 1800 291 1813 300 1816 c 1
 302 1815 304 1813 305 1811 c 1
 343 1769 l 2
 345 1766 346 1762 348 1756 c 0
 351 1747 356 1739 385 1714 c 0
 405 1696 426 1676 445 1656 c 0
 456 1644 470 1628 484 1620 c 0
 488 1618 493 1618 497 1618 c 0
 502 1618 507 1619 513 1619 c 1
 510 1606 508 1592 508 1575 c 0
 508 1555 512 1532 515 1523 c 1
351 1860 m 1
 308 1828 l 1
 306 1830 304 1830 301 1830 c 0
 287 1830 267 1809 263 1802 c 1
 256 1799 237 1780 237 1766 c 0
 237 1763 238 1760 240 1758 c 2
 269 1719 l 2
 270 1717 273 1716 284 1701 c 1
 292 1677 l 1
 196 1747 l 1
 100 1677 l 1
 137 1790 l 1
 41 1860 l 1
 159 1860 l 1
 196 1972 l 1
 233 1860 l 1
 351 1860 l 1
1057 1215 m 1
 1054 1200 l 2
 1036 1116 1041 1044 1009 941 c 2
 1002 920 l 2
 995 896 979 807 887 807 c 0
 796 807 780 892 772 920 c 2
 765 941 l 2
 732 1046 739 1121 717 1215 c 1
 763 1272 753 1253 777 1278 c 1
 777 1283 774 1290 774 1295 c 0
 774 1303 777 1308 782 1313 c 1
 812 1296 846 1286 887 1286 c 0
 928 1286 962 1296 992 1313 c 1
 997 1308 1000 1303 1000 1295 c 0
 1000 1290 997 1283 997 1278 c 1
 1021 1253 1011 1272 1057 1215 c 1
1273 134 m 0
 1273 126 1271 117 1265 109 c 0
 1257 97 1244 88 1232 81 c 0
 1202 61 1165 51 1133 39 c 0
 1111 31 1032 14 1009 12 c 0
 924 3 928 0 887 0 c 0
 846 0 850 3 765 12 c 0
 742 14 663 31 641 39 c 0
 609 51 572 61 542 81 c 0
 530 88 517 97 509 109 c 0
 503 117 501 126 501 134 c 0
 501 162 537 232 537 257 c 0
 537 267 531 272 531 282 c 0
 531 290 534 297 536 305 c 0
 543 331 558 356 567 382 c 0
 572 395 573 408 577 420 c 1
 573 427 568 435 568 445 c 0
 568 479 611 545 611 566 c 0
 611 578 603 590 603 603 c 0
 603 629 643 685 643 711 c 0
 643 721 640 730 640 740 c 0
 640 770 672 800 672 829 c 0
 672 846 654 847 654 868 c 0
 654 891 670 938 670 968 c 0
 670 994 655 998 655 1016 c 0
 655 1021 656 1032 658 1044 c 0
 663 1077 676 1116 690 1158 c 0
 692 1164 692 1169 692 1176 c 0
 692 1185 693 1193 704 1201 c 1
 725 1120 717 1049 751 938 c 2
 758 916 l 2
 766 892 784 793 887 793 c 0
 990 793 1008 892 1016 916 c 2
 1023 938 l 2
 1057 1049 1049 1120 1070 1201 c 1
 1083 1192 1082 1182 1082 1172 c 0
 1082 1168 1082 1163 1084 1158 c 0
 1098 1116 1111 1077 1116 1044 c 0
 1118 1032 1119 1021 1119 1016 c 0
 1119 998 1104 994 1104 968 c 0
 1104 938 1120 891 1120 868 c 0
 1120 847 1102 846 1102 829 c 0
 1102 800 1134 770 1134 740 c 0
 1134 730 1131 721 1131 711 c 0
 1131 685 1171 629 1171 603 c 0
 1171 590 1163 578 1163 566 c 0
 1163 545 1206 479 1206 445 c 0
 1206 435 1201 427 1197 420 c 1
 1201 408 1202 395 1207 382 c 0
 1216 356 1231 331 1238 305 c 0
 1240 297 1243 290 1243 282 c 0
 1243 272 1237 267 1237 257 c 0
 1237 232 1273 162 1273 134 c 0
955 1859 m 0
 955 1867 942 1873 935 1873 c 0
 927 1873 914 1863 914 1856 c 0
 914 1849 924 1843 931 1843 c 0
 941 1843 955 1850 955 1859 c 0
860 1856 m 0
 860 1863 847 1873 839 1873 c 0
 832 1873 819 1867 819 1859 c 0
 819 1850 833 1843 843 1843 c 0
 850 1843 860 1849 860 1856 c 0
915 1780 m 0
 915 1783 912 1783 910 1783 c 0
 903 1784 896 1787 887 1787 c 0
 878 1787 871 1784 864 1783 c 0
 862 1783 859 1783 859 1780 c 0
 859 1776 860 1775 863 1775 c 0
 869 1775 880 1779 887 1779 c 0
 894 1779 905 1775 911 1775 c 0
 914 1775 915 1776 915 1780 c 0
912 1764 m 0
 912 1768 911 1768 908 1768 c 0
 901 1768 893 1765 887 1765 c 0
 881 1765 872 1768 866 1768 c 0
 863 1768 862 1768 862 1764 c 0
 862 1759 886 1757 887 1757 c 0
 888 1757 912 1759 912 1764 c 0
1030 1501 m 0
 1030 1539 1005 1577 961 1577 c 0
 920 1577 895 1542 895 1506 c 0
 895 1475 916 1431 972 1431 c 0
 1015 1431 1030 1476 1030 1501 c 0
879 1506 m 0
 879 1542 854 1577 813 1577 c 0
 769 1577 744 1539 744 1501 c 0
 744 1476 759 1431 802 1431 c 0
 858 1431 879 1475 879 1506 c 0
940 1857 m 0
 940 1854 937 1851 934 1851 c 0
 930 1851 927 1854 927 1857 c 0
 927 1861 930 1864 934 1864 c 0
 937 1864 940 1861 940 1857 c 0
847 1857 m 0
 847 1854 844 1851 840 1851 c 0
 837 1851 834 1854 834 1857 c 0
 834 1861 837 1864 840 1864 c 0
 844 1864 847 1861 847 1857 c 0
987 1506 m 0
 987 1501 983 1498 979 1498 c 0
 974 1498 970 1502 970 1507 c 0
 970 1511 974 1515 978 1515 c 0
 983 1515 987 1511 987 1506 c 0
804 1507 m 0
 804 1502 800 1498 795 1498 c 0
 791 1498 787 1501 787 1506 c 0
 787 1511 791 1515 796 1515 c 0
 800 1515 804 1511 804 1507 c 0
EndSplineSet
EndChar
StartChar: Q
Encoding: 81 81 49
Width: 2761
Flags: W
Fore
2231 2167 m 1
 2021 1716 l 1
 2004 1734 1986 1750 1967 1763 c 1
 2121 2231 l 1
 2157 2214 2194 2194 2231 2167 c 1
2497 1889 m 1
 2139 1533 l 1
 2129 1556 2118 1578 2107 1599 c 1
 2418 1996 l 1
 2447 1962 2473 1927 2497 1889 c 1
2656 1511 m 1
 2198 1328 l 1
 2194 1352 2189 1376 2183 1399 c 1
 2615 1648 l 1
 2629 1607 2643 1563 2656 1511 c 1
1864 2303 m 1
 1834 1818 l 1
 1823 1820 1811 1820 1800 1820 c 0
 1789 1820 1777 1820 1766 1818 c 1
 1736 2303 l 1
 1758 2305 1787 2306 1800 2306 c 0
 1813 2306 1842 2305 1864 2303 c 1
2698 1153 m 0
 2698 1138 2698 1107 2697 1079 c 1
 2212 1117 l 1
 2212 1189 l 1
 2697 1227 l 1
 2698 1199 2698 1168 2698 1153 c 0
1633 1763 m 1
 1614 1750 1596 1734 1579 1716 c 1
 1369 2167 l 1
 1406 2194 1443 2214 1479 2231 c 1
 1633 1763 l 1
2656 795 m 1
 2643 743 2629 699 2615 658 c 1
 2183 907 l 1
 2189 930 2194 954 2198 978 c 1
 2656 795 l 1
1493 1599 m 1
 1482 1578 1471 1556 1461 1533 c 1
 1103 1889 l 1
 1127 1927 1153 1962 1182 1996 c 1
 1493 1599 l 1
2115 1379 m 0
 2115 1223 2000 1090 1845 1067 c 1
 1845 865 l 1
 2070 865 l 1
 2070 775 l 1
 1845 775 l 1
 1845 550 l 1
 1755 550 l 1
 1755 775 l 1
 1530 775 l 1
 1530 865 l 1
 1755 865 l 1
 1755 1067 l 1
 1600 1090 1485 1223 1485 1379 c 0
 1485 1553 1626 1694 1800 1694 c 0
 1974 1694 2115 1553 2115 1379 c 0
2497 417 m 1
 2473 379 2447 344 2418 310 c 1
 2107 707 l 1
 2118 727 2129 750 2139 773 c 1
 2497 417 l 1
1417 1399 m 1
 1411 1376 1406 1352 1402 1328 c 1
 944 1511 l 1
 957 1563 971 1607 985 1648 c 1
 1417 1399 l 1
2231 139 m 1
 2194 112 2157 92 2121 74 c 1
 1967 543 l 1
 1986 556 2004 572 2021 590 c 1
 2231 139 l 1
1388 1117 m 1
 903 1079 l 1
 902 1107 902 1138 902 1153 c 0
 902 1168 902 1199 903 1227 c 1
 1388 1189 l 1
 1388 1117 l 1
1864 3 m 1
 1842 1 1813 0 1800 0 c 0
 1787 0 1758 1 1736 3 c 1
 1766 488 l 1
 1777 486 1789 486 1800 486 c 0
 1811 486 1823 486 1834 488 c 1
 1864 3 l 1
1417 907 m 1
 985 658 l 1
 971 699 957 743 944 795 c 1
 1402 978 l 1
 1406 954 1411 930 1417 907 c 1
1493 707 m 1
 1182 310 l 1
 1153 344 1127 379 1103 417 c 1
 1461 773 l 1
 1471 750 1482 727 1493 707 c 1
1633 543 m 1
 1479 74 l 1
 1443 92 1406 112 1369 139 c 1
 1579 590 l 1
 1596 572 1614 556 1633 543 c 1
1138 123 m 1
 840 0 l 1
 806 83 l 1
 961 147 l 1
 626 287 l 1
 566 187 463 132 355 132 c 0
 181 132 40 273 40 447 c 0
 40 621 181 762 355 762 c 0
 529 762 670 621 670 447 c 0
 670 422 666 395 660 370 c 1
 997 231 l 1
 932 387 l 1
 1015 421 l 1
 1138 123 l 1
2025 1379 m 0
 2025 1503 1924 1604 1800 1604 c 0
 1676 1604 1575 1503 1575 1379 c 0
 1575 1255 1676 1154 1800 1154 c 0
 1924 1154 2025 1255 2025 1379 c 0
580 447 m 0
 580 571 479 672 355 672 c 0
 231 672 130 571 130 447 c 0
 130 323 231 222 355 222 c 0
 479 222 580 323 580 447 c 0
EndSplineSet
EndChar
StartChar: R
Encoding: 82 82 50
Width: 3914
Flags: W
Fore
3874 577 m 0
 3874 553 3858 529 3826 529 c 2
 3490 529 l 1
 3490 193 l 2
 3490 161 3466 145 3442 145 c 0
 3418 145 3394 161 3394 193 c 2
 3394 529 l 1
 3058 529 l 2
 3026 529 3010 553 3010 577 c 0
 3010 601 3026 625 3058 625 c 2
 3394 625 l 1
 3394 961 l 2
 3394 993 3418 1009 3442 1009 c 0
 3466 1009 3490 993 3490 961 c 2
 3490 625 l 1
 3826 625 l 2
 3858 625 3874 601 3874 577 c 0
2916 731 m 0
 2916 481 2808 203 2672 23 c 0
 2664 11 2650 5 2636 5 c 0
 2600 5 2582 47 2600 73 c 0
 2718 223 2820 505 2820 749 c 0
 2820 909 2794 1055 2668 1055 c 0
 2576 1055 2510 997 2510 877 c 0
 2510 831 2524 781 2550 739 c 0
 2564 717 2556 687 2534 673 c 0
 2514 661 2486 665 2470 689 c 0
 2434 751 2414 817 2414 879 c 0
 2414 1047 2518 1151 2678 1151 c 0
 2868 1151 2916 959 2916 731 c 0
2346 578 m 0
 2346 330 2209 101 1989 -15 c 1
 1769 101 1632 330 1632 578 c 0
 1632 826 1769 1055 1989 1171 c 1
 2209 1055 2346 826 2346 578 c 0
1518 139 m 2
 1518 65 1458 5 1384 5 c 2
 754 5 l 2
 680 5 620 65 620 139 c 2
 620 789 l 2
 620 863 680 923 754 923 c 2
 864 923 l 2
 885 923 902 940 902 961 c 2
 902 1101 l 2
 902 1131 926 1151 950 1151 c 0
 974 1151 998 1131 998 1101 c 2
 998 961 l 2
 998 887 938 827 864 827 c 2
 754 827 l 2
 733 827 716 810 716 789 c 2
 716 139 l 2
 716 118 733 101 754 101 c 2
 1384 101 l 2
 1405 101 1422 118 1422 139 c 2
 1422 789 l 2
 1422 810 1405 827 1384 827 c 2
 1276 827 l 2
 1202 827 1142 887 1142 961 c 2
 1142 1101 l 2
 1142 1131 1166 1151 1190 1151 c 0
 1214 1151 1238 1131 1238 1101 c 2
 1238 961 l 2
 1238 940 1255 923 1276 923 c 2
 1384 923 l 2
 1458 923 1518 863 1518 789 c 2
 1518 139 l 2
516 731 m 0
 516 481 408 203 272 23 c 0
 264 11 250 5 236 5 c 0
 200 5 182 47 200 73 c 0
 318 223 420 505 420 749 c 0
 420 909 394 1055 268 1055 c 0
 176 1055 110 997 110 877 c 0
 110 831 124 781 150 739 c 0
 164 717 156 687 134 673 c 0
 114 661 86 665 70 689 c 0
 34 751 14 817 14 879 c 0
 14 1047 118 1151 278 1151 c 0
 468 1151 516 959 516 731 c 0
2250 578 m 0
 2250 773 2153 954 1989 1059 c 1
 1825 954 1728 773 1728 578 c 0
 1728 383 1825 202 1989 97 c 1
 2153 202 2250 383 2250 578 c 0
2072 578 m 0
 2072 532 2035 495 1989 495 c 0
 1943 495 1906 532 1906 578 c 0
 1906 624 1943 661 1989 661 c 0
 2035 661 2072 624 2072 578 c 0
EndSplineSet
EndChar
StartChar: S
Encoding: 83 83 51
Width: 3914
Flags: W
Fore
3874 879 m 0
 3874 817 3854 751 3818 689 c 0
 3802 665 3774 661 3754 673 c 0
 3732 687 3724 717 3738 739 c 0
 3764 781 3778 831 3778 877 c 0
 3778 997 3712 1055 3620 1055 c 0
 3494 1055 3468 909 3468 749 c 0
 3468 505 3570 223 3688 73 c 0
 3706 47 3692 5 3652 5 c 0
 3638 5 3624 11 3616 23 c 0
 3480 203 3372 481 3372 731 c 0
 3372 959 3420 1151 3610 1151 c 0
 3770 1151 3874 1047 3874 879 c 0
3268 139 m 2
 3268 65 3208 5 3134 5 c 2
 2504 5 l 2
 2430 5 2370 65 2370 139 c 2
 2370 911 l 2
 2370 937 2392 959 2418 959 c 0
 2444 959 2466 937 2466 911 c 2
 2466 139 l 2
 2466 118 2483 101 2504 101 c 2
 3134 101 l 2
 3155 101 3172 118 3172 139 c 2
 3172 1017 l 2
 3172 1038 3155 1055 3134 1055 c 2
 2398 1055 l 2
 2372 1055 2350 1077 2350 1103 c 0
 2350 1129 2372 1151 2398 1151 c 2
 3134 1151 l 2
 3208 1151 3268 1091 3268 1017 c 2
 3268 139 l 2
2260 577 m 0
 2260 329 2122 101 1902 -15 c 1
 1682 101 1544 329 1544 577 c 0
 1544 825 1682 1055 1902 1171 c 1
 2122 1055 2260 825 2260 577 c 0
1474 879 m 0
 1474 817 1454 751 1418 689 c 0
 1402 665 1374 661 1354 673 c 0
 1332 687 1324 717 1338 739 c 0
 1364 781 1378 831 1378 877 c 0
 1378 997 1312 1055 1220 1055 c 0
 1094 1055 1068 909 1068 749 c 0
 1068 505 1170 223 1288 73 c 0
 1306 47 1292 5 1252 5 c 0
 1238 5 1224 11 1216 23 c 0
 1080 203 972 481 972 731 c 0
 972 959 1020 1151 1210 1151 c 0
 1370 1151 1474 1047 1474 879 c 0
878 577 m 0
 878 553 862 529 830 529 c 2
 494 529 l 1
 494 193 l 2
 494 161 470 145 446 145 c 0
 422 145 398 161 398 193 c 2
 398 529 l 1
 62 529 l 2
 30 529 14 553 14 577 c 0
 14 601 30 625 62 625 c 2
 398 625 l 1
 398 961 l 2
 398 993 422 1009 446 1009 c 0
 470 1009 494 993 494 961 c 2
 494 625 l 1
 830 625 l 2
 862 625 878 601 878 577 c 0
2164 577 m 0
 2164 649 2152 719 2126 785 c 1
 2062 735 2024 659 2024 577 c 0
 2024 497 2062 421 2126 371 c 1
 2152 437 2164 507 2164 577 c 0
2082 283 m 1
 1986 349 1928 459 1928 577 c 0
 1928 695 1986 805 2082 873 c 1
 2038 949 1976 1013 1902 1061 c 1
 1738 955 1640 773 1640 577 c 0
 1640 383 1738 201 1902 95 c 1
 1976 143 2038 207 2082 283 c 1
EndSplineSet
EndChar
StartChar: T
Encoding: 84 84 52
Width: 2000
Flags: W
Fore
1929 1221 m 1
 992 0 l 1
 55 1221 l 1
 1929 1221 l 1
1783 1149 m 1
 201 1149 l 1
 956 165 l 1
 956 779 l 1
 1028 779 l 1
 1028 165 l 1
 1783 1149 l 1
EndSplineSet
EndChar
StartChar: U
Encoding: 85 85 53
Width: 1500
Flags: W
Fore
1472 1130 m 0
 1472 654 1213 215 796 -14 c 1
 379 215 120 654 120 1130 c 0
 120 1606 379 2045 796 2274 c 1
 1213 2045 1472 1606 1472 1130 c 0
1380 1130 m 0
 1380 1556 1158 1949 796 2168 c 1
 434 1949 212 1556 212 1130 c 0
 212 704 434 311 796 92 c 1
 1158 311 1380 704 1380 1130 c 0
EndSplineSet
EndChar
StartChar: V
Encoding: 86 86 54
Width: 1336
Flags: W
Fore
1276 1004 m 0
 1276 582 1046 192 668 -14 c 1
 290 192 60 582 60 1004 c 0
 60 1426 290 1816 668 2022 c 1
 1046 1816 1276 1426 1276 1004 c 0
1156 1004 m 0
 1156 1363 970 1695 668 1883 c 1
 366 1695 180 1363 180 1004 c 0
 180 645 366 313 668 125 c 1
 970 313 1156 645 1156 1004 c 0
728 486 m 2
 728 453 701 426 668 426 c 0
 635 426 608 453 608 486 c 2
 608 1522 l 2
 608 1555 635 1582 668 1582 c 0
 701 1582 728 1555 728 1522 c 2
 728 486 l 2
EndSplineSet
EndChar
StartChar: W
Encoding: 87 87 55
Width: 1594
Flags: W
Fore
1510 1456 m 0
 1510 1328 1476 1203 1412 1092 c 2
 782 0 l 1
 152 1092 l 2
 88 1203 54 1328 54 1456 c 0
 54 1858 380 2184 782 2184 c 0
 1184 2184 1510 1858 1510 1456 c 0
1454 1456 m 0
 1454 1827 1153 2128 782 2128 c 0
 411 2128 110 1827 110 1456 c 0
 110 1338 141 1222 200 1120 c 2
 754 160 l 1
 754 931 l 1
 810 931 l 1
 810 160 l 1
 1364 1120 l 2
 1423 1222 1454 1338 1454 1456 c 0
EndSplineSet
EndChar
StartChar: X
Encoding: 88 88 56
Width: 1112
Flags: W
Fore
1012 1008 m 0
 1012 607 834 257 572 17 c 2
 554 0 l 1
 536 17 l 2
 274 257 96 607 96 1008 c 0
 96 1408 273 1735 538 1927 c 0
 543 1930 549 1932 554 1932 c 0
 559 1932 565 1930 570 1927 c 0
 835 1735 1012 1408 1012 1008 c 0
958 1008 m 0
 958 1384 796 1689 554 1871 c 1
 312 1689 150 1384 150 1008 c 0
 150 633 312 304 554 74 c 1
 796 304 958 633 958 1008 c 0
837 976 m 0
 837 712 734 474 574 297 c 2
 554 274 l 1
 534 297 l 2
 374 474 271 712 271 976 c 0
 271 1244 376 1465 536 1609 c 0
 541 1614 548 1617 554 1617 c 0
 560 1617 567 1614 572 1609 c 0
 732 1465 837 1244 837 976 c 0
783 976 m 0
 783 1219 692 1419 554 1552 c 1
 416 1419 325 1219 325 976 c 0
 325 737 414 522 554 356 c 1
 694 522 783 737 783 976 c 0
EndSplineSet
EndChar
StartChar: Y
Encoding: 89 89 57
Width: 2250
Flags: W
Fore
2175 1467 m 0
 2175 1162 2007 851 1639 485 c 0
 1477 323 1181 70 1102 0 c 1
 1023 70 727 323 565 485 c 0
 197 851 29 1162 29 1467 c 0
 29 1826 272 2091 636 2091 c 0
 824 2091 976 2019 1102 1930 c 1
 1228 2019 1380 2091 1568 2091 c 0
 1932 2091 2175 1826 2175 1467 c 0
1217 1751 m 1
 1181 1788 1143 1823 1102 1853 c 1
 1061 1823 1023 1788 987 1751 c 1
 1018 1724 1059 1708 1102 1708 c 0
 1145 1708 1186 1724 1217 1751 c 1
2127 1467 m 0
 2127 1800 1906 2043 1568 2043 c 0
 1398 2043 1261 1981 1143 1900 c 1
 1392 1707 1557 1389 1557 1004 c 0
 1557 728 1472 476 1334 267 c 1
 1670 567 2127 987 2127 1467 c 0
1391 922 m 0
 1391 1217 1276 1459 1102 1616 c 1
 928 1459 813 1217 813 922 c 0
 813 631 926 370 1102 174 c 1
 1278 370 1391 631 1391 922 c 0
1061 1900 m 1
 943 1981 806 2043 636 2043 c 0
 298 2043 77 1800 77 1467 c 0
 77 987 534 567 870 267 c 1
 732 476 647 728 647 1004 c 0
 647 1389 812 1707 1061 1900 c 1
EndSplineSet
EndChar
StartChar: Z
Encoding: 90 90 58
Width: 2490
Flags: W
Fore
2457 644 m 0
 2457 294 2175 29 1852 29 c 0
 1532 29 1289 286 1289 580 c 0
 1289 685 1322 795 1391 889 c 0
 1395 896 1398 903 1398 910 c 0
 1398 930 1382 945 1362 945 c 0
 1343 945 1334 931 1328 923 c 0
 1273 846 1232 749 1221 636 c 0
 1196 363 977 106 653 106 c 0
 356 106 126 344 126 623 c 0
 126 891 340 1098 589 1098 c 0
 830 1098 1012 906 1012 687 c 0
 1012 476 845 317 655 317 c 0
 474 317 337 459 337 621 c 0
 337 776 458 887 588 887 c 0
 712 887 802 791 802 689 c 0
 802 592 729 526 655 526 c 0
 594 526 545 569 545 623 c 0
 545 653 566 682 591 682 c 2
 593 682 l 1
 578 672 567 655 567 632 c 0
 567 596 599 557 652 557 c 0
 713 557 769 613 769 686 c 0
 769 774 693 853 588 853 c 0
 475 853 371 757 371 620 c 0
 371 481 489 351 656 351 c 0
 825 351 977 494 977 688 c 0
 977 889 809 1063 588 1063 c 0
 356 1063 161 869 161 622 c 0
 161 356 382 141 654 141 c 0
 952 141 1188 389 1188 686 c 0
 1188 931 1044 1090 941 1162 c 0
 785 1272 691 1445 691 1640 c 0
 691 1948 938 2185 1226 2185 c 0
 1511 2185 1718 1956 1718 1704 c 0
 1718 1453 1518 1264 1290 1264 c 0
 1069 1264 902 1439 902 1639 c 0
 902 1830 1052 1974 1224 1974 c 0
 1389 1974 1507 1845 1507 1706 c 0
 1507 1571 1403 1474 1292 1474 c 0
 1186 1474 1112 1554 1112 1638 c 0
 1112 1715 1171 1765 1226 1765 c 0
 1264 1765 1300 1738 1300 1703 c 0
 1300 1691 1296 1685 1295 1683 c 1
 1294 1712 1269 1739 1231 1739 c 0
 1187 1739 1144 1700 1144 1640 c 0
 1144 1570 1207 1508 1289 1508 c 0
 1386 1508 1473 1590 1473 1706 c 0
 1473 1827 1369 1940 1223 1940 c 0
 1075 1940 937 1814 937 1638 c 0
 937 1459 1087 1299 1291 1299 c 0
 1504 1299 1683 1477 1683 1705 c 0
 1683 1945 1483 2150 1225 2150 c 0
 948 2150 726 1919 726 1639 c 0
 726 1331 982 1088 1289 1088 c 0
 1523 1088 1555 1197 1789 1197 c 0
 2104 1197 2352 944 2352 644 c 0
 2352 349 2114 134 1852 134 c 0
 1594 134 1395 341 1395 580 c 0
 1395 811 1578 985 1787 985 c 0
 1988 985 2141 827 2141 646 c 0
 2141 475 2007 345 1854 345 c 0
 1709 345 1605 458 1605 578 c 0
 1605 694 1693 775 1786 775 c 0
 1870 775 1931 714 1931 646 c 0
 1931 595 1896 553 1852 553 c 0
 1827 553 1815 567 1811 574 c 1
 1818 571 1827 568 1837 568 c 0
 1876 568 1903 604 1903 641 c 0
 1903 695 1855 743 1789 743 c 0
 1710 743 1639 674 1639 580 c 0
 1639 476 1729 379 1855 379 c 0
 1984 379 2106 490 2106 647 c 0
 2106 805 1972 951 1786 951 c 0
 1598 951 1430 793 1430 579 c 0
 1430 358 1614 169 1853 169 c 0
 2108 169 2317 382 2317 645 c 0
 2317 930 2080 1162 1788 1162 c 0
 1564 1162 1531 1053 1288 1053 c 0
 1201 1053 1121 1074 1070 1093 c 1
 1135 1019 1196 912 1216 781 c 1
 1235 835 1271 914 1331 983 c 1
 1554 996 1599 1091 1788 1091 c 0
 2047 1091 2246 885 2246 645 c 0
 2246 415 2062 240 1853 240 c 0
 1652 240 1500 398 1500 579 c 0
 1500 751 1634 880 1786 880 c 0
 1932 880 2035 768 2035 647 c 0
 2035 532 1948 450 1855 450 c 0
 1770 450 1710 512 1710 580 c 0
 1710 630 1745 672 1789 672 c 0
 1813 672 1825 660 1829 651 c 1
 1823 655 1814 657 1804 657 c 0
 1765 657 1738 621 1738 584 c 0
 1738 529 1788 482 1852 482 c 0
 1931 482 2002 551 2002 646 c 0
 2002 750 1912 846 1786 846 c 0
 1656 846 1535 735 1535 578 c 0
 1535 420 1669 275 1854 275 c 0
 2042 275 2211 432 2211 646 c 0
 2211 867 2027 1056 1787 1056 c 0
 1533 1056 1324 844 1324 580 c 0
 1324 295 1561 64 1852 64 c 0
 2170 64 2422 327 2422 644 c 0
 2422 994 2133 1267 1789 1267 c 0
 1539 1267 1503 1158 1289 1158 c 0
 1004 1158 797 1388 797 1639 c 0
 797 1890 997 2080 1225 2080 c 0
 1445 2080 1613 1905 1613 1705 c 0
 1613 1513 1462 1369 1291 1369 c 0
 1126 1369 1007 1498 1007 1638 c 0
 1007 1772 1111 1869 1223 1869 c 0
 1328 1869 1403 1790 1403 1706 c 0
 1403 1628 1345 1578 1290 1578 c 0
 1250 1578 1214 1606 1214 1640 c 0
 1214 1652 1218 1659 1219 1660 c 1
 1221 1632 1245 1604 1284 1604 c 0
 1330 1604 1371 1646 1371 1703 c 0
 1371 1782 1301 1835 1224 1835 c 0
 1130 1835 1041 1754 1041 1638 c 0
 1041 1517 1145 1404 1292 1404 c 0
 1440 1404 1578 1529 1578 1706 c 0
 1578 1885 1427 2045 1224 2045 c 0
 1011 2045 832 1867 832 1639 c 0
 832 1397 1033 1193 1290 1193 c 0
 1567 1193 1789 1424 1789 1704 c 0
 1789 2012 1533 2256 1226 2256 c 0
 890 2256 620 1979 620 1640 c 0
 620 1423 726 1227 900 1104 c 0
 1005 1030 1118 886 1118 686 c 0
 1118 418 903 211 654 211 c 0
 413 211 231 403 231 622 c 0
 231 833 398 992 588 992 c 0
 770 992 907 850 907 688 c 0
 907 533 786 422 656 422 c 0
 531 422 442 518 442 620 c 0
 442 717 515 783 588 783 c 0
 649 783 698 740 698 686 c 0
 698 654 676 627 652 627 c 1
 652 627 651 627 651 628 c 1
 665 637 677 654 677 677 c 0
 677 713 645 752 591 752 c 0
 530 752 475 696 475 623 c 0
 475 535 550 456 655 456 c 0
 768 456 872 552 872 689 c 0
 872 828 754 958 588 958 c 0
 418 958 266 815 266 621 c 0
 266 420 434 246 655 246 c 0
 889 246 1083 441 1083 687 c 0
 1083 953 861 1168 589 1168 c 0
 291 1168 55 920 55 623 c 0
 55 293 329 35 653 35 c 0
 922 35 1095 194 1174 307 c 0
 1195 337 1215 371 1231 405 c 1
 1237 402 1250 393 1250 374 c 0
 1250 346 1170 230 1083 157 c 0
 988 77 843 0 653 0 c 0
 292 0 20 291 20 623 c 0
 20 953 285 1203 590 1203 c 0
 659 1203 721 1190 769 1173 c 1
 678 1270 585 1431 585 1641 c 0
 585 2011 884 2291 1226 2291 c 0
 1566 2291 1824 2017 1824 1704 c 0
 1824 1549 1759 1394 1632 1285 c 1
 1678 1296 1727 1302 1789 1302 c 0
 2170 1302 2457 995 2457 644 c 0
EndSplineSet
EndChar
StartChar: bracketleft
Encoding: 91 91 59
Width: 2282
Flags: W
Fore
2240 0 m 1
 591 0 l 1
 705 197 l 1
 43 197 l 1
 867 1625 l 1
 981 1428 l 1
 1312 2001 l 1
 2136 573 l 1
 1909 573 l 1
 2240 0 l 1
2076 608 m 1
 1312 1931 l 1
 1001 1393 l 1
 1025 1351 l 1
 1312 1847 l 1
 2003 650 l 1
 1637 650 l 1
 1661 608 l 1
 2076 608 l 1
1942 685 m 1
 1312 1777 l 1
 1046 1316 l 1
 1094 1231 l 1
 1312 1608 l 1
 1844 685 l 1
 1942 685 l 1
1715 685 m 1
 1312 1384 l 1
 1159 1119 l 1
 1198 1052 l 1
 1302 1231 l 1
 1617 685 l 1
 1715 685 l 1
1804 685 m 1
 1312 1538 l 1
 775 608 l 1
 942 608 l 1
 966 650 l 1
 848 650 l 1
 1312 1454 l 1
 1755 685 l 1
 1804 685 l 1
1487 685 m 1
 1302 1007 l 1
 1263 940 l 1
 1410 685 l 1
 1487 685 l 1
1369 685 m 1
 1139 1084 l 1
 1115 1042 l 1
 1321 685 l 1
 1369 685 l 1
1838 232 m 1
 1302 1161 l 1
 1218 1017 l 1
 1242 975 l 1
 1302 1077 l 1
 1765 274 l 1
 878 274 l 1
 854 232 l 1
 1838 232 l 1
1280 685 m 1
 1198 828 l 1
 1116 685 l 1
 1280 685 l 1
1532 608 m 1
 1508 650 l 1
 1095 650 l 1
 1071 608 l 1
 1532 608 l 1
1133 940 m 1
 1094 1007 l 1
 909 685 l 1
 986 685 l 1
 1133 940 l 1
1517 429 m 1
 1434 573 l 1
 1385 573 l 1
 1444 471 l 1
 517 471 l 1
 961 1239 l 1
 936 1281 l 1
 444 429 l 1
 1517 429 l 1
1178 863 m 1
 1154 905 l 1
 923 506 l 1
 972 506 l 1
 1178 863 l 1
2046 112 m 1
 1779 573 l 1
 1681 573 l 1
 1899 197 l 1
 834 197 l 1
 785 112 l 1
 2046 112 l 1
1705 309 m 1
 1552 573 l 1
 1474 573 l 1
 1578 394 l 1
 947 394 l 1
 899 309 l 1
 1705 309 l 1
1384 506 m 1
 1345 573 l 1
 1051 573 l 1
 1012 506 l 1
 1384 506 l 1
2179 35 m 1
 1868 573 l 1
 1820 573 l 1
 2106 77 l 1
 724 77 l 1
 907 394 l 1
 859 394 l 1
 651 35 l 1
 2179 35 l 1
1030 1119 m 1
 981 1204 l 1
 578 506 l 1
 883 506 l 1
 922 573 l 1
 715 573 l 1
 1030 1119 l 1
1074 1196 m 1
 867 1555 l 1
 103 232 l 1
 725 232 l 1
 749 274 l 1
 176 274 l 1
 867 1471 l 1
 1050 1154 l 1
 1074 1196 l 1
916 1316 m 1
 867 1401 l 1
 237 309 l 1
 769 309 l 1
 818 394 l 1
 384 394 l 1
 916 1316 l 1
EndSplineSet
EndChar
StartChar: backslash
Encoding: 92 92 60
Width: 2420
Flags: W
Fore
2363 731 m 1
 2341 697 l 2
 2268 588 2173 500 2065 436 c 1
 2064 311 2035 185 1977 67 c 2
 1959 31 l 1
 1920 23 l 2
 1842 8 1763 0 1685 0 c 0
 1520 0 1358 34 1210 98 c 1
 1062 34 900 0 735 0 c 0
 657 0 578 8 500 23 c 2
 461 31 l 1
 443 67 l 2
 385 185 356 311 355 436 c 1
 247 500 152 588 79 697 c 2
 57 731 l 1
 70 768 l 2
 150 1005 299 1204 489 1346 c 1
 517 1582 615 1811 780 1998 c 2
 806 2028 l 1
 846 2026 l 2
 977 2017 1101 1979 1210 1917 c 1
 1319 1979 1443 2017 1574 2026 c 2
 1614 2028 l 1
 1640 1998 l 2
 1805 1811 1903 1582 1931 1346 c 1
 2121 1204 2270 1005 2350 768 c 2
 2363 731 l 1
1745 1460 m 1
 1709 1604 1642 1741 1545 1860 c 1
 1480 1852 1417 1835 1359 1810 c 1
 1446 1733 1516 1639 1566 1532 c 1
 1628 1513 1688 1489 1745 1460 c 1
1894 1204 m 0
 1894 1462 1808 1739 1606 1969 c 2
 1595 1982 l 1
 1577 1981 l 2
 1461 1973 1352 1941 1255 1890 c 1
 1277 1875 1300 1860 1321 1843 c 1
 1396 1877 1478 1900 1564 1908 c 1
 1746 1693 1822 1437 1822 1204 c 0
 1822 1154 1819 1103 1812 1053 c 1
 1833 1031 1854 1008 1873 985 c 1
 1887 1058 1894 1125 1894 1204 c 0
2183 755 m 1
 2128 899 2043 1025 1937 1129 c 1
 1933 1064 1924 1000 1909 937 c 1
 1977 841 2024 732 2047 619 c 1
 2098 657 2144 703 2183 755 c 1
1777 1204 m 0
 1777 1222 1777 1239 1776 1257 c 1
 1729 1287 1680 1313 1629 1336 c 1
 1638 1288 1644 1232 1645 1181 c 1
 1680 1161 1713 1138 1745 1112 c 2
 1771 1090 l 1
 1775 1128 1777 1166 1777 1204 c 0
1353 1577 m 1
 1312 1633 1264 1682 1210 1724 c 1
 1156 1682 1108 1633 1067 1577 c 1
 1114 1583 1162 1586 1210 1586 c 0
 1258 1586 1306 1583 1353 1577 c 1
1772 1312 m 1
 1768 1343 1764 1373 1758 1403 c 1
 1559 1510 1365 1541 1210 1541 c 0
 1151 1541 1092 1536 1035 1527 c 1
 1019 1502 1006 1475 994 1447 c 1
 1064 1461 1136 1469 1210 1469 c 0
 1378 1469 1579 1428 1772 1312 c 1
2313 737 m 1
 2308 754 l 2
 2235 968 2104 1150 1936 1285 c 1
 1938 1258 1939 1231 1939 1204 c 2
 1939 1188 l 1
 2069 1070 2172 920 2234 748 c 1
 2104 564 1895 445 1662 435 c 1
 1641 410 1619 386 1597 363 c 1
 1608 363 1619 362 1630 362 c 0
 1876 362 2140 478 2304 722 c 2
 2313 737 l 1
1508 1548 m 1
 1373 1805 1119 1963 843 1981 c 2
 825 1982 l 1
 814 1969 l 2
 665 1799 572 1594 540 1382 c 1
 566 1400 594 1417 622 1432 c 1
 659 1604 737 1768 856 1908 c 1
 1089 1887 1291 1760 1413 1568 c 1
 1445 1563 1476 1556 1508 1548 c 1
2007 591 m 1
 1962 834 1817 1019 1644 1129 c 1
 1642 1102 1640 1075 1636 1048 c 1
 1791 938 1909 764 1940 553 c 1
 1963 564 1985 577 2007 591 c 1
1478 1257 m 1
 1472 1307 1461 1352 1446 1397 c 1
 1370 1414 1291 1424 1210 1424 c 0
 1129 1424 1050 1414 974 1397 c 1
 959 1352 948 1307 942 1257 c 1
 1029 1286 1120 1300 1210 1300 c 0
 1300 1300 1391 1286 1478 1257 c 1
1061 1810 m 1
 1003 1835 940 1852 875 1860 c 1
 778 1741 711 1604 675 1460 c 1
 732 1489 792 1513 854 1532 c 1
 904 1639 974 1733 1061 1810 c 1
1172 1751 m 1
 1150 1765 1128 1778 1105 1790 c 1
 924 1636 830 1418 821 1206 c 1
 845 1219 870 1230 895 1240 c 1
 925 1559 1140 1726 1172 1751 c 1
1897 533 m 1
 1889 601 1870 667 1842 730 c 1
 1804 641 1754 557 1699 483 c 1
 1767 490 1834 507 1897 533 c 1
1600 1172 m 0
 1600 1239 1592 1300 1579 1356 c 1
 1552 1366 1525 1375 1497 1383 c 1
 1515 1325 1528 1253 1528 1172 c 0
 1528 954 1430 738 1248 594 c 1
 1270 580 1292 567 1315 555 c 1
 1503 715 1600 945 1600 1172 c 0
1732 901 m 1
 1706 931 1676 959 1644 985 c 2
 1627 998 l 1
 1590 819 1496 656 1359 535 c 1
 1379 527 l 2
 1418 512 1457 500 1496 492 c 1
 1602 605 1684 744 1732 901 c 1
1483 1172 m 0
 1483 1184 1483 1196 1482 1208 c 1
 1394 1239 1302 1255 1210 1255 c 0
 1023 1255 818 1188 656 1036 c 1
 661 1008 667 980 674 952 c 1
 821 1108 1019 1183 1210 1183 c 0
 1302 1183 1395 1166 1482 1131 c 1
 1483 1145 1483 1158 1483 1172 c 0
1477 1084 m 1
 1392 1120 1301 1138 1210 1138 c 0
 1119 1138 1028 1120 943 1084 c 1
 966 901 1063 734 1210 621 c 1
 1357 734 1454 901 1477 1084 c 1
1815 783 m 1
 1800 809 1784 835 1766 859 c 1
 1675 588 1488 378 1260 253 c 1
 1288 240 1317 229 1346 219 c 1
 1582 366 1734 576 1815 783 c 1
791 1336 m 1
 740 1313 691 1287 644 1257 c 1
 643 1239 643 1222 643 1204 c 0
 643 1166 645 1128 649 1090 c 1
 675 1112 l 2
 707 1138 740 1161 775 1181 c 1
 776 1232 782 1288 791 1336 c 1
1898 361 m 1
 1812 332 1721 317 1630 317 c 0
 1604 317 1579 319 1553 321 c 1
 1506 277 1455 237 1402 201 c 1
 1493 176 1588 162 1685 162 c 0
 1739 162 1794 166 1848 175 c 1
 1874 235 1890 298 1898 361 c 1
1459 455 m 1
 1161 526 943 770 900 1065 c 1
 877 1053 855 1041 833 1027 c 1
 886 739 1094 489 1395 397 c 1
 1417 416 1438 435 1459 455 c 1
2019 411 m 1
 1995 399 1970 388 1945 378 c 1
 1937 295 1916 213 1880 135 c 1
 1814 123 1749 117 1685 117 c 0
 1469 117 1226 183 1015 348 c 1
 986 340 956 333 926 328 c 1
 1108 170 1372 45 1685 45 c 0
 1760 45 1836 52 1911 67 c 2
 1929 71 l 1
 1936 87 l 2
 1988 191 2015 301 2019 411 c 1
1061 535 m 1
 924 656 830 819 793 998 c 1
 776 985 l 2
 744 959 714 931 688 901 c 1
 726 774 798 627 924 492 c 1
 963 500 1002 512 1041 527 c 2
 1061 535 l 1
1352 364 m 1
 1301 382 1254 403 1210 428 c 1
 1166 403 1119 382 1068 364 c 1
 1113 331 1161 302 1210 277 c 1
 1259 302 1307 331 1352 364 c 1
871 484 m 1
 680 700 598 963 598 1204 c 2
 598 1225 l 1
 573 1207 549 1188 526 1168 c 1
 533 950 606 698 780 480 c 1
 784 479 787 479 790 479 c 0
 817 479 844 481 871 484 c 1
831 1477 m 1
 501 1363 230 1101 112 754 c 2
 107 737 l 1
 116 722 l 2
 181 626 263 547 356 488 c 1
 357 516 360 543 364 570 c 1
 296 617 236 677 186 748 c 1
 286 1025 502 1268 803 1390 c 1
 811 1419 820 1449 831 1477 c 1
1165 455 m 1
 1142 470 1120 486 1099 502 c 1
 987 451 879 434 790 434 c 0
 681 434 588 459 518 486 c 1
 517 472 517 459 517 445 c 0
 517 433 517 421 518 410 c 1
 605 379 697 362 790 362 c 0
 940 362 1066 403 1165 455 c 1
511 937 m 1
 496 1000 487 1064 483 1128 c 1
 377 1025 292 899 237 755 c 1
 276 703 322 657 373 619 c 1
 396 732 443 841 511 937 c 1
1154 124 m 1
 1125 138 1097 153 1069 170 c 1
 962 135 850 117 735 117 c 0
 671 117 605 123 540 135 c 1
 501 221 472 322 472 445 c 0
 472 581 508 695 556 786 c 1
 544 817 534 848 526 879 c 1
 463 779 400 630 400 445 c 0
 400 310 434 187 484 87 c 2
 491 71 l 1
 509 67 l 2
 584 52 660 45 735 45 c 0
 880 45 1022 72 1154 124 c 1
721 483 m 1
 666 557 616 641 578 730 c 1
 550 667 531 601 523 533 c 1
 586 507 653 490 721 483 c 1
1018 201 m 1
 965 237 914 277 867 321 c 1
 841 319 816 317 790 317 c 0
 699 317 608 332 522 361 c 1
 530 298 546 235 572 175 c 1
 626 166 681 162 735 162 c 0
 832 162 927 176 1018 201 c 1
EndSplineSet
EndChar
